<svg width="80" height="127" xmlns="http://www.w3.org/2000/svg" xmlns:xlink="http://www.w3.org/1999/xlink" xmlns:svgjs="http://svgjs.com/svgjs" viewBox="776 460 80 127"><svg width="80" height="127" xmlns="http://www.w3.org/2000/svg" xmlns:xlink="http://www.w3.org/1999/xlink" xmlns:svgjs="http://svgjs.com/svgjs" viewBox="776 460 80 127" x="776" y="460"><svg width="11" height="11" xmlns="http://www.w3.org/2000/svg" xmlns:xlink="http://www.w3.org/1999/xlink" xmlns:svgjs="http://svgjs.com/svgjs" viewBox="0 0.637 11 9.725" fill="#ffc9b0" x="843" y="560"><svg xmlns="http://www.w3.org/2000/svg" xmlns:xlink="http://www.w3.org/1999/xlink" width="11" height="11" viewBox="0.191 0.851 10.626 9.394"><path paint-order="stroke fill markers" fill-rule="evenodd" d="M10.184 1.953c2.94 3.679-5.108 11.238-8.903 7.077-4.468-4.892 6.065-10.625 8.903-7.077z"/></svg></svg><svg width="13" height="11" xmlns="http://www.w3.org/2000/svg" xmlns:xlink="http://www.w3.org/1999/xlink" xmlns:svgjs="http://svgjs.com/svgjs" viewBox="0.364 0 12.271 11" fill="#093f68" x="842" y="560"><svg xmlns="http://www.w3.org/2000/svg" xmlns:xlink="http://www.w3.org/1999/xlink" width="13" height="11" viewBox="0.534 0.199 11.94 10.703"><path paint-order="stroke fill markers" fill-rule="evenodd" d="M5.007 10.901a4.2 4.2 0 0 1-3.215-1.434 4.11 4.11 0 0 1-1.03-4.305C1.641 2.592 4.778.74 7.282.31c1.957-.34 3.502.104 4.41 1.239 1.767 2.21.305 5.4-2.05 7.409A7.47 7.47 0 0 1 5.008 10.9zM8.49 1.484a6.05 6.05 0 0 0-.991.091C5.034 2.005 2.619 3.753 2 5.567a2.864 2.864 0 0 0 .757 3c1.605 1.76 4.18.958 6.033-.62 1.852-1.578 3.11-4.057 1.878-5.609-.56-.6-1.36-.914-2.178-.854z"/></svg></svg><svg width="9" height="7" xmlns="http://www.w3.org/2000/svg" xmlns:xlink="http://www.w3.org/1999/xlink" xmlns:svgjs="http://svgjs.com/svgjs" viewBox="0.55 0 7.901 7" fill="#68e1fd" x="803" y="461"><svg xmlns="http://www.w3.org/2000/svg" xmlns:xlink="http://www.w3.org/1999/xlink" width="9" height="7" viewBox="0.791 0.308 7.248 6.422"><path paint-order="stroke fill markers" fill-rule="evenodd" d="M8.038 5.563S4.927-.203 2.423.345C-.082.893.903 2.588 1.438 2.954c.535.365 4.474.652 5.218 3.776l1.382-1.167z"/></svg></svg><svg width="9" height="9" xmlns="http://www.w3.org/2000/svg" xmlns:xlink="http://www.w3.org/1999/xlink" xmlns:svgjs="http://svgjs.com/svgjs" viewBox="0 0.429 9 8.143" fill="#093f68" x="803" y="460"><svg xmlns="http://www.w3.org/2000/svg" xmlns:xlink="http://www.w3.org/1999/xlink" width="9" height="9" viewBox="0.145 0.632 8.544 7.731"><path paint-order="stroke fill markers" fill-rule="evenodd" d="M6.675 8.356c-.069.01-.14.01-.208 0a.652.652 0 0 1-.43-.463C5.533 5.813 3.237 5.18 2.004 4.84a3.264 3.264 0 0 1-.932-.34 2.218 2.218 0 0 1-.9-2.152C.283 1.762.74 1.006 2.286.68 5.188.068 8.266 5.61 8.613 6.244c.145.272.08.61-.158.809L7.092 8.219a.65.65 0 0 1-.417.137zM2.762 1.945h-.196c-.652.137-1.057.372-1.108.652-.01.3.12.587.351.776.053 0 .327.105.549.163 1.213.34 3.587.992 4.617 3.06l.235-.197C6.017 4.371 4.066 1.945 2.755 1.945h.007z"/></svg></svg><svg width="49" height="48" xmlns="http://www.w3.org/2000/svg" xmlns:xlink="http://www.w3.org/1999/xlink" xmlns:svgjs="http://svgjs.com/svgjs" viewBox="0 0.161 49 47.678" fill="#68e1fd" x="793" y="536"><svg xmlns="http://www.w3.org/2000/svg" xmlns:xlink="http://www.w3.org/1999/xlink" width="49" height="48" viewBox="0.481 0.876 47.63 46.346"><path paint-order="stroke fill markers" fill-rule="evenodd" d="M17.106.876h14.38c9.182 0 16.626 7.443 16.626 16.625v29.72H.48V17.495C.485 8.315 7.927.876 17.106.876z"/></svg></svg><svg width="50" height="48" xmlns="http://www.w3.org/2000/svg" xmlns:xlink="http://www.w3.org/1999/xlink" xmlns:svgjs="http://svgjs.com/svgjs" viewBox="0.353 0 49.294 48" fill="#093f68" x="792" y="536"><svg xmlns="http://www.w3.org/2000/svg" xmlns:xlink="http://www.w3.org/1999/xlink" width="50" height="48" viewBox="0.829 0.224 48.934 47.65"><path paint-order="stroke fill markers" fill-rule="evenodd" d="M49.137 47.874H1.481a.652.652 0 0 1-.652-.652V17.494C.839 7.945 8.589.214 18.139.224h14.348c9.536.007 17.265 7.734 17.276 17.27v29.728c0 .35-.276.638-.626.652zM2.133 46.569h46.352V17.494c-.01-8.826-7.172-15.973-15.998-15.966H18.139c-8.816.008-15.962 7.15-15.973 15.966L2.133 46.57z"/></svg></svg><svg width="3" height="26" xmlns="http://www.w3.org/2000/svg" xmlns:xlink="http://www.w3.org/1999/xlink" xmlns:svgjs="http://svgjs.com/svgjs" viewBox="0.808 0 1.384 26" fill="#093f68" x="831" y="545"><svg xmlns="http://www.w3.org/2000/svg" xmlns:xlink="http://www.w3.org/1999/xlink" width="3" height="26" viewBox="0.804 0.831 1.305 24.516"><path paint-order="stroke fill markers" fill-rule="evenodd" d="M1.456 25.347a.652.652 0 0 1-.652-.652V1.483a.652.652 0 1 1 1.304 0v23.192a.653.653 0 0 1-.652.672z"/></svg></svg><svg width="3" height="39" xmlns="http://www.w3.org/2000/svg" xmlns:xlink="http://www.w3.org/1999/xlink" xmlns:svgjs="http://svgjs.com/svgjs" viewBox="0.831 0 1.338 39" fill="#093f68" x="802" y="545"><svg xmlns="http://www.w3.org/2000/svg" xmlns:xlink="http://www.w3.org/1999/xlink" width="3" height="39" viewBox="0.885 0.831 1.305 38.043"><path paint-order="stroke fill markers" fill-rule="evenodd" d="M1.538 38.874a.652.652 0 0 1-.653-.652V1.483a.652.652 0 1 1 1.305 0v36.719a.654.654 0 0 1-.652.672z"/></svg></svg><svg width="29" height="30" xmlns="http://www.w3.org/2000/svg" xmlns:xlink="http://www.w3.org/1999/xlink" xmlns:svgjs="http://svgjs.com/svgjs" viewBox="0.106 0 28.787 30" fill="#093f68" x="803" y="554"><svg xmlns="http://www.w3.org/2000/svg" xmlns:xlink="http://www.w3.org/1999/xlink" width="29" height="30" viewBox="0.538 0.518 27.543 28.703"><path paint-order="stroke fill markers" fill-rule="evenodd" d="M23.593.518H5.025L.538 4.855v24.367H28.08V4.855L23.593.518z"/></svg></svg><svg width="30" height="31" xmlns="http://www.w3.org/2000/svg" xmlns:xlink="http://www.w3.org/1999/xlink" xmlns:svgjs="http://svgjs.com/svgjs" viewBox="0.09 0 29.821 31" fill="#093f68" x="802" y="553"><svg xmlns="http://www.w3.org/2000/svg" xmlns:xlink="http://www.w3.org/1999/xlink" width="30" height="31" viewBox="0.885 0.886 28.848 29.988"><path paint-order="stroke fill markers" fill-rule="evenodd" d="M29.08 30.874H1.539a.652.652 0 0 1-.653-.652V5.875c0-.177.07-.346.196-.47l4.494-4.337a.654.654 0 0 1 .45-.182h18.568c.168 0 .329.066.45.182l4.494 4.337a.653.653 0 0 1 .196.47v24.366a.653.653 0 0 1-.652.633zM2.19 29.569h26.238V6.136L24.326 2.17H6.293L2.19 6.136v23.433z"/></svg></svg><svg width="2" height="21" xmlns="http://www.w3.org/2000/svg" xmlns:xlink="http://www.w3.org/1999/xlink" xmlns:svgjs="http://svgjs.com/svgjs" viewBox="0.319 0 1.362 21" fill="#093f68" x="807" y="536"><svg xmlns="http://www.w3.org/2000/svg" xmlns:xlink="http://www.w3.org/1999/xlink" width="2" height="21" viewBox="0.373 0.224 1.304 20.094"><path paint-order="stroke fill markers" fill-rule="evenodd" d="M1.025 20.318a.652.652 0 0 1-.652-.652V.876a.652.652 0 1 1 1.304 0v18.79c0 .36-.292.652-.652.652z"/></svg></svg><svg width="2" height="21" xmlns="http://www.w3.org/2000/svg" xmlns:xlink="http://www.w3.org/1999/xlink" xmlns:svgjs="http://svgjs.com/svgjs" viewBox="0.318 0 1.363 21" fill="#093f68" x="826" y="536"><svg xmlns="http://www.w3.org/2000/svg" xmlns:xlink="http://www.w3.org/1999/xlink" width="2" height="21" viewBox="0.045 0.224 1.305 20.094"><path paint-order="stroke fill markers" fill-rule="evenodd" d="M.698 20.318a.652.652 0 0 1-.653-.652V.876a.652.652 0 0 1 1.305 0v18.79c0 .36-.292.652-.652.652z"/></svg></svg><svg width="57" height="62" xmlns="http://www.w3.org/2000/svg" xmlns:xlink="http://www.w3.org/1999/xlink" xmlns:svgjs="http://svgjs.com/svgjs" viewBox="0 0.272 57 61.455" fill="#725858" x="789" y="472"><svg xmlns="http://www.w3.org/2000/svg" xmlns:xlink="http://www.w3.org/1999/xlink" width="57" height="62" viewBox="0.401 0.591 56.524 60.942"><path paint-order="stroke fill markers" fill-rule="evenodd" d="M.92 59.56c.704 1.56 2.211 2.075 4.833 1.957 5.635-.26 11.335 0 16.957 0h31.116c1.853 0 2.804-.906 2.91-2.778.462-8.068 0-16.018-.529-24.06-.444-7.239-1.429-14.661-5.074-21.072-7.038-12.392-25.886-18.04-34.045-7.442 0 0-5.824-1.957-11.349 4.866C1.213 16.607.783 24.016.705 30.87L.41 56.351a7.884 7.884 0 0 0 .509 3.209z"/></svg></svg><svg width="59" height="64" xmlns="http://www.w3.org/2000/svg" xmlns:xlink="http://www.w3.org/1999/xlink" xmlns:svgjs="http://svgjs.com/svgjs" viewBox="0 0.233 59 63.534" fill="#093f68" x="788" y="471"><svg xmlns="http://www.w3.org/2000/svg" xmlns:xlink="http://www.w3.org/1999/xlink" width="59" height="64" viewBox="0.738 0.919 57.826 62.27"><path paint-order="stroke fill markers" fill-rule="evenodd" d="M5.97 63.19c-1.891 0-3.782-.399-4.67-2.362a8.334 8.334 0 0 1-.547-3.502l.293-25.488c.079-7.11.548-14.531 5.179-20.218 4.91-6.06 10.07-5.524 11.608-5.218C21.023 2.49 25.908.578 31.64.97c8.401.587 16.86 5.922 21.054 13.292 3.795 6.672 4.741 14.538 5.158 21.353.49 7.892.992 16.038.53 24.131-.131 2.218-1.358 3.385-3.562 3.392H23.703c-1.832 0-3.665 0-5.504-.052-3.764-.052-7.65-.105-11.446.071-.267.02-.516.033-.783.033zM16.04 7.53c-2.028 0-5.44.744-8.804 4.892-4.37 5.38-4.807 12.555-4.886 19.435L2.057 57.34a7.16 7.16 0 0 0 .437 2.954c.405.9 1.193 1.71 4.2 1.572 3.835-.176 7.741-.124 11.525-.071 1.832 0 3.659.052 5.484.052H54.82c1.513 0 2.171-.653 2.257-2.166.463-8.022 0-15.763-.522-23.968-.437-7.011-1.344-14.348-4.997-20.799C47.574 7.91 39.533 2.835 31.55 2.28c-5.445-.372-10.043 1.494-12.946 5.263a.651.651 0 0 1-.723.222 6.372 6.372 0 0 0-1.84-.235z"/></svg></svg><svg width="9" height="9" xmlns="http://www.w3.org/2000/svg" xmlns:xlink="http://www.w3.org/1999/xlink" xmlns:svgjs="http://svgjs.com/svgjs" viewBox="0 0.004 9 8.992" fill="#ffc9b0" x="813" y="536"><svg xmlns="http://www.w3.org/2000/svg" xmlns:xlink="http://www.w3.org/1999/xlink" width="9" height="9" viewBox="0.347 0.857 7.676 7.67"><path paint-order="stroke fill markers" fill-rule="evenodd" d="M.36.876h7.663v4.39a3.26 3.26 0 0 1-3.26 3.26H3.608c-1.8 0-3.261-1.46-3.261-3.26V.855l.013.02z"/></svg></svg><svg width="10" height="10" xmlns="http://www.w3.org/2000/svg" xmlns:xlink="http://www.w3.org/1999/xlink" xmlns:svgjs="http://svgjs.com/svgjs" viewBox="0.004 0 9.993 10" fill="#093f68" x="812" y="536"><svg xmlns="http://www.w3.org/2000/svg" xmlns:xlink="http://www.w3.org/1999/xlink" width="10" height="10" viewBox="0.701 0.204 8.968 8.974"><path paint-order="stroke fill markers" fill-rule="evenodd" d="M5.769 9.179H4.614A3.913 3.913 0 0 1 .701 5.265V.857c0-.36.292-.653.653-.653h7.663c.36 0 .652.292.652.653v4.408a3.913 3.913 0 0 1-3.9 3.914zM2.012 1.515v3.75a2.609 2.609 0 0 0 2.61 2.61h1.153a2.609 2.609 0 0 0 2.61-2.61V1.51l-6.373.006z"/></svg></svg><svg width="16" height="14" xmlns="http://www.w3.org/2000/svg" xmlns:xlink="http://www.w3.org/1999/xlink" xmlns:svgjs="http://svgjs.com/svgjs" viewBox="0 0.107 16 13.786" fill="#ffc9b0" x="787" y="510"><svg xmlns="http://www.w3.org/2000/svg" xmlns:xlink="http://www.w3.org/1999/xlink" width="16" height="14" viewBox="0.839 0.547 14.896 12.835"><path paint-order="stroke fill markers" fill-rule="evenodd" d="M8.288 13.382c-4.12 0-7.449-2.868-7.449-6.417C.84 3.415 4.17.547 8.288.547s7.447 2.869 7.447 6.418-3.328 6.417-7.447 6.417z"/></svg></svg><svg width="17" height="16" xmlns="http://www.w3.org/2000/svg" xmlns:xlink="http://www.w3.org/1999/xlink" xmlns:svgjs="http://svgjs.com/svgjs" viewBox="0 0.581 17 14.838" fill="#093f68" x="787" y="509"><svg xmlns="http://www.w3.org/2000/svg" xmlns:xlink="http://www.w3.org/1999/xlink" width="17" height="16" viewBox="0.187 0.895 16.201 14.14"><path paint-order="stroke fill markers" fill-rule="evenodd" d="M8.288 15.034c-4.468 0-8.1-3.17-8.1-7.07 0-3.9 3.632-7.07 8.1-7.07 4.467 0 8.1 3.17 8.1 7.07 0 3.9-3.64 7.07-8.1 7.07zm0-12.835c-3.75 0-6.796 2.609-6.796 5.766 0 3.156 3.045 5.765 6.796 5.765 3.75 0 6.795-2.609 6.795-5.765 0-3.157-3.032-5.766-6.795-5.766z"/></svg></svg><svg width="16" height="14" xmlns="http://www.w3.org/2000/svg" xmlns:xlink="http://www.w3.org/1999/xlink" xmlns:svgjs="http://svgjs.com/svgjs" viewBox="0 0.107 16 13.786" fill="#ffc9b0" x="831" y="510"><svg xmlns="http://www.w3.org/2000/svg" xmlns:xlink="http://www.w3.org/1999/xlink" width="16" height="14" viewBox="0.25 0.547 14.896 12.835"><path paint-order="stroke fill markers" fill-rule="evenodd" d="M7.698 13.382C3.579 13.382.25 10.514.25 6.965.25 3.415 3.58.547 7.698.547c4.12 0 7.448 2.869 7.448 6.418s-3.329 6.417-7.448 6.417z"/></svg></svg><svg width="17" height="16" xmlns="http://www.w3.org/2000/svg" xmlns:xlink="http://www.w3.org/1999/xlink" xmlns:svgjs="http://svgjs.com/svgjs" viewBox="0 0.578 17 14.843" fill="#093f68" x="830" y="509"><svg xmlns="http://www.w3.org/2000/svg" xmlns:xlink="http://www.w3.org/1999/xlink" width="17" height="16" viewBox="0.604 0.895 16.194 14.14"><path paint-order="stroke fill markers" fill-rule="evenodd" d="M8.698 15.034c-4.46 0-8.094-3.17-8.094-7.07 0-3.9 3.665-7.07 8.094-7.07 4.428 0 8.1 3.17 8.1 7.07 0 3.9-3.632 7.07-8.1 7.07zm0-12.835c-3.744 0-6.79 2.609-6.79 5.766 0 3.156 3.046 5.765 6.79 5.765s6.796-2.609 6.796-5.765c0-3.157-3.046-5.766-6.796-5.766z"/></svg></svg><svg width="46" height="50" xmlns="http://www.w3.org/2000/svg" xmlns:xlink="http://www.w3.org/1999/xlink" xmlns:svgjs="http://svgjs.com/svgjs" viewBox="0.238 0 45.525 50" fill="#ffc9b0" x="794" y="488"><svg xmlns="http://www.w3.org/2000/svg" xmlns:xlink="http://www.w3.org/1999/xlink" width="46" height="50" viewBox="0.733 0.587 44.917 49.332"><path paint-order="stroke fill markers" fill-rule="evenodd" d="M36.852 9.927L29.586.587S27.95 6.34 26.945 9.901l-11.459-.033-2.7-8.342-3.17 8.323H.733v17.609C.73 39.862 10.785 49.92 23.188 49.92c12.406 0 22.462-10.057 22.462-22.462V9.953l-8.798-.026z"/></svg></svg><svg width="47" height="52" xmlns="http://www.w3.org/2000/svg" xmlns:xlink="http://www.w3.org/1999/xlink" xmlns:svgjs="http://svgjs.com/svgjs" viewBox="0 0.287 47 51.427" fill="#093f68" x="794" y="487"><svg xmlns="http://www.w3.org/2000/svg" xmlns:xlink="http://www.w3.org/1999/xlink" width="47" height="52" viewBox="0.081 0.958 46.221 50.575"><path paint-order="stroke fill markers" fill-rule="evenodd" d="M23.188 51.533C10.43 51.518.092 41.177.081 28.419v-17.61c0-.36.292-.652.652-.652h8.433l3.02-7.904a.652.652 0 0 1 .652-.418.652.652 0 0 1 .6.45l2.557 7.892 10.48.032c.986-3.554 2.48-8.772 2.48-8.772a.651.651 0 0 1 1.147-.221l7.07 9.091h8.478c.36 0 .652.292.652.652v17.466c-.018 12.757-10.356 23.093-23.114 23.108zM1.385 11.475v16.957c-.003 12.045 9.762 21.81 21.807 21.81 12.045 0 21.81-9.765 21.81-21.81l-.004-16.827h-8.153a.65.65 0 0 1-.508-.248l-6.502-8.354c-.536 1.891-1.572 5.537-2.29 8.074a.652.652 0 0 1-.652.476l-11.407-.033a.652.652 0 0 1-.613-.45L12.74 4.49l-2.517 6.593a.653.653 0 0 1-.607.418l-8.23-.026z"/></svg></svg><svg width="17" height="17" xmlns="http://www.w3.org/2000/svg" xmlns:xlink="http://www.w3.org/1999/xlink" xmlns:svgjs="http://svgjs.com/svgjs" fill="#093f68" x="798" y="505"><svg xmlns="http://www.w3.org/2000/svg" xmlns:xlink="http://www.w3.org/1999/xlink" width="17" height="17" viewBox="0.959 0.799 15.992 15.992"><path paint-order="stroke fill markers" fill-rule="evenodd" d="M8.962 16.79a7.997 7.997 0 1 1 7.99-7.995 8.002 8.002 0 0 1-7.99 7.996zm0-14.68a6.691 6.691 0 1 0-.004 13.383A6.691 6.691 0 0 0 8.962 2.11z"/></svg></svg><svg width="17" height="17" xmlns="http://www.w3.org/2000/svg" xmlns:xlink="http://www.w3.org/1999/xlink" xmlns:svgjs="http://svgjs.com/svgjs" fill="#093f68" x="819" y="505"><svg xmlns="http://www.w3.org/2000/svg" xmlns:xlink="http://www.w3.org/1999/xlink" width="17" height="17" viewBox="0.419 0.799 15.992 15.992"><path paint-order="stroke fill markers" fill-rule="evenodd" d="M8.422 16.79a7.997 7.997 0 1 1 7.989-7.995 8.002 8.002 0 0 1-7.99 7.996zm0-14.68a6.692 6.692 0 1 0-.013 13.384A6.692 6.692 0 0 0 8.422 2.11z"/></svg></svg><svg width="5" height="5" xmlns="http://www.w3.org/2000/svg" xmlns:xlink="http://www.w3.org/1999/xlink" xmlns:svgjs="http://svgjs.com/svgjs" fill="#093f68" x="805" y="512"><svg xmlns="http://www.w3.org/2000/svg" xmlns:xlink="http://www.w3.org/1999/xlink" width="5" height="5" viewBox="0.573 0.151 4.161 4.161"><path paint-order="stroke fill markers" fill-rule="evenodd" d="M2.654 4.312a2.079 2.079 0 0 1-2.081-2.08c0-1.15.93-2.08 2.08-2.08s2.08.93 2.08 2.08-.93 2.08-2.08 2.08z"/></svg></svg><svg width="5" height="5" xmlns="http://www.w3.org/2000/svg" xmlns:xlink="http://www.w3.org/1999/xlink" xmlns:svgjs="http://svgjs.com/svgjs" fill="#093f68" x="824" y="511"><svg xmlns="http://www.w3.org/2000/svg" xmlns:xlink="http://www.w3.org/1999/xlink" width="5" height="5" viewBox="0.082 0.714 4.161 4.161"><path paint-order="stroke fill markers" fill-rule="evenodd" d="M2.162 4.875c-1.15 0-2.08-.93-2.08-2.08s.93-2.08 2.08-2.08c1.151 0 2.081.93 2.081 2.08s-.93 2.08-2.08 2.08z"/></svg></svg><svg width="6" height="8" xmlns="http://www.w3.org/2000/svg" xmlns:xlink="http://www.w3.org/1999/xlink" xmlns:svgjs="http://svgjs.com/svgjs" viewBox="0.182 0 5.635 8" fill="#093f68" x="814" y="514"><svg xmlns="http://www.w3.org/2000/svg" xmlns:xlink="http://www.w3.org/1999/xlink" width="6" height="8" viewBox="0.24 0.03 5.15 7.311"><path paint-order="stroke fill markers" fill-rule="evenodd" d="M2.817 7.34a13.331 13.331 0 0 1-2.028-.169.662.662 0 1 1 .228-1.304 9.787 9.787 0 0 0 3.078.032c.124-.6-.652-2.824-1.754-4.91A.655.655 0 1 1 3.5.381c.725 1.395 2.355 4.787 1.761 6.117a1.121 1.121 0 0 1-.756.653 6.993 6.993 0 0 1-1.69.189z"/></svg></svg><svg width="14" height="5" xmlns="http://www.w3.org/2000/svg" xmlns:xlink="http://www.w3.org/1999/xlink" xmlns:svgjs="http://svgjs.com/svgjs" viewBox="0 0.353 14 4.294" fill="#093f68" x="799" y="502"><svg xmlns="http://www.w3.org/2000/svg" xmlns:xlink="http://www.w3.org/1999/xlink" width="14" height="5" viewBox="0.776 0.586 12.545 3.848"><path paint-order="stroke fill markers" fill-rule="evenodd" d="M2.164 4.431A1.306 1.306 0 1 1 2 1.823L11.842.596a1.315 1.315 0 0 1 .327 2.61L2.327 4.43h-.163z"/></svg></svg><svg width="14" height="5" xmlns="http://www.w3.org/2000/svg" xmlns:xlink="http://www.w3.org/1999/xlink" xmlns:svgjs="http://svgjs.com/svgjs" viewBox="0 0.027 14 4.946" fill="#093f68" x="820" y="502"><svg xmlns="http://www.w3.org/2000/svg" xmlns:xlink="http://www.w3.org/1999/xlink" width="14" height="5" viewBox="0.885 0.327 12.519 4.422"><path paint-order="stroke fill markers" fill-rule="evenodd" d="M11.973 4.699a1.414 1.414 0 0 1-.234 0l-9.783-1.78a1.306 1.306 0 0 1 .47-2.57l9.783 1.787a1.31 1.31 0 0 1-.228 2.609l-.008-.046z"/></svg></svg><svg width="18" height="6" xmlns="http://www.w3.org/2000/svg" xmlns:xlink="http://www.w3.org/1999/xlink" xmlns:svgjs="http://svgjs.com/svgjs" viewBox="0 0.194 18 5.612" fill="#093f68" x="808" y="524"><svg xmlns="http://www.w3.org/2000/svg" xmlns:xlink="http://www.w3.org/1999/xlink" width="18" height="6" viewBox="0.051 0.109 17.376 5.417"><path paint-order="stroke fill markers" fill-rule="evenodd" d="M10.434 5.526A14.438 14.438 0 0 1 .195 1.169a.653.653 0 0 1 .972-.867c.247.274 6.17 6.724 15.332 2.517a.654.654 0 0 1 .549 1.187 15.745 15.745 0 0 1-6.614 1.52z"/></svg></svg><svg width="8" height="3" xmlns="http://www.w3.org/2000/svg" xmlns:xlink="http://www.w3.org/1999/xlink" xmlns:svgjs="http://svgjs.com/svgjs" viewBox="0 0.243 8 2.515" fill="#093f68" x="813" y="511"><svg xmlns="http://www.w3.org/2000/svg" xmlns:xlink="http://www.w3.org/1999/xlink" width="8" height="3" viewBox="0.581 0.241 7.154 2.249"><path paint-order="stroke fill markers" fill-rule="evenodd" d="M7.078 2.469a.652.652 0 0 1-.372-.118 4.286 4.286 0 0 0-5.068 0 .651.651 0 0 1-.92-.117.653.653 0 0 1 .111-.913 5.623 5.623 0 0 1 6.627 0 .653.653 0 0 1 .163.906.652.652 0 0 1-.541.242z"/></svg></svg><svg width="7" height="4" xmlns="http://www.w3.org/2000/svg" xmlns:xlink="http://www.w3.org/1999/xlink" xmlns:svgjs="http://svgjs.com/svgjs" viewBox="0 0.464 7 3.072" fill="#093f68" x="794" y="509"><svg xmlns="http://www.w3.org/2000/svg" xmlns:xlink="http://www.w3.org/1999/xlink" width="7" height="4" viewBox="0.575 0.905 5.739 2.519"><path paint-order="stroke fill markers" fill-rule="evenodd" d="M5.572 3.373a.817.817 0 0 1-.175 0L1.11 2.2A.651.651 0 1 1 1.457.947l4.285 1.167a.657.657 0 1 1-.17 1.305v-.046z"/></svg></svg><svg width="7" height="4" xmlns="http://www.w3.org/2000/svg" xmlns:xlink="http://www.w3.org/1999/xlink" xmlns:svgjs="http://svgjs.com/svgjs" viewBox="0 0.464 7 3.072" fill="#093f68" x="834" y="509"><svg xmlns="http://www.w3.org/2000/svg" xmlns:xlink="http://www.w3.org/1999/xlink" width="7" height="4" viewBox="0.343 0.857 5.745 2.521"><path paint-order="stroke fill markers" fill-rule="evenodd" d="M1.085 3.373a.657.657 0 1 1-.17-1.304L5.2.9a.653.653 0 1 1 .339 1.252L1.254 3.327a.697.697 0 0 1-.17.046z"/></svg></svg><svg width="52" height="26" xmlns="http://www.w3.org/2000/svg" xmlns:xlink="http://www.w3.org/1999/xlink" xmlns:svgjs="http://svgjs.com/svgjs" viewBox="0 0.242 52 25.515" fill="#68e1fd" x="788" y="460"><svg xmlns="http://www.w3.org/2000/svg" xmlns:xlink="http://www.w3.org/1999/xlink" width="52" height="26" viewBox="0.741 0.66 51.159 25.103"><path paint-order="stroke fill markers" fill-rule="evenodd" d="M9.094 25.463c3.49-.913 11.088-5.615 16.696-6.228 5.61-.613 18.823.913 22.769-1.213 3.946-2.127 5.159-9.712-.607-15.177-5.765-5.465-22.175.307-32.786 6.522S.596 16.802.746 21.054c.15 4.253 4.84 5.316 8.348 4.41z"/></svg></svg><svg width="53" height="27" xmlns="http://www.w3.org/2000/svg" xmlns:xlink="http://www.w3.org/1999/xlink" xmlns:svgjs="http://svgjs.com/svgjs" viewBox="0 0.156 53 26.687" fill="#093f68" x="788" y="460"><svg xmlns="http://www.w3.org/2000/svg" xmlns:xlink="http://www.w3.org/1999/xlink" width="53" height="27" viewBox="0.07 0 52.466 26.418"><path paint-order="stroke fill markers" fill-rule="evenodd" d="M6.714 26.415a7.827 7.827 0 0 1-4.612-1.35 5.007 5.007 0 0 1-2.027-3.984c-.138-3.842 2.66-5.42 9.43-9.23 1.552-.88 3.306-1.87 5.31-3.038 10.023-5.87 27.234-12.438 33.561-6.438 3.079 2.91 4.566 6.712 4.064 10.436-.346 2.608-1.69 4.78-3.594 5.804-2.661 1.435-8.818 1.305-14.766 1.2a76.112 76.112 0 0 0-8.237.092c-3.418.371-7.73 2.367-11.192 3.971a38.167 38.167 0 0 1-5.413 2.23 9.848 9.848 0 0 1-2.524.307zm34.22-25.11A31.493 31.493 0 0 0 33.52 2.35a73.14 73.14 0 0 0-18.046 7.572c-2.01 1.18-3.776 2.172-5.328 3.053-6.458 3.652-8.878 5.028-8.767 8.06 0 1.18.56 2.288 1.507 2.988 1.435 1.07 3.803 1.389 6.027.809a37.96 37.96 0 0 0 5.217-2.16c3.555-1.643 7.97-3.69 11.597-4.082a75.926 75.926 0 0 1 8.406-.098c5.512.105 11.74.228 14.12-1.043 1.54-.829 2.609-2.61 2.922-4.827.437-3.26-.9-6.678-3.665-9.3-1.598-1.487-3.992-2.015-6.574-2.015z"/></svg></svg><svg width="21" height="32" xmlns="http://www.w3.org/2000/svg" xmlns:xlink="http://www.w3.org/1999/xlink" xmlns:svgjs="http://svgjs.com/svgjs" viewBox="0.536 0 19.927 32" fill="#ffc9b0" x="784" y="554"><svg xmlns="http://www.w3.org/2000/svg" xmlns:xlink="http://www.w3.org/1999/xlink" width="21" height="32" viewBox="0.891 0.544 19.183 30.805"><path paint-order="stroke fill markers" fill-rule="evenodd" d="M18.468 29.267c-2.296 2.1-7.41 3.64-9.953-.652C5.972 24.324.891 5.905.891 5.905L6.846.545 18.73 20.051c1.638 2.765 2.035 7.122-.26 9.215z"/></svg></svg><svg width="21" height="34" xmlns="http://www.w3.org/2000/svg" xmlns:xlink="http://www.w3.org/1999/xlink" xmlns:svgjs="http://svgjs.com/svgjs" viewBox="0 0.526 21 32.948" fill="#093f68" x="784" y="553"><svg xmlns="http://www.w3.org/2000/svg" xmlns:xlink="http://www.w3.org/1999/xlink" width="21" height="34" viewBox="0.243 0.875 20.475 32.125"><path paint-order="stroke fill markers" fill-rule="evenodd" d="M13.218 33a5.934 5.934 0 0 1-5.27-3.078C5.392 25.578.474 7.805.266 7.055a.65.65 0 0 1 .189-.652l5.955-5.36a.65.65 0 0 1 .99.143l11.89 19.507c1.787 3.052 2.146 7.755-.378 10.063A8.9 8.9 0 0 1 13.218 33zM1.628 7.094c.75 2.675 5.18 18.308 7.448 22.175a4.566 4.566 0 0 0 3.366 2.368 7.37 7.37 0 0 0 5.596-1.846c1.957-1.813 1.67-5.824.137-8.433L6.702 2.53 1.63 7.094z"/></svg></svg><svg width="8" height="9" xmlns="http://www.w3.org/2000/svg" xmlns:xlink="http://www.w3.org/1999/xlink" xmlns:svgjs="http://svgjs.com/svgjs" viewBox="0 0.088 8 8.823" fill="#68e1fd" x="780" y="542"><svg xmlns="http://www.w3.org/2000/svg" xmlns:xlink="http://www.w3.org/1999/xlink" width="8" height="9" viewBox="0.229 0.763 7.439 8.204"><path paint-order="stroke fill markers" fill-rule="evenodd" d="M.229 2.646L5.339.763l2.328 6.322-5.11 1.883L.23 2.646z"/></svg></svg><svg width="10" height="10" xmlns="http://www.w3.org/2000/svg" xmlns:xlink="http://www.w3.org/1999/xlink" xmlns:svgjs="http://svgjs.com/svgjs" viewBox="0.409 0 9.182 10" fill="#093f68" x="779" y="542"><svg xmlns="http://www.w3.org/2000/svg" xmlns:xlink="http://www.w3.org/1999/xlink" width="10" height="10" viewBox="0.583 0.097 8.74 9.519"><path paint-order="stroke fill markers" fill-rule="evenodd" d="M3.564 9.616a.651.651 0 0 1-.614-.424L.622 2.866a.652.652 0 0 1 .391-.835L6.119.146a.652.652 0 0 1 .497 0 .651.651 0 0 1 .339.365l2.328 6.327a.652.652 0 0 1-.385.834L3.792 9.557a.65.65 0 0 1-.228.059zM2.076 3.029l1.872 5.1L7.86 6.694l-1.878-5.1-3.907 1.435z"/></svg></svg><svg width="10" height="13" xmlns="http://www.w3.org/2000/svg" xmlns:xlink="http://www.w3.org/1999/xlink" xmlns:svgjs="http://svgjs.com/svgjs" viewBox="0.311 0 9.378 13" fill="#ffbc0e" x="776" y="532"><svg xmlns="http://www.w3.org/2000/svg" xmlns:xlink="http://www.w3.org/1999/xlink" width="10" height="13" viewBox="0.77 0.793 8.412 11.661"><path paint-order="stroke fill markers" fill-rule="evenodd" d="M9.008 10.883a5.703 5.703 0 0 0-.573-4.22C6.478 3.187 4.62 7.635 2.637.793c0 0-2.713 4.05-1.598 7.357 1.213 3.633 3.77 4.305 3.77 4.305l4.2-1.572z"/></svg></svg><svg width="10" height="14" xmlns="http://www.w3.org/2000/svg" xmlns:xlink="http://www.w3.org/1999/xlink" xmlns:svgjs="http://svgjs.com/svgjs" viewBox="0 0.347 10 13.305" fill="#093f68" x="776" y="532"><svg xmlns="http://www.w3.org/2000/svg" xmlns:xlink="http://www.w3.org/1999/xlink" width="10" height="14" viewBox="0.098 0.132 9.742 12.961"><path paint-order="stroke fill markers" fill-rule="evenodd" d="M4.79 13.08a.655.655 0 0 1-.164 0c-.124 0-2.915-.808-4.226-4.728C-.8 4.778 1.96.598 2.076.422a.652.652 0 0 1 .652-.28c.25.04.452.22.522.462 1.05 3.62 1.957 3.718 2.876 3.822a3.215 3.215 0 0 1 2.863 1.957 6.311 6.311 0 0 1 .652 4.735.65.65 0 0 1-.391.417l-4.2 1.546a.703.703 0 0 1-.26 0zM2.467 2.386C1.815 3.76.993 6.01 1.633 7.922c.912 2.72 2.608 3.594 3.15 3.815l3.652-1.35a5.138 5.138 0 0 0-.587-3.41 1.956 1.956 0 0 0-1.872-1.305c-1.31-.117-2.439-.483-3.49-3.287h-.019zm6.522 8.478zm0 0z"/></svg></svg><svg width="14" height="31" xmlns="http://www.w3.org/2000/svg" xmlns:xlink="http://www.w3.org/1999/xlink" xmlns:svgjs="http://svgjs.com/svgjs" viewBox="0 0.238 14 30.524" fill="#ad7972" x="783" y="549"><svg xmlns="http://www.w3.org/2000/svg" xmlns:xlink="http://www.w3.org/1999/xlink" width="14" height="31" viewBox="0.078 0.255 13.781 30.047"><path paint-order="stroke fill markers" fill-rule="evenodd" d="M.078 1.775c.92 3.215 2.146 6.959 3.607 10.917 2.903 7.892 5.955 14.532 7.976 17.61l2.199-.809c-.47-3.665-2.452-10.696-5.362-18.588C7.038 6.947 5.544 3.301 4.161.255L.078 1.775z"/></svg></svg><svg width="16" height="32" xmlns="http://www.w3.org/2000/svg" xmlns:xlink="http://www.w3.org/1999/xlink" xmlns:svgjs="http://svgjs.com/svgjs" viewBox="0.303 0 15.394 32" fill="#093f68" x="782" y="548"><svg xmlns="http://www.w3.org/2000/svg" xmlns:xlink="http://www.w3.org/1999/xlink" width="16" height="32" viewBox="0.426 0.614 15.082 31.353"><path paint-order="stroke fill markers" fill-rule="evenodd" d="M12.661 31.967a.651.651 0 0 1-.547-.293C9.987 28.413 6.896 21.617 4.072 13.92 2.657 10.086 1.405 6.29.452 2.957a.651.651 0 0 1 .398-.796L4.932.655A.652.652 0 0 1 5.754 1c1.442 3.163 2.948 6.86 4.358 10.696 2.836 7.696 4.904 14.87 5.393 18.724a.651.651 0 0 1-.411.672l-2.205.815a.65.65 0 0 1-.228.059zM1.874 3.179c.92 3.163 2.1 6.705 3.424 10.292 2.68 7.278 5.57 13.696 7.63 17.048l1.214-.443c-.587-3.874-2.57-10.65-5.257-17.93A152.35 152.35 0 0 0 4.815 2.09l-2.94 1.089z"/></svg></svg><svg width="8" height="6" xmlns="http://www.w3.org/2000/svg" xmlns:xlink="http://www.w3.org/1999/xlink" xmlns:svgjs="http://svgjs.com/svgjs" viewBox="0 0.57 8 4.86" fill="#ffc9b0" x="781" y="552"><svg xmlns="http://www.w3.org/2000/svg" xmlns:xlink="http://www.w3.org/1999/xlink" width="8" height="6" viewBox="0.774 0.812 6.956 4.226"><path paint-order="stroke fill markers" fill-rule="evenodd" d="M1.513 2.575L6.109.882a1.128 1.128 0 0 1 1.45.669l.1.275a1.127 1.127 0 0 1-.669 1.449L2.394 4.968a1.127 1.127 0 0 1-1.448-.669l-.102-.275a1.127 1.127 0 0 1 .669-1.45z"/></svg></svg><svg width="9" height="6" xmlns="http://www.w3.org/2000/svg" xmlns:xlink="http://www.w3.org/1999/xlink" xmlns:svgjs="http://svgjs.com/svgjs" viewBox="0.032 0 8.937 6" fill="#093f68" x="781" y="552"><svg xmlns="http://www.w3.org/2000/svg" xmlns:xlink="http://www.w3.org/1999/xlink" width="9" height="6" viewBox="0.13 0.154 8.233 5.527"><path paint-order="stroke fill markers" fill-rule="evenodd" d="M2.014 5.681c-.26.001-.515-.055-.751-.163a1.756 1.756 0 0 1-.92-.998L.24 4.24a1.78 1.78 0 0 1 1.057-2.283L5.86.262a1.793 1.793 0 0 1 2.29 1.056l.097.274c.17.442.15.935-.052 1.363a1.783 1.783 0 0 1-.998.926l-4.572 1.69a1.664 1.664 0 0 1-.612.11zm4.493-4.226a.523.523 0 0 0-.17.033L1.772 3.177a.477.477 0 0 0-.28.613l.097.28a.523.523 0 0 0 .248.268.477.477 0 0 0 .366 0l4.565-1.696a.45.45 0 0 0 .267-.606l-.104-.28a.479.479 0 0 0-.248-.268.539.539 0 0 0-.176-.033z"/></svg></svg><svg width="5" height="9" xmlns="http://www.w3.org/2000/svg" xmlns:xlink="http://www.w3.org/1999/xlink" xmlns:svgjs="http://svgjs.com/svgjs" viewBox="0 0.125 5 8.75" fill="#ffc9b0" x="788" y="551"><svg xmlns="http://www.w3.org/2000/svg" xmlns:xlink="http://www.w3.org/1999/xlink" width="5" height="9" viewBox="0.499 0.973 4.211 7.369"><path paint-order="stroke fill markers" fill-rule="evenodd" d="M2.795 1.748l1.841 5a1.183 1.183 0 1 1-2.222.818l-1.841-5a1.183 1.183 0 1 1 2.222-.818z"/></svg></svg><svg width="7" height="10" xmlns="http://www.w3.org/2000/svg" xmlns:xlink="http://www.w3.org/1999/xlink" xmlns:svgjs="http://svgjs.com/svgjs" viewBox="0.318 0 6.363 10" fill="#093f68" x="787" y="551"><svg xmlns="http://www.w3.org/2000/svg" xmlns:xlink="http://www.w3.org/1999/xlink" width="7" height="10" viewBox="0.848 0.331 5.518 8.673"><path paint-order="stroke fill markers" fill-rule="evenodd" d="M4.524 9.003a1.852 1.852 0 0 1-1.721-1.2L.963 2.801A1.83 1.83 0 0 1 2.054.44c.457-.164.96-.143 1.402.059.445.203.79.576.958 1.037l1.84 4.995a1.84 1.84 0 0 1-1.09 2.361 1.95 1.95 0 0 1-.639.111zm-1.839-7.37a.602.602 0 0 0-.182 0 .547.547 0 0 0-.3.28.516.516 0 0 0 0 .405L4.04 7.314a.528.528 0 0 0 .998-.352L3.189 2.005a.532.532 0 0 0-.28-.3.508.508 0 0 0-.223-.072z"/></svg></svg><svg width="8" height="5" xmlns="http://www.w3.org/2000/svg" xmlns:xlink="http://www.w3.org/1999/xlink" xmlns:svgjs="http://svgjs.com/svgjs" viewBox="0 0.07 8 4.86" fill="#ffc9b0" x="782" y="555"><svg xmlns="http://www.w3.org/2000/svg" xmlns:xlink="http://www.w3.org/1999/xlink" width="8" height="5" viewBox="0.658 0.21 6.956 4.226"><path paint-order="stroke fill markers" fill-rule="evenodd" d="M1.397 1.973L5.993.28a1.128 1.128 0 0 1 1.45.669l.1.275a1.127 1.127 0 0 1-.669 1.45L2.278 4.365A1.127 1.127 0 0 1 .83 3.697l-.102-.275a1.127 1.127 0 0 1 .669-1.449z"/></svg></svg><svg width="9" height="7" xmlns="http://www.w3.org/2000/svg" xmlns:xlink="http://www.w3.org/1999/xlink" xmlns:svgjs="http://svgjs.com/svgjs" viewBox="0 0.479 9 6.043" fill="#093f68" x="782" y="554"><svg xmlns="http://www.w3.org/2000/svg" xmlns:xlink="http://www.w3.org/1999/xlink" width="9" height="7" viewBox="0.013 0.548 8.232 5.527"><path paint-order="stroke fill markers" fill-rule="evenodd" d="M1.894 6.075a1.78 1.78 0 0 1-1.67-1.161l-.104-.28A1.787 1.787 0 0 1 1.176 2.35L5.742.655A1.793 1.793 0 0 1 8.03 1.712l.104.274a1.787 1.787 0 0 1-1.057 2.289L2.48 5.964a1.64 1.64 0 0 1-.586.111zm4.493-4.226a.46.46 0 0 0-.162 0l-4.6 1.722a.495.495 0 0 0-.266.247.474.474 0 0 0 0 .366l.104.274a.46.46 0 0 0 .607.286L6.667 3.05a.476.476 0 0 0 .28-.607l-.103-.28a.457.457 0 0 0-.248-.268.508.508 0 0 0-.209-.045zm.489 1.813z"/></svg></svg><svg width="8" height="5" xmlns="http://www.w3.org/2000/svg" xmlns:xlink="http://www.w3.org/1999/xlink" xmlns:svgjs="http://svgjs.com/svgjs" viewBox="0 0.07 8 4.86" fill="#ffc9b0" x="783" y="557"><svg xmlns="http://www.w3.org/2000/svg" xmlns:xlink="http://www.w3.org/1999/xlink" width="8" height="5" viewBox="0.535 0.602 6.956 4.226"><path paint-order="stroke fill markers" fill-rule="evenodd" d="M1.275 2.365L5.87.672a1.127 1.127 0 0 1 1.448.669l.102.275a1.127 1.127 0 0 1-.67 1.449L2.157 4.758a1.128 1.128 0 0 1-1.45-.67l-.1-.275a1.127 1.127 0 0 1 .669-1.448z"/></svg></svg><svg width="10" height="7" xmlns="http://www.w3.org/2000/svg" xmlns:xlink="http://www.w3.org/1999/xlink" xmlns:svgjs="http://svgjs.com/svgjs" viewBox="0 0.152 10 6.695" fill="#093f68" x="782" y="556"><svg xmlns="http://www.w3.org/2000/svg" xmlns:xlink="http://www.w3.org/1999/xlink" width="10" height="7" viewBox="0.893 0.942 8.256 5.527"><path paint-order="stroke fill markers" fill-rule="evenodd" d="M2.774 6.469a1.734 1.734 0 0 1-.743-.164 1.766 1.766 0 0 1-.927-.997L1 5.028a1.787 1.787 0 0 1 1.056-2.284L6.655 1.05a1.787 1.787 0 0 1 2.283 1.056l.103.28A1.787 1.787 0 0 1 7.985 4.67L3.42 6.358a1.7 1.7 0 0 1-.645.11zm4.493-4.246a.478.478 0 0 0-.162.032l-4.598 1.69a.523.523 0 0 0-.268.247.482.482 0 0 0 0 .366l.105.28a.494.494 0 0 0 .247.267.455.455 0 0 0 .359 0L7.516 3.41a.472.472 0 0 0 .28-.607l-.104-.28a.47.47 0 0 0-.425-.3z"/></svg></svg><svg width="8" height="6" xmlns="http://www.w3.org/2000/svg" xmlns:xlink="http://www.w3.org/1999/xlink" xmlns:svgjs="http://svgjs.com/svgjs" viewBox="0 0.57 8 4.861" fill="#ffc9b0" x="784" y="559"><svg xmlns="http://www.w3.org/2000/svg" xmlns:xlink="http://www.w3.org/1999/xlink" width="8" height="6" viewBox="0.426 0.991 6.955 4.226"><path paint-order="stroke fill markers" fill-rule="evenodd" d="M1.165 2.754L5.76 1.061a1.127 1.127 0 0 1 1.448.67l.101.275a1.127 1.127 0 0 1-.668 1.448L2.046 5.147a1.128 1.128 0 0 1-1.45-.669l-.1-.275a1.127 1.127 0 0 1 .669-1.449z"/></svg></svg><svg width="10" height="6" xmlns="http://www.w3.org/2000/svg" xmlns:xlink="http://www.w3.org/1999/xlink" xmlns:svgjs="http://svgjs.com/svgjs" viewBox="0.538 0 8.924 6" fill="#093f68" x="783" y="559"><svg xmlns="http://www.w3.org/2000/svg" xmlns:xlink="http://www.w3.org/1999/xlink" width="10" height="6" viewBox="0.777 0.333 8.223 5.529"><path paint-order="stroke fill markers" fill-rule="evenodd" d="M2.655 5.862a1.782 1.782 0 0 1-1.67-1.161l-.098-.28a1.78 1.78 0 0 1 1.05-2.283L6.504.442A1.78 1.78 0 0 1 8.785 1.5l.105.28a1.775 1.775 0 0 1-1.057 2.283l-4.565 1.69a1.707 1.707 0 0 1-.613.11zm4.494-4.22a.473.473 0 0 0-.164 0L2.42 3.332a.477.477 0 0 0-.287.613l.105.28a.494.494 0 0 0 .248.268.47.47 0 0 0 .365 0l4.566-1.696a.472.472 0 0 0 .28-.607L7.6 1.91a.484.484 0 0 0-.45-.268z"/></svg></svg><svg width="36" height="34" xmlns="http://www.w3.org/2000/svg" xmlns:xlink="http://www.w3.org/1999/xlink" xmlns:svgjs="http://svgjs.com/svgjs" viewBox="0.057 0 35.886 34" fill="#fff" x="820" y="550"><svg xmlns="http://www.w3.org/2000/svg" xmlns:xlink="http://www.w3.org/1999/xlink" width="36" height="34" viewBox="0.305 0.77 34.968 33.13"><path paint-order="stroke fill markers" fill-rule="evenodd" d="M29.27 2.118C24.274.233 14.19-.999 5.498 7.858-3.197 16.713-.242 27.422 8.94 31.65c9.183 4.226 17.036 2.191 18.855-3.548 1.82-5.74-4.271-6.183-1.787-9.21 2.485-3.026 5.59.372 8.218-4.428S34.28 4.003 29.27 2.118z"/></svg></svg><svg width="37" height="35" xmlns="http://www.w3.org/2000/svg" xmlns:xlink="http://www.w3.org/1999/xlink" xmlns:svgjs="http://svgjs.com/svgjs" viewBox="0.081 0 36.838 35" fill="#093f68" x="819" y="550"><svg xmlns="http://www.w3.org/2000/svg" xmlns:xlink="http://www.w3.org/1999/xlink" width="37" height="35" viewBox="0.658 0.126 36.245 34.436"><path paint-order="stroke fill markers" fill-rule="evenodd" d="M19.248 34.558a23.15 23.15 0 0 1-9.574-2.315c-4.748-2.191-7.957-6.085-8.798-10.67-.888-4.846.952-9.88 5.165-14.172 7.983-8.14 17.877-8.38 24.47-5.87a9.883 9.883 0 0 1 5.818 5.766 8.943 8.943 0 0 1-.56 7.506c-1.638 3-3.614 3.144-5.219 3.261-1.213.085-2.171.157-3.071 1.266-.77.945-.502 1.35.456 2.504 1.083 1.304 2.557 3.085 1.481 6.522a8.442 8.442 0 0 1-4.84 5.218 13.144 13.144 0 0 1-5.328.984zm3.515-33.131c-5.106 0-10.832 1.832-15.79 6.887-3.912 3.985-5.622 8.609-4.812 13.044.762 4.168 3.704 7.709 8.06 9.724 5.218 2.394 10.24 2.857 13.846 1.266a7.177 7.177 0 0 0 4.116-4.422c.868-2.733-.202-4.018-1.24-5.264-.912-1.095-1.955-2.34-.463-4.16 1.26-1.546 2.707-1.65 3.992-1.749 1.533-.11 2.857-.202 4.155-2.608a7.683 7.683 0 0 0 .482-6.425 8.595 8.595 0 0 0-5.061-5.002 20.784 20.784 0 0 0-7.285-1.291z"/></svg></svg><svg width="14" height="12" xmlns="http://www.w3.org/2000/svg" xmlns:xlink="http://www.w3.org/1999/xlink" xmlns:svgjs="http://svgjs.com/svgjs" viewBox="0 0.427 14 11.145" fill="#ffbc0e" x="832" y="552"><svg xmlns="http://www.w3.org/2000/svg" xmlns:xlink="http://www.w3.org/1999/xlink" width="14" height="12" viewBox="0.198 0.907 13.03 10.373"><path paint-order="stroke fill markers" fill-rule="evenodd" d="M2.68 3.75c.053.255.183.49.235.744a1.956 1.956 0 0 1-.939 1.729c-.599.35-1.126.81-1.552 1.356a2.19 2.19 0 0 0 .711 2.766c.896.575 2.02.66 2.993.228 1.018-.417 2.1-1.259 3.08-.77.343.23.658.499.938.803a3.15 3.15 0 0 0 4.311-.392 3.594 3.594 0 0 0 0-4.448c-1.382-1.709-.222-4.565-3.215-4.84-1.54-.15-6.973.549-6.562 2.825z"/></svg></svg><svg width="15" height="12" xmlns="http://www.w3.org/2000/svg" xmlns:xlink="http://www.w3.org/1999/xlink" xmlns:svgjs="http://svgjs.com/svgjs" viewBox="0.143 0 14.713 12" fill="#093f68" x="831" y="552"><svg xmlns="http://www.w3.org/2000/svg" xmlns:xlink="http://www.w3.org/1999/xlink" width="15" height="12" viewBox="0.542 0.262 14.322 11.681"><path paint-order="stroke fill markers" fill-rule="evenodd" d="M11.037 11.936a3.462 3.462 0 0 1-2.321-.841 3.315 3.315 0 0 1-.314-.3 2.137 2.137 0 0 0-.482-.405c-.43-.215-.985 0-1.774.424-.261.13-.515.254-.77.359a3.797 3.797 0 0 1-3.62-.294 2.83 2.83 0 0 1-.893-3.632A4.156 4.156 0 0 1 2.2 5.98l.385-.274c.378-.286.756-.723.684-1.095a1.178 1.178 0 0 0-.084-.261 2.972 2.972 0 0 1-.144-.476 1.957 1.957 0 0 1 .528-1.748C5.05.509 9.18.17 10.287.28c2.355.235 2.687 1.866 2.955 3.17a4.36 4.36 0 0 0 .704 1.91 4.253 4.253 0 0 1 0 5.277 3.83 3.83 0 0 1-2.609 1.305l-.3-.007zM7.574 9c.322-.001.64.075.926.222.31.17.59.39.829.652a2.25 2.25 0 0 0 1.91.75 2.484 2.484 0 0 0 1.722-.828 2.953 2.953 0 0 0-.033-3.62 5.445 5.445 0 0 1-.964-2.465c-.275-1.344-.464-2.003-1.807-2.133-1.135-.117-4.618.326-5.622 1.428a.65.65 0 0 0-.215.653c.022.09.05.18.084.267.063.154.113.314.15.476a2.485 2.485 0 0 1-1.18 2.374l-.43.307c-.375.217-.699.51-.953.86a1.533 1.533 0 0 0 .522 1.905 2.537 2.537 0 0 0 2.368.15c.228-.091.45-.202.651-.32a4.737 4.737 0 0 1 2.042-.678z"/></svg></svg><svg width="7" height="6" xmlns="http://www.w3.org/2000/svg" xmlns:xlink="http://www.w3.org/1999/xlink" xmlns:svgjs="http://svgjs.com/svgjs" viewBox="0.111 0 6.778 6" fill="#093f68" x="847" y="558"><svg xmlns="http://www.w3.org/2000/svg" xmlns:xlink="http://www.w3.org/1999/xlink" width="7" height="6" viewBox="0.049 0.087 6.219 5.505"><path paint-order="stroke fill markers" fill-rule="evenodd" d="M.965 1.951A3.323 3.323 0 0 0 .06 3.908a1.624 1.624 0 0 0 .495 1.356c.322.23.71.344 1.103.326a4.73 4.73 0 0 0 2.785-1.037C5.485 3.751 7.227 1.481 5.61.393 4.135-.554 1.9.907.965 1.95z"/></svg></svg><svg width="8" height="8" xmlns="http://www.w3.org/2000/svg" xmlns:xlink="http://www.w3.org/1999/xlink" xmlns:svgjs="http://svgjs.com/svgjs" viewBox="0 0.371 8 7.259" fill="#093f68" x="846" y="557"><svg xmlns="http://www.w3.org/2000/svg" xmlns:xlink="http://www.w3.org/1999/xlink" width="8" height="8" viewBox="0.395 0.435 7.526 6.829"><path paint-order="stroke fill markers" fill-rule="evenodd" d="M2.65 7.262a2.374 2.374 0 0 1-1.506-.47 2.243 2.243 0 0 1-.737-1.904c.082-.89.46-1.726 1.076-2.374C2.65 1.21 5.168-.336 6.968.871c.577.359.934.984.952 1.663.04 1.402-1.258 2.922-2.087 3.554A5.313 5.313 0 0 1 2.65 7.262zm-.228-3.867c-.419.426-.68.983-.737 1.578-.034.3.07.6.28.815.208.128.45.19.692.176a3.912 3.912 0 0 0 2.387-.906c.652-.503 1.598-1.67 1.572-2.479a.709.709 0 0 0-.371-.613c-.993-.652-2.877.424-3.797 1.435l-.026-.006z"/></svg></svg><svg width="4" height="8" xmlns="http://www.w3.org/2000/svg" xmlns:xlink="http://www.w3.org/1999/xlink" xmlns:svgjs="http://svgjs.com/svgjs" viewBox="0 0.229 4 7.542" fill="#ffc9b0" x="849" y="556"><svg xmlns="http://www.w3.org/2000/svg" xmlns:xlink="http://www.w3.org/1999/xlink" width="4" height="8" viewBox="0.14 0.05 3.82 7.203"><path paint-order="stroke fill markers" fill-rule="evenodd" d="M3.198 1.225C2.938.618 2.435-.08 1.79.07 1.144.22.922.918.818 1.57.518 3.267.466 4.996.166 6.69a.52.52 0 0 0 .065.457c.084.07.19.108.3.104a3.514 3.514 0 0 0 3.196-1.865c.574-1.207-.032-3-.529-4.161z"/></svg></svg><svg width="6" height="9" xmlns="http://www.w3.org/2000/svg" xmlns:xlink="http://www.w3.org/1999/xlink" xmlns:svgjs="http://svgjs.com/svgjs" viewBox="0.274 0 5.452 9" fill="#093f68" x="848" y="555"><svg xmlns="http://www.w3.org/2000/svg" xmlns:xlink="http://www.w3.org/1999/xlink" width="6" height="9" viewBox="0.476 0.414 5.134 8.476"><path paint-order="stroke fill markers" fill-rule="evenodd" d="M1.72 8.89h-.261a1.074 1.074 0 0 1-.704-.293A1.135 1.135 0 0 1 .514 7.56C.67 6.712.76 5.832.853 4.984c.091-.848.176-1.69.325-2.544.21-1.18.705-1.852 1.488-2.002.783-.15 1.65.417 2.132 1.546.875 2.054 1.044 3.587.503 4.676A4.24 4.24 0 0 1 1.72 8.89zm1.213-7.174c-.13 0-.332.287-.443.946-.144.802-.229 1.637-.313 2.446a38.04 38.04 0 0 1-.32 2.478A2.954 2.954 0 0 0 4.16 6.079c.242-.495.346-1.52-.535-3.593-.214-.45-.502-.783-.691-.783v.013z"/></svg></svg><svg width="10" height="11" xmlns="http://www.w3.org/2000/svg" xmlns:xlink="http://www.w3.org/1999/xlink" xmlns:svgjs="http://svgjs.com/svgjs" viewBox="0 0.363 10 10.275" fill="#f56132" x="824" y="562"><svg xmlns="http://www.w3.org/2000/svg" xmlns:xlink="http://www.w3.org/1999/xlink" width="10" height="11" viewBox="0.16 0.56 9.497 9.757"><path paint-order="stroke fill markers" fill-rule="evenodd" d="M2.508.82C1.308 1.252.128 2.19.16 3.39c.08.578.191 1.15.333 1.716.183 1.389-.587 2.954.19 4.115a3.013 3.013 0 0 0 2.32 1.076c1.305.111 2.845-.228 3.49-1.382.095-.251.25-.475.45-.653.215-.108.45-.166.691-.17a2.43 2.43 0 0 0 1.872-1.48c.516-1.304-.39-2.7-1.304-3.62C7.12 1.872 5.437.548 3.8.56a4.23 4.23 0 0 0-1.292.26z"/></svg></svg><svg width="12" height="12" xmlns="http://www.w3.org/2000/svg" xmlns:xlink="http://www.w3.org/1999/xlink" xmlns:svgjs="http://svgjs.com/svgjs" viewBox="0.146 0 11.708 12" fill="#093f68" x="823" y="561"><svg xmlns="http://www.w3.org/2000/svg" xmlns:xlink="http://www.w3.org/1999/xlink" width="12" height="12" viewBox="0.507 0.927 10.773 11.042"><path paint-order="stroke fill markers" fill-rule="evenodd" d="M4.5 11.969h-.548a3.568 3.568 0 0 1-2.811-1.37C.528 9.68.658 8.643.776 7.684c.083-.487.107-.981.071-1.474a7.81 7.81 0 0 0-.143-.652 4.837 4.837 0 0 1-.196-1.142C.469 2.806 1.982 1.69 3.293 1.221A4.78 4.78 0 0 1 4.819.927c2.01 0 3.914 1.644 4.853 2.609 1.422 1.48 1.924 3.007 1.415 4.318a3.079 3.079 0 0 1-2.38 1.885h-.164c-.09.004-.18.02-.267.045-.059.077-.108.16-.15.248 0 .059-.059.117-.091.176-.594 1.135-1.905 1.76-3.535 1.76zm.345-9.783a3.606 3.606 0 0 0-1.095.215c-.972.352-1.957 1.083-1.918 1.957.018.287.068.572.15.848.078.263.137.53.177.802.053.6.032 1.205-.066 1.8-.104.815-.189 1.52.156 2.035.469.512 1.133.799 1.827.789 1.05.091 2.361-.144 2.87-1.05l.064-.13a1.8 1.8 0 0 1 .594-.744c.254-.15.54-.238.835-.254h.124a1.767 1.767 0 0 0 1.356-1.077c.437-1.121-.652-2.42-1.14-2.928-.666-.672-2.349-2.23-3.934-2.23v-.033zm-1.337-.398z"/></svg></svg><svg width="12" height="9" xmlns="http://www.w3.org/2000/svg" xmlns:xlink="http://www.w3.org/1999/xlink" xmlns:svgjs="http://svgjs.com/svgjs" viewBox="0 0.297 12 8.406" fill="#70cc40" x="832" y="571"><svg xmlns="http://www.w3.org/2000/svg" xmlns:xlink="http://www.w3.org/1999/xlink" width="12" height="9" viewBox="0.462 0.658 11.366 7.963"><path paint-order="stroke fill markers" fill-rule="evenodd" d="M.489 5.21a2.94 2.94 0 0 0 1.194 2.1 5.814 5.814 0 0 0 2.263.985c2.126.506 4.35.42 6.43-.248.384-.1.74-.29 1.038-.554a1.867 1.867 0 0 0 0-2.348A4.703 4.703 0 0 0 9.32 3.736C7.84 3.123 7.67.723 5.628.658c-.88 0-1.376.567-1.957 1.128-.938.913-.978.783-2.243.79C.313 2.582.45 4.486.489 5.21z"/></svg></svg><svg width="14" height="11" xmlns="http://www.w3.org/2000/svg" xmlns:xlink="http://www.w3.org/1999/xlink" xmlns:svgjs="http://svgjs.com/svgjs" viewBox="0 0.366 14 10.267" fill="#093f68" x="831" y="570"><svg xmlns="http://www.w3.org/2000/svg" width="14" height="11" viewBox="0.812 0.98 12.664 9.287"><path paint-order="stroke fill markers" fill-rule="evenodd" d="M7.717 10.267a12.9 12.9 0 0 1-2.921-.333 6.307 6.307 0 0 1-2.51-1.108 3.587 3.587 0 0 1-1.45-2.61v-.09c-.038-.724-.116-2.08.555-2.792a1.362 1.362 0 0 1 1.025-.437h.417c.743 0 .743 0 1.382-.606l.183-.183A2.973 2.973 0 0 1 6.642.98c1.513.045 2.224 1.095 2.798 1.956.257.49.645.899 1.121 1.18a5.354 5.354 0 0 1 2.374 1.625c.74.943.718 2.277-.052 3.196a2.99 2.99 0 0 1-1.305.717c-1.245.407-2.55.614-3.86.613zm-5.301-6.04a.106.106 0 0 0-.086 0c-.182.203-.254.816-.195 1.827v.098c.068.648.41 1.236.939 1.617.6.431 1.289.727 2.015.868 2.01.474 4.111.393 6.079-.235.284-.07.55-.205.776-.392a1.26 1.26 0 0 0-.072-1.506 4.252 4.252 0 0 0-1.826-1.194 4.09 4.09 0 0 1-1.702-1.656c-.561-.835-.953-1.344-1.761-1.37-.463 0-.783.261-1.305.757l-.196.189c-.939.906-1.225.978-2.302.972l-.364.026z"/></svg></svg></svg></svg>