<svg width="124" height="126" xmlns="http://www.w3.org/2000/svg" xmlns:xlink="http://www.w3.org/1999/xlink" xmlns:svgjs="http://svgjs.com/svgjs" viewBox="1043 460 124 126"><svg width="124" height="126" xmlns="http://www.w3.org/2000/svg" xmlns:xlink="http://www.w3.org/1999/xlink" xmlns:svgjs="http://svgjs.com/svgjs" viewBox="1043 460 124 126" x="1043" y="460"><svg width="66" height="43" xmlns="http://www.w3.org/2000/svg" xmlns:xlink="http://www.w3.org/1999/xlink" xmlns:svgjs="http://svgjs.com/svgjs" viewBox="0 0.129 66 42.742" fill="#68e1fd" x="1092" y="531"><svg xmlns="http://www.w3.org/2000/svg" xmlns:xlink="http://www.w3.org/1999/xlink" width="66" height="43" viewBox="0.199 0.305 65.006 42.098"><path paint-order="stroke fill markers" fill-rule="evenodd" d="M26.797.305h11.85a20.885 20.885 0 0 1 19.934 14.763l6.402 20.88a4.986 4.986 0 0 1-4.762 6.456H5.183A4.988 4.988 0 0 1 .42 35.947l6.4-20.879A20.887 20.887 0 0 1 26.798.305z"/></svg></svg><svg width="67" height="45" xmlns="http://www.w3.org/2000/svg" xmlns:xlink="http://www.w3.org/1999/xlink" xmlns:svgjs="http://svgjs.com/svgjs" viewBox="0 0.574 67 43.852" fill="#093f68" x="1091" y="530"><svg xmlns="http://www.w3.org/2000/svg" xmlns:xlink="http://www.w3.org/1999/xlink" width="67" height="45" viewBox="0.512 0.625 66.4 43.459"><path paint-order="stroke fill markers" fill-rule="evenodd" d="M61.241 44.084H6.203A5.673 5.673 0 0 1 .76 36.75l6.436-20.879A21.457 21.457 0 0 1 27.81.625h11.838A21.457 21.457 0 0 1 60.26 15.871l6.403 20.88a5.674 5.674 0 0 1-5.443 7.333h.02zM27.797 1.986A20.103 20.103 0 0 0 8.482 16.272L2.08 37.152a4.322 4.322 0 0 0 4.123 5.579h55.038a4.322 4.322 0 0 0 4.123-5.58l-6.402-20.878A20.104 20.104 0 0 0 39.648 1.986H27.797z"/></svg></svg><svg width="8" height="9" xmlns="http://www.w3.org/2000/svg" xmlns:xlink="http://www.w3.org/1999/xlink" xmlns:svgjs="http://svgjs.com/svgjs" viewBox="0 0.504 8 7.993" fill="#ffc9b0" x="1121" y="528"><svg xmlns="http://www.w3.org/2000/svg" xmlns:xlink="http://www.w3.org/1999/xlink" width="8" height="9" viewBox="0.096 0.951 7.245 7.239"><path paint-order="stroke fill markers" fill-rule="evenodd" d="M.103.951h7.238v4.164A3.075 3.075 0 0 1 4.266 8.19H3.171A3.075 3.075 0 0 1 .096 5.115V.951h.007z"/></svg></svg><svg width="10" height="9" xmlns="http://www.w3.org/2000/svg" xmlns:xlink="http://www.w3.org/1999/xlink" xmlns:svgjs="http://svgjs.com/svgjs" viewBox="0.496 0 9.007 9" fill="#093f68" x="1120" y="528"><svg xmlns="http://www.w3.org/2000/svg" xmlns:xlink="http://www.w3.org/1999/xlink" width="10" height="9" viewBox="0.422 0.271 8.599 8.592"><path paint-order="stroke fill markers" fill-rule="evenodd" d="M5.266 8.864H4.178A3.756 3.756 0 0 1 .422 5.115V.951a.68.68 0 0 1 .681-.68h7.238a.68.68 0 0 1 .68.68v4.164a3.756 3.756 0 0 1-3.755 3.749zM1.783 1.632v3.483a2.395 2.395 0 0 0 2.395 2.388h1.088c1.32 0 2.391-1.068 2.395-2.388V1.632H1.783z"/></svg></svg><svg width="59" height="51" xmlns="http://www.w3.org/2000/svg" xmlns:xlink="http://www.w3.org/1999/xlink" xmlns:svgjs="http://svgjs.com/svgjs" viewBox="0 0.543 59 49.914" fill="#725858" x="1095" y="460"><svg xmlns="http://www.w3.org/2000/svg" xmlns:xlink="http://www.w3.org/1999/xlink" width="59" height="51" viewBox="0.11 0.694 58.69 49.651"><path paint-order="stroke fill markers" fill-rule="evenodd" d="M4.74 48.875c-3.36-1.272-3.156-3.844-3.66-7.136a83.854 83.854 0 0 1-.931-9.852c-.13-3.748 0-7.599 1.428-11.075 1.83-4.47 5.442-7.354 10.267-6.96C11.7 7.267 15.654 1.09 22.654.715c11.218-.599 17.688 11.45 23.954 10.552 6.265-.898 7.946-3.687 7.946-3.687a11.511 11.511 0 0 1-1.36 12.701s4.945-1.442 5.543 5.137c.6 6.578-3.34 24.063-3.34 24.063l-4.47-.762c-1.884-.334-4.238.129-6.123.19l-14.02.436c-7.035.197-18.41 2.415-26.044-.47z"/></svg></svg><svg width="61" height="52" xmlns="http://www.w3.org/2000/svg" xmlns:xlink="http://www.w3.org/1999/xlink" xmlns:svgjs="http://svgjs.com/svgjs" viewBox="0 0.098 61 51.804" fill="#093f68" x="1094" y="460"><svg xmlns="http://www.w3.org/2000/svg" xmlns:xlink="http://www.w3.org/1999/xlink" width="61" height="52" viewBox="0.429 0 60.075 51.018"><path paint-order="stroke fill markers" fill-rule="evenodd" d="M15.85 51.018c-3.687 0-7.313-.36-10.355-1.51-3.258-1.238-3.557-3.592-3.904-6.32a44.658 44.658 0 0 0-.184-1.361 85.247 85.247 0 0 1-.939-9.933c-.122-3.517-.04-7.626 1.483-11.348 1.939-4.762 5.559-7.422 10-7.422h.212C12.313 6.79 16.197.416 23.62.021c6.524-.34 11.565 3.463 15.592 6.518 3.116 2.36 5.81 4.395 8.294 4.04 5.816-.83 7.484-3.34 7.484-3.367a.678.678 0 0 1 .584-.32.68.68 0 0 1 .585.334c.034.061 3.443 6.068-.517 12.246a4.645 4.645 0 0 1 2.368.775c1.36.953 2.211 2.667 2.429 5.11.605 6.612-3.185 23.552-3.348 24.273a.68.68 0 0 1-.782.517l-4.49-.748a16.117 16.117 0 0 0-3.994.054c-.68.068-1.36.13-2.041.15l-14.02.435c-1.75.055-3.804.239-5.974.43-3.068.244-6.531.55-9.94.55zm-9.87-2.782c5.563 2.109 13.408 1.408 19.728.843 2.191-.197 4.266-.38 6.055-.435l14.021-.436c.592 0 1.239-.081 1.919-.142 1.444-.2 2.907-.214 4.354-.041.238 0 1.014.17 3.844.68.68-3.184 3.7-17.518 3.184-23.22-.184-2.04-.796-3.401-1.83-4.081a3.713 3.713 0 0 0-2.844-.45.68.68 0 0 1-.714-1.081 10.696 10.696 0 0 0 1.7-11.048c-1.04.98-3.306 2.51-7.68 3.136-3.048.428-5.953-1.762-9.314-4.3-4.082-3.082-8.674-6.565-14.695-6.245-6.844.36-10.3 6.538-10.17 12.443a.682.682 0 0 1-.219.51.68.68 0 0 1-.523.184c-4.246-.354-7.735 2.04-9.572 6.538-1.422 3.49-1.498 7.415-1.36 10.79.114 3.271.42 6.533.918 9.77.074.482.135.938.19 1.36.326 2.571.544 4.272 3.04 5.218l-.033.007z"/></svg></svg><svg width="15" height="13" xmlns="http://www.w3.org/2000/svg" xmlns:xlink="http://www.w3.org/1999/xlink" xmlns:svgjs="http://svgjs.com/svgjs" viewBox="0 0.038 15 12.923" fill="#ffc9b0" x="1097" y="504"><svg xmlns="http://www.w3.org/2000/svg" xmlns:xlink="http://www.w3.org/1999/xlink" width="15" height="13" viewBox="0.012 0.099 14.056 12.11"><path paint-order="stroke fill markers" fill-rule="evenodd" d="M7.04 12.209c-3.886 0-7.028-2.707-7.028-6.055S3.154.1 7.04.1c3.886 0 7.028 2.707 7.028 6.055S10.926 12.21 7.04 12.21z"/></svg></svg><svg width="16" height="14" xmlns="http://www.w3.org/2000/svg" xmlns:xlink="http://www.w3.org/1999/xlink" xmlns:svgjs="http://svgjs.com/svgjs" viewBox="0 0.009 16 13.981" fill="#093f68" x="1096" y="503"><svg xmlns="http://www.w3.org/2000/svg" xmlns:xlink="http://www.w3.org/1999/xlink" width="16" height="14" viewBox="0.333 0.405 15.423 13.477"><path paint-order="stroke fill markers" fill-rule="evenodd" d="M8.04 13.883c-4.252 0-7.707-3.021-7.707-6.736C.333 3.433 3.788.405 8.04.405c4.253 0 7.716 3.028 7.716 6.742 0 3.715-3.463 6.736-7.716 6.736zm0-12.117c-3.497 0-6.347 2.415-6.347 5.381s2.85 5.375 6.347 5.375c3.498 0 6.354-2.409 6.354-5.375s-2.85-5.374-6.354-5.374v-.007z"/></svg></svg><svg width="15" height="13" xmlns="http://www.w3.org/2000/svg" xmlns:xlink="http://www.w3.org/1999/xlink" xmlns:svgjs="http://svgjs.com/svgjs" viewBox="0 0.038 15 12.923" fill="#ffc9b0" x="1138" y="504"><svg xmlns="http://www.w3.org/2000/svg" xmlns:xlink="http://www.w3.org/1999/xlink" width="15" height="13" viewBox="0.002 0.099 14.056 12.11"><path paint-order="stroke fill markers" fill-rule="evenodd" d="M7.03 12.209c-3.886 0-7.028-2.707-7.028-6.055S3.144.1 7.03.1c3.886 0 7.028 2.707 7.028 6.055S10.916 12.21 7.03 12.21z"/></svg></svg><svg width="16" height="14" xmlns="http://www.w3.org/2000/svg" xmlns:xlink="http://www.w3.org/1999/xlink" xmlns:svgjs="http://svgjs.com/svgjs" viewBox="0 0.009 16 13.981" fill="#093f68" x="1137" y="503"><svg xmlns="http://www.w3.org/2000/svg" xmlns:xlink="http://www.w3.org/1999/xlink" width="16" height="14" viewBox="0.315 0.405 15.423 13.477"><path paint-order="stroke fill markers" fill-rule="evenodd" d="M8.03 13.883c-4.252 0-7.715-3.021-7.715-6.736C.315 3.433 3.778.405 8.03.405s7.708 3.028 7.708 6.742c0 3.715-3.456 6.736-7.708 6.736zm0-12.117c-3.504 0-6.354 2.415-6.354 5.381s2.85 5.375 6.354 5.375c3.503 0 6.347-2.409 6.347-5.375S11.54 1.773 8.03 1.773v-.007z"/></svg></svg><svg width="43" height="46" xmlns="http://www.w3.org/2000/svg" xmlns:xlink="http://www.w3.org/1999/xlink" xmlns:svgjs="http://svgjs.com/svgjs" viewBox="0.163 0 42.673 46" fill="#ffc9b0" x="1103" y="484"><svg xmlns="http://www.w3.org/2000/svg" xmlns:xlink="http://www.w3.org/1999/xlink" width="43" height="46" viewBox="0.516 0.179 42.411 45.718"><path paint-order="stroke fill markers" fill-rule="evenodd" d="M21.73 45.897C10.025 45.901.531 36.422.515 24.72V9.302C1.754 11.344 5.87 10.527 11.906.18c22.586 11.443 31.022 4.885 31.022 4.885V24.72c-.015 11.698-9.501 21.174-21.199 21.178z"/></svg></svg><svg width="45" height="48" xmlns="http://www.w3.org/2000/svg" xmlns:xlink="http://www.w3.org/1999/xlink" xmlns:svgjs="http://svgjs.com/svgjs" viewBox="0.199 0 44.601 48" fill="#093f68" x="1102" y="483"><svg xmlns="http://www.w3.org/2000/svg" xmlns:xlink="http://www.w3.org/1999/xlink" width="45" height="48" viewBox="0.836 0.477 43.766 47.101"><path paint-order="stroke fill markers" fill-rule="evenodd" d="M22.73 47.577C10.654 47.57.861 37.793.835 25.72V10.302A.681.681 0 0 1 2.1 9.95c.213.37.615.588 1.041.564.83 0 3.946-.728 9.164-9.68a.68.68 0 0 1 .898-.286C35.03 11.602 43.424 5.56 43.506 5.5a.68.68 0 0 1 1.095.544v19.675c-.026 12.066-9.805 21.84-21.872 21.858zM2.202 11.711v14.008c0 11.335 9.19 20.525 20.526 20.525s20.525-9.19 20.525-20.525V7.234c-2.939 1.36-11.967 3.865-30.076-5.163-3.756 6.306-7.3 9.783-10.001 9.803a2.34 2.34 0 0 1-.98-.163h.006z"/></svg></svg><svg width="3" height="27" xmlns="http://www.w3.org/2000/svg" xmlns:xlink="http://www.w3.org/1999/xlink" xmlns:svgjs="http://svgjs.com/svgjs" viewBox="0.8 0 1.4 27" fill="#093f68" x="1137" y="542"><svg xmlns="http://www.w3.org/2000/svg" xmlns:xlink="http://www.w3.org/1999/xlink" width="3" height="27" viewBox="0.655 0.15 1.36 26.247"><path paint-order="stroke fill markers" fill-rule="evenodd" d="M1.336 26.397a.68.68 0 0 1-.681-.68V.83a.68.68 0 1 1 1.36 0v24.886a.68.68 0 0 1-.68.68z"/></svg></svg><svg width="2" height="27" xmlns="http://www.w3.org/2000/svg" xmlns:xlink="http://www.w3.org/1999/xlink" xmlns:svgjs="http://svgjs.com/svgjs" viewBox="0.3 0 1.4 27" fill="#093f68" x="1110" y="542"><svg xmlns="http://www.w3.org/2000/svg" xmlns:xlink="http://www.w3.org/1999/xlink" width="2" height="27" viewBox="0.442 0.15 1.36 26.247"><path paint-order="stroke fill markers" fill-rule="evenodd" d="M1.123 26.397a.68.68 0 0 1-.68-.68V.83a.68.68 0 1 1 1.36 0v24.886a.68.68 0 0 1-.68.68z"/></svg></svg><svg width="7" height="9" xmlns="http://www.w3.org/2000/svg" xmlns:xlink="http://www.w3.org/1999/xlink" xmlns:svgjs="http://svgjs.com/svgjs" viewBox="0.321 0 6.358 9" fill="#093f68" x="1121" y="504"><svg xmlns="http://www.w3.org/2000/svg" xmlns:xlink="http://www.w3.org/1999/xlink" width="7" height="9" viewBox="0.973 0.926 5.415 7.666"><path paint-order="stroke fill markers" fill-rule="evenodd" d="M3.674 8.59a14.095 14.095 0 0 1-2.129-.177.69.69 0 1 1 .238-1.36c1.07.168 2.161.168 3.231 0 .137-.627-.68-2.96-1.836-5.158a.68.68 0 1 1 1.231-.578c.762 1.463 2.47 5.014 1.844 6.409a1.17 1.17 0 0 1-.79.68 7.31 7.31 0 0 1-1.789.184z"/></svg></svg><svg width="14" height="4" xmlns="http://www.w3.org/2000/svg" xmlns:xlink="http://www.w3.org/1999/xlink" xmlns:svgjs="http://svgjs.com/svgjs" viewBox="0 0.548 14 2.903" fill="#093f68" x="1108" y="493"><svg xmlns="http://www.w3.org/2000/svg" xmlns:xlink="http://www.w3.org/1999/xlink" width="14" height="4" viewBox="0.211 0.568 13.123 2.721"><path paint-order="stroke fill markers" fill-rule="evenodd" d="M11.966 3.29H1.572a1.36 1.36 0 1 1 0-2.722h10.401a1.36 1.36 0 1 1 0 2.721h-.007z"/></svg></svg><svg width="14" height="4" xmlns="http://www.w3.org/2000/svg" xmlns:xlink="http://www.w3.org/1999/xlink" xmlns:svgjs="http://svgjs.com/svgjs" viewBox="0 0.548 14 2.905" fill="#093f68" x="1127" y="493"><svg xmlns="http://www.w3.org/2000/svg" xmlns:xlink="http://www.w3.org/1999/xlink" width="14" height="4" viewBox="0.43 0.568 13.117 2.721"><path paint-order="stroke fill markers" fill-rule="evenodd" d="M12.186 3.29H1.79a1.36 1.36 0 1 1 0-2.722h10.396a1.36 1.36 0 1 1 0 2.721z"/></svg></svg><svg width="17" height="9" xmlns="http://www.w3.org/2000/svg" xmlns:xlink="http://www.w3.org/1999/xlink" xmlns:svgjs="http://svgjs.com/svgjs" viewBox="0.406 0 16.187 9" fill="#fff" x="1106" y="500"><svg xmlns="http://www.w3.org/2000/svg" xmlns:xlink="http://www.w3.org/1999/xlink" width="17" height="9" viewBox="0.918 0.017 15.735 8.749"><path paint-order="stroke fill markers" fill-rule="evenodd" d="M2.666.017h12.246c.962 0 1.742.78 1.742 1.742v1.136a5.871 5.871 0 0 1-5.871 5.871H6.789A5.871 5.871 0 0 1 .92 2.895V1.759A1.741 1.741 0 0 1 2.665.017z"/></svg></svg><svg width="18" height="11" xmlns="http://www.w3.org/2000/svg" xmlns:xlink="http://www.w3.org/1999/xlink" xmlns:svgjs="http://svgjs.com/svgjs" viewBox="0 0.17 18 10.66" fill="#093f68" x="1106" y="499"><svg xmlns="http://www.w3.org/2000/svg" xmlns:xlink="http://www.w3.org/1999/xlink" width="18" height="11" viewBox="0.252 0.337 17.083 10.116"><path paint-order="stroke fill markers" fill-rule="evenodd" d="M10.79 10.453H6.802A6.558 6.558 0 0 1 .252 3.902V2.759A2.422 2.422 0 0 1 2.666.337h12.246a2.429 2.429 0 0 1 2.422 2.422v1.143a6.558 6.558 0 0 1-6.545 6.551zM2.665 1.698a1.056 1.056 0 0 0-1.054 1.061v1.143a5.197 5.197 0 0 0 5.19 5.19h3.987a5.204 5.204 0 0 0 5.198-5.19V2.759c0-.586-.475-1.061-1.061-1.061H2.666z"/></svg></svg><svg width="17" height="9" xmlns="http://www.w3.org/2000/svg" xmlns:xlink="http://www.w3.org/1999/xlink" xmlns:svgjs="http://svgjs.com/svgjs" viewBox="0.406 0 16.188 9" fill="#fff" x="1126" y="500"><svg xmlns="http://www.w3.org/2000/svg" xmlns:xlink="http://www.w3.org/1999/xlink" width="17" height="9" viewBox="0.688 0.017 15.736 8.749"><path paint-order="stroke fill markers" fill-rule="evenodd" d="M2.437.017h12.245c.962 0 1.742.78 1.742 1.742v1.136a5.871 5.871 0 0 1-5.871 5.871H6.559A5.871 5.871 0 0 1 .688 2.895V1.759A1.741 1.741 0 0 1 2.437.017z"/></svg></svg><svg width="18" height="11" xmlns="http://www.w3.org/2000/svg" xmlns:xlink="http://www.w3.org/1999/xlink" xmlns:svgjs="http://svgjs.com/svgjs" viewBox="0 0.17 18 10.659" fill="#093f68" x="1126" y="499"><svg xmlns="http://www.w3.org/2000/svg" xmlns:xlink="http://www.w3.org/1999/xlink" width="18" height="11" viewBox="0.014 0.337 17.084 10.116"><path paint-order="stroke fill markers" fill-rule="evenodd" d="M10.56 10.453H6.573A6.56 6.56 0 0 1 .014 3.902V2.759A2.43 2.43 0 0 1 2.437.337h12.245a2.422 2.422 0 0 1 2.416 2.422v1.143a6.558 6.558 0 0 1-6.538 6.551zM2.437 1.698c-.587 0-1.061.475-1.061 1.061v1.143a5.204 5.204 0 0 0 5.197 5.19h3.987a5.198 5.198 0 0 0 5.19-5.19V2.759a1.055 1.055 0 0 0-1.054-1.061H2.437z"/></svg></svg><svg width="6" height="2" xmlns="http://www.w3.org/2000/svg" xmlns:xlink="http://www.w3.org/1999/xlink" xmlns:svgjs="http://svgjs.com/svgjs" viewBox="0 0.232 6 1.536" fill="#093f68" x="1102" y="502"><svg xmlns="http://www.w3.org/2000/svg" xmlns:xlink="http://www.w3.org/1999/xlink" width="6" height="2" viewBox="0.278 0.222 5.313 1.361"><path paint-order="stroke fill markers" fill-rule="evenodd" d="M4.931 1.582H.958a.68.68 0 0 1 0-1.36h3.953a.68.68 0 1 1 0 1.36h.02z"/></svg></svg><svg width="7" height="2" xmlns="http://www.w3.org/2000/svg" xmlns:xlink="http://www.w3.org/1999/xlink" xmlns:svgjs="http://svgjs.com/svgjs" viewBox="0 0.102 7 1.795" fill="#093f68" x="1141" y="502"><svg xmlns="http://www.w3.org/2000/svg" xmlns:xlink="http://www.w3.org/1999/xlink" width="7" height="2" viewBox="0.955 0.222 5.306 1.361"><path paint-order="stroke fill markers" fill-rule="evenodd" d="M5.581 1.582H1.635a.68.68 0 1 1 0-1.36h3.946a.68.68 0 0 1 0 1.36z"/></svg></svg><svg width="6" height="2" xmlns="http://www.w3.org/2000/svg" xmlns:xlink="http://www.w3.org/1999/xlink" xmlns:svgjs="http://svgjs.com/svgjs" viewBox="0 0.242 6 1.515" fill="#093f68" x="1122" y="502"><svg xmlns="http://www.w3.org/2000/svg" xmlns:xlink="http://www.w3.org/1999/xlink" width="6" height="2" viewBox="0.007 0.222 5.389 1.361"><path paint-order="stroke fill markers" fill-rule="evenodd" d="M4.695 1.582H.688a.68.68 0 1 1 0-1.36h4.027a.68.68 0 0 1 0 1.36h-.02z"/></svg></svg><svg width="17" height="4" xmlns="http://www.w3.org/2000/svg" xmlns:xlink="http://www.w3.org/1999/xlink" xmlns:svgjs="http://svgjs.com/svgjs" viewBox="0 0.544 17 2.912" fill="#093f68" x="1116" y="516"><svg xmlns="http://www.w3.org/2000/svg" xmlns:xlink="http://www.w3.org/1999/xlink" width="17" height="4" viewBox="0.734 0.524 15.321 2.624"><path paint-order="stroke fill markers" fill-rule="evenodd" d="M8.273 3.148a19.642 19.642 0 0 1-7.102-1.3.681.681 0 1 1 .49-1.272 19.885 19.885 0 0 0 13.45 0 .682.682 0 0 1 .524 1.259 20.796 20.796 0 0 1-7.362 1.313z"/></svg></svg><svg width="10" height="4" xmlns="http://www.w3.org/2000/svg" xmlns:xlink="http://www.w3.org/1999/xlink" xmlns:svgjs="http://svgjs.com/svgjs" viewBox="0 0.367 10 3.266" fill="#093f68" x="1142" y="559"><svg xmlns="http://www.w3.org/2000/svg" xmlns:xlink="http://www.w3.org/1999/xlink" width="10" height="4" viewBox="0.683 0.784 8.899 2.907"><path paint-order="stroke fill markers" fill-rule="evenodd" d="M1.376 3.682a.68.68 0 0 1-.15-1.347L8.751.797a.694.694 0 0 1 .273 1.36L1.499 3.69a.44.44 0 0 1-.123-.007z"/></svg></svg><svg width="10" height="4" xmlns="http://www.w3.org/2000/svg" xmlns:xlink="http://www.w3.org/1999/xlink" xmlns:svgjs="http://svgjs.com/svgjs" viewBox="0 0.338 10 3.324" fill="#093f68" x="1097" y="559"><svg xmlns="http://www.w3.org/2000/svg" xmlns:xlink="http://www.w3.org/1999/xlink" width="10" height="4" viewBox="0.85 0.729 8.899 2.958"><path paint-order="stroke fill markers" fill-rule="evenodd" d="M9.068 3.682a.438.438 0 0 1-.137 0L1.407 2.104A.693.693 0 1 1 1.68.743L9.204 2.28a.68.68 0 0 1 .53.803.68.68 0 0 1-.666.599z"/></svg></svg><svg width="46" height="27" xmlns="http://www.w3.org/2000/svg" xmlns:xlink="http://www.w3.org/1999/xlink" xmlns:svgjs="http://svgjs.com/svgjs" viewBox="0 0.359 46 26.282" fill="#f56132" x="1102" y="548"><svg xmlns="http://www.w3.org/2000/svg" xmlns:xlink="http://www.w3.org/1999/xlink" width="46" height="27" viewBox="0.278 0.422 44.819 25.607"><path paint-order="stroke fill markers" fill-rule="evenodd" d="M3.517.422h38.329a3.252 3.252 0 0 1 3.252 3.252V26.03H.278V3.674A3.252 3.252 0 0 1 3.517.422z"/></svg></svg><svg width="47" height="28" xmlns="http://www.w3.org/2000/svg" xmlns:xlink="http://www.w3.org/1999/xlink" xmlns:svgjs="http://svgjs.com/svgjs" viewBox="0 0.277 47 27.447" fill="#093f68" x="1101" y="547"><svg xmlns="http://www.w3.org/2000/svg" xmlns:xlink="http://www.w3.org/1999/xlink" width="47" height="28" viewBox="0.598 0.742 46.18 26.968"><path paint-order="stroke fill markers" fill-rule="evenodd" d="M46.098 27.71H1.278a.68.68 0 0 1-.68-.68V4.674A3.932 3.932 0 0 1 4.53.742h38.316a3.932 3.932 0 0 1 3.932 3.932V27.03a.68.68 0 0 1-.68.68zm-44.14-1.36h43.473V4.673a2.578 2.578 0 0 0-2.572-2.571H4.517a2.578 2.578 0 0 0-2.572 2.571l.013 21.675z"/></svg></svg><svg width="50" height="4" xmlns="http://www.w3.org/2000/svg" xmlns:xlink="http://www.w3.org/1999/xlink" xmlns:svgjs="http://svgjs.com/svgjs" viewBox="0 0.334 50 3.333" fill="#f56132" x="1100" y="574"><svg xmlns="http://www.w3.org/2000/svg" xmlns:xlink="http://www.w3.org/1999/xlink" width="50" height="4" viewBox="0.087 0.03 49.194 3.279"><path paint-order="stroke fill markers" fill-rule="evenodd" d="M.087.03h49.195a3.279 3.279 0 0 1-3.28 3.279H3.366A3.28 3.28 0 0 1 .087.029z"/></svg></svg><svg width="51" height="6" xmlns="http://www.w3.org/2000/svg" xmlns:xlink="http://www.w3.org/1999/xlink" xmlns:svgjs="http://svgjs.com/svgjs" viewBox="0 0.659 51 4.681" fill="#093f68" x="1099" y="573"><svg xmlns="http://www.w3.org/2000/svg" xmlns:xlink="http://www.w3.org/1999/xlink" width="51" height="6" viewBox="0.408 0.363 50.548 4.64"><path paint-order="stroke fill markers" fill-rule="evenodd" d="M46.996 5.003H4.366a3.966 3.966 0 0 1-3.958-3.96.68.68 0 0 1 .68-.68h49.187a.68.68 0 0 1 .68.68 3.966 3.966 0 0 1-3.959 3.96zM1.856 1.71a2.604 2.604 0 0 0 2.51 1.918h42.63a2.606 2.606 0 0 0 2.545-1.918H1.857z"/></svg></svg><svg width="2" height="15" xmlns="http://www.w3.org/2000/svg" xmlns:xlink="http://www.w3.org/1999/xlink" xmlns:svgjs="http://svgjs.com/svgjs" viewBox="0.25 0 1.5 15" fill="#093f68" x="1123" y="535"><svg xmlns="http://www.w3.org/2000/svg" xmlns:xlink="http://www.w3.org/1999/xlink" width="2" height="15" viewBox="0.497 0.496 1.36 13.606"><path paint-order="stroke fill markers" fill-rule="evenodd" d="M1.178 14.103a.68.68 0 0 1-.68-.68V1.175a.68.68 0 1 1 1.36 0v12.246a.68.68 0 0 1-.68.68z"/></svg></svg><svg width="20" height="21" xmlns="http://www.w3.org/2000/svg" xmlns:xlink="http://www.w3.org/1999/xlink" xmlns:svgjs="http://svgjs.com/svgjs" viewBox="0 0.168 20 20.664" fill="#ffbc0e" x="1059" y="557"><svg xmlns="http://www.w3.org/2000/svg" xmlns:xlink="http://www.w3.org/1999/xlink" width="20" height="21" viewBox="0.663 0.641 19.049 19.682"><path paint-order="stroke fill markers" fill-rule="evenodd" d="M.663.64h19.05v13.43a6.252 6.252 0 0 1-6.253 6.252H6.915A6.252 6.252 0 0 1 .663 14.07V.64z"/></svg></svg><svg width="22" height="23" xmlns="http://www.w3.org/2000/svg" xmlns:xlink="http://www.w3.org/1999/xlink" xmlns:svgjs="http://svgjs.com/svgjs" viewBox="0 0.159 22 22.682" fill="#093f68" x="1058" y="556"><svg xmlns="http://www.w3.org/2000/svg" xmlns:xlink="http://www.w3.org/1999/xlink" width="22" height="23" viewBox="0.982 0.96 20.41 21.043"><path paint-order="stroke fill markers" fill-rule="evenodd" d="M14.46 22.003H7.915A6.94 6.94 0 0 1 .982 15.07V1.64a.68.68 0 0 1 .68-.68h19.05a.68.68 0 0 1 .68.68v13.43a6.94 6.94 0 0 1-6.932 6.933zM2.344 2.32v12.75a5.571 5.571 0 0 0 5.571 5.571h6.545a5.579 5.579 0 0 0 5.571-5.572V2.32H2.344z"/></svg></svg><svg width="122" height="9" xmlns="http://www.w3.org/2000/svg" xmlns:xlink="http://www.w3.org/1999/xlink" xmlns:svgjs="http://svgjs.com/svgjs" viewBox="0 0.495 122 8.009" fill="#725858" x="1044" y="577"><svg xmlns="http://www.w3.org/2000/svg" xmlns:xlink="http://www.w3.org/1999/xlink" width="122" height="9" viewBox="0.117 0.322 121.764 7.994"><path paint-order="stroke fill markers" fill-rule="evenodd" d="M4.115.322h113.77a3.993 3.993 0 0 1 3.996 3.997 3.993 3.993 0 0 1-3.997 3.997H4.114A3.993 3.993 0 0 1 .118 4.32 3.993 3.993 0 0 1 4.115.322z"/></svg></svg><svg width="124" height="10" xmlns="http://www.w3.org/2000/svg" xmlns:xlink="http://www.w3.org/1999/xlink" xmlns:svgjs="http://svgjs.com/svgjs" viewBox="0 0.3 124 9.401" fill="#093f68" x="1043" y="576"><svg xmlns="http://www.w3.org/2000/svg" xmlns:xlink="http://www.w3.org/1999/xlink" width="124" height="10" viewBox="0.259 0.639 123.481 9.361"><path paint-order="stroke fill markers" fill-rule="evenodd" d="M118.882 9.996H5.118a4.68 4.68 0 1 1 0-9.354h113.764a4.679 4.679 0 0 1 4.2 7.069 4.68 4.68 0 0 1-4.2 2.285zM5.118 2.003a3.32 3.32 0 1 0 0 6.633h113.764a3.32 3.32 0 1 0 0-6.633H5.118z"/></svg></svg><svg width="9" height="13" xmlns="http://www.w3.org/2000/svg" xmlns:xlink="http://www.w3.org/1999/xlink" xmlns:svgjs="http://svgjs.com/svgjs" viewBox="0 0.127 9 12.747" fill="#093f68" x="1078" y="559"><svg xmlns="http://www.w3.org/2000/svg" xmlns:xlink="http://www.w3.org/1999/xlink" width="9" height="13" viewBox="0.039 0.107 8.647 12.246"><path paint-order="stroke fill markers" fill-rule="evenodd" d="M1.828 12.308H.718a.68.68 0 0 1-.68-.68V.831a.68.68 0 0 1 .68-.68h1.11a6.123 6.123 0 1 1 0 12.157zm-.429-1.36h.429a4.762 4.762 0 1 0 0-9.464h-.429v9.464z"/></svg></svg><svg width="45" height="38" xmlns="http://www.w3.org/2000/svg" xmlns:xlink="http://www.w3.org/1999/xlink" xmlns:svgjs="http://svgjs.com/svgjs" viewBox="0 0.074 45 37.853" fill="#fff" x="1045" y="497"><svg xmlns="http://www.w3.org/2000/svg" xmlns:xlink="http://www.w3.org/1999/xlink" width="45" height="38" viewBox="0.962 0.82 43.731 36.785"><path paint-order="stroke fill markers" fill-rule="evenodd" d="M2.662.82h40.33a1.7 1.7 0 0 1 1.7 1.7v33.384c0 .94-.76 1.701-1.7 1.701H2.661c-.94 0-1.7-.76-1.7-1.701V2.521c0-.94.76-1.701 1.7-1.701z"/></svg></svg><svg width="46" height="39" xmlns="http://www.w3.org/2000/svg" xmlns:xlink="http://www.w3.org/1999/xlink" xmlns:svgjs="http://svgjs.com/svgjs" viewBox="0 0.043 46 38.914" fill="#093f68" x="1045" y="497"><svg xmlns="http://www.w3.org/2000/svg" xmlns:xlink="http://www.w3.org/1999/xlink" width="46" height="39" viewBox="0.281 0.14 45.092 38.146"><path paint-order="stroke fill markers" fill-rule="evenodd" d="M42.991 38.285H2.655A2.381 2.381 0 0 1 .28 35.904V2.514A2.374 2.374 0 0 1 2.655.14H42.99a2.38 2.38 0 0 1 2.381 2.374v33.39a2.381 2.381 0 0 1-2.38 2.381zM2.655 1.514c-.56 0-1.014.454-1.014 1.014v33.39a1.02 1.02 0 0 0 1.014 1.02H42.99a1.02 1.02 0 0 0 1.02-1.02V2.514a1.02 1.02 0 0 0-1.02-1H2.655z"/></svg></svg><svg width="45" height="6" xmlns="http://www.w3.org/2000/svg" xmlns:xlink="http://www.w3.org/1999/xlink" xmlns:svgjs="http://svgjs.com/svgjs" viewBox="0 0.609 45 4.781" fill="#68e1fd" x="1045" y="497"><svg xmlns="http://www.w3.org/2000/svg" xmlns:xlink="http://www.w3.org/1999/xlink" width="45" height="6" viewBox="0.962 0.833 43.731 4.647"><path paint-order="stroke fill markers" fill-rule="evenodd" d="M2.655.833H42.99a1.7 1.7 0 0 1 1.702 1.701V5.48H.962V2.534a1.7 1.7 0 0 1 1.693-1.7z"/></svg></svg><svg width="46" height="7" xmlns="http://www.w3.org/2000/svg" xmlns:xlink="http://www.w3.org/1999/xlink" xmlns:svgjs="http://svgjs.com/svgjs" viewBox="0 0.436 46 6.128" fill="#093f68" x="1045" y="497"><svg xmlns="http://www.w3.org/2000/svg" xmlns:xlink="http://www.w3.org/1999/xlink" width="46" height="7" viewBox="0.281 0.14 45.092 6.007"><path paint-order="stroke fill markers" fill-rule="evenodd" d="M44.693 6.147H.962a.68.68 0 0 1-.681-.68V2.513A2.374 2.374 0 0 1 2.655.14H42.99a2.38 2.38 0 0 1 2.381 2.374v2.952a.68.68 0 0 1-.68.68zM1.64 4.787h42.37V2.513a1.02 1.02 0 0 0-1.02-1H2.655c-.56 0-1.014.454-1.014 1.014v2.258z"/></svg></svg><svg width="3" height="3" xmlns="http://www.w3.org/2000/svg" xmlns:xlink="http://www.w3.org/1999/xlink" xmlns:svgjs="http://svgjs.com/svgjs" viewBox="0 0 2.999 3" fill="#093f68" x="1048" y="499"><svg xmlns="http://www.w3.org/2000/svg" xmlns:xlink="http://www.w3.org/1999/xlink" width="3" height="3" viewBox="0.445 0.228 1.823 1.823"><path paint-order="stroke fill markers" fill-rule="evenodd" d="M1.356 2.051A.91.91 0 1 1 1.355.23a.91.91 0 0 1 .001 1.821z"/></svg></svg><svg width="3" height="3" xmlns="http://www.w3.org/2000/svg" xmlns:xlink="http://www.w3.org/1999/xlink" xmlns:svgjs="http://svgjs.com/svgjs" viewBox="0 0 3 2.999" fill="#093f68" x="1050" y="499"><svg xmlns="http://www.w3.org/2000/svg" xmlns:xlink="http://www.w3.org/1999/xlink" width="3" height="3" viewBox="0.995 0.228 1.824 1.823"><path paint-order="stroke fill markers" fill-rule="evenodd" d="M1.907 2.051A.911.911 0 1 1 1.906.23a.911.911 0 0 1 .001 1.822z"/></svg></svg><svg width="3" height="3" xmlns="http://www.w3.org/2000/svg" xmlns:xlink="http://www.w3.org/1999/xlink" xmlns:svgjs="http://svgjs.com/svgjs" viewBox="0 0 2.999 3" fill="#093f68" x="1053" y="499"><svg xmlns="http://www.w3.org/2000/svg" xmlns:xlink="http://www.w3.org/1999/xlink" width="3" height="3" viewBox="0.554 0.228 1.823 1.823"><path paint-order="stroke fill markers" fill-rule="evenodd" d="M1.465 2.051A.91.91 0 1 1 1.464.23a.91.91 0 0 1 .001 1.821z"/></svg></svg><svg width="11" height="13" xmlns="http://www.w3.org/2000/svg" xmlns:xlink="http://www.w3.org/1999/xlink" xmlns:svgjs="http://svgjs.com/svgjs" viewBox="0.101 0 10.799 13" fill="#093f68" x="1052" y="512"><svg xmlns="http://www.w3.org/2000/svg" xmlns:xlink="http://www.w3.org/1999/xlink" width="11" height="13" viewBox="0.152 0.12 10.048 12.096"><path paint-order="stroke fill markers" fill-rule="evenodd" d="M10.2 3.284l-6.293 2.87v.048L10.2 9.073v3.143L.152 7.638V4.719L10.2.12v3.164z"/></svg></svg><svg width="9" height="20" xmlns="http://www.w3.org/2000/svg" xmlns:xlink="http://www.w3.org/1999/xlink" xmlns:svgjs="http://svgjs.com/svgjs" viewBox="0.145 0 8.709 20" fill="#093f68" x="1063" y="507"><svg xmlns="http://www.w3.org/2000/svg" xmlns:xlink="http://www.w3.org/1999/xlink" width="9" height="20" viewBox="0.725 0.582 8.197 18.825"><path paint-order="stroke fill markers" fill-rule="evenodd" d="M6.664.582l2.258.81L2.97 19.407l-2.244-.81L6.664.582z"/></svg></svg><svg width="11" height="13" xmlns="http://www.w3.org/2000/svg" xmlns:xlink="http://www.w3.org/1999/xlink" xmlns:svgjs="http://svgjs.com/svgjs" viewBox="0.095 0 10.81 13" fill="#093f68" x="1073" y="512"><svg xmlns="http://www.w3.org/2000/svg" width="11" height="13" viewBox="0.453 0.12 10.041 12.076"><path paint-order="stroke fill markers" fill-rule="evenodd" d="M.453 9.073l6.293-2.87v-.048L.453 3.284V.12L10.495 4.7v2.918L.453 12.196V9.073z"/></svg></svg></svg></svg>