<svg width="62" height="126" xmlns="http://www.w3.org/2000/svg" xmlns:xlink="http://www.w3.org/1999/xlink" xmlns:svgjs="http://svgjs.com/svgjs" viewBox="1074 710 62 126"><svg width="62" height="126" xmlns="http://www.w3.org/2000/svg" xmlns:xlink="http://www.w3.org/1999/xlink" xmlns:svgjs="http://svgjs.com/svgjs" viewBox="1074 710 62 126" x="1074" y="710"><svg width="38" height="37" xmlns="http://www.w3.org/2000/svg" xmlns:xlink="http://www.w3.org/1999/xlink" xmlns:svgjs="http://svgjs.com/svgjs" viewBox="0 0.277 38 36.445" fill="#093f68" x="1083" y="799"><svg xmlns="http://www.w3.org/2000/svg" xmlns:xlink="http://www.w3.org/1999/xlink" width="38" height="37" viewBox="0.39 0.404 37.437 35.905"><path paint-order="stroke fill markers" fill-rule="evenodd" d="M36.89 32.161L22.066 20.593V.404h-5.984v20.19L1.273 32.16a2.298 2.298 0 1 0 2.828 3.622l14.98-11.692 14.986 11.692a2.297 2.297 0 1 0 2.822-3.622z"/></svg></svg><svg width="40" height="38" xmlns="http://www.w3.org/2000/svg" xmlns:xlink="http://www.w3.org/1999/xlink" xmlns:svgjs="http://svgjs.com/svgjs" viewBox="0.217 0 39.565 38" fill="#093f68" x="1082" y="798"><svg xmlns="http://www.w3.org/2000/svg" xmlns:xlink="http://www.w3.org/1999/xlink" width="40" height="38" viewBox="0.634 0.748 38.787 37.252"><path paint-order="stroke fill markers" fill-rule="evenodd" d="M36.478 37.951a2.914 2.914 0 0 1-1.817-.656L20.08 25.924l-14.58 11.37a2.953 2.953 0 1 1-3.627-4.651l14.552-11.365V1.404c0-.362.294-.656.657-.656h5.97c.363 0 .656.294.656.656v19.874l14.573 11.365a2.953 2.953 0 0 1-1.817 5.282l.013.026zm-16.404-13.49a.657.657 0 0 1 .408.138l14.973 11.666a1.68 1.68 0 0 0 2.303-.289 1.64 1.64 0 0 0-.282-2.303L22.653 22.112a.655.655 0 0 1-.255-.512V2.06h-4.66V21.6c0 .2-.092.388-.249.512L2.667 33.673a1.655 1.655 0 0 0 2.014 2.625l15.026-11.726a.655.655 0 0 1 .374-.138l-.007.027z"/></svg></svg><svg width="50" height="55" xmlns="http://www.w3.org/2000/svg" xmlns:xlink="http://www.w3.org/1999/xlink" xmlns:svgjs="http://svgjs.com/svgjs" viewBox="0 0.051 50 54.898" fill="#70cc40" x="1077" y="747"><svg xmlns="http://www.w3.org/2000/svg" xmlns:xlink="http://www.w3.org/1999/xlink" width="50" height="55" viewBox="0.614 0.411 48.968 53.764"><path paint-order="stroke fill markers" fill-rule="evenodd" d="M6.335.411h37.552a5.694 5.694 0 0 1 5.669 6.24l-4.548 47.525H5.161L.64 6.65A5.693 5.693 0 0 1 6.334.411z"/></svg></svg><svg width="52" height="56" xmlns="http://www.w3.org/2000/svg" xmlns:xlink="http://www.w3.org/1999/xlink" xmlns:svgjs="http://svgjs.com/svgjs" viewBox="0.45 0 51.1 56" fill="#093f68" x="1076" y="746"><svg xmlns="http://www.w3.org/2000/svg" xmlns:xlink="http://www.w3.org/1999/xlink" width="52" height="56" viewBox="0.955 0.755 50.258 55.077"><path paint-order="stroke fill markers" fill-rule="evenodd" d="M46.008 55.832H6.161a.657.657 0 0 1-.657-.59L.984 7.71A6.358 6.358 0 0 1 7.308.755H44.86a6.36 6.36 0 0 1 6.325 6.955l-4.52 47.531a.656.656 0 0 1-.657.59zm-39.25-1.313h38.634L49.86 7.585a5.054 5.054 0 0 0-5.02-5.518H7.335a5.051 5.051 0 0 0-5.02 5.518L6.758 54.52z"/></svg></svg><svg width="11" height="24" xmlns="http://www.w3.org/2000/svg" xmlns:xlink="http://www.w3.org/1999/xlink" xmlns:svgjs="http://svgjs.com/svgjs" viewBox="0.146 0 10.708 24" fill="#70cc40" x="1075" y="778"><svg xmlns="http://www.w3.org/2000/svg" xmlns:xlink="http://www.w3.org/1999/xlink" width="11" height="24" viewBox="0.1 0.867 9.954 22.309"><path paint-order="stroke fill markers" fill-rule="evenodd" d="M4.595.867h.965a4.494 4.494 0 0 1 4.494 4.494v17.815H.1V5.355A4.495 4.495 0 0 1 4.595.867z"/></svg></svg><svg width="12" height="24" xmlns="http://www.w3.org/2000/svg" xmlns:xlink="http://www.w3.org/1999/xlink" xmlns:svgjs="http://svgjs.com/svgjs" viewBox="0.277 0 11.447 24" fill="#093f68" x="1074" y="778"><svg xmlns="http://www.w3.org/2000/svg" xmlns:xlink="http://www.w3.org/1999/xlink" width="12" height="24" viewBox="0.444 0.211 11.266 23.621"><path paint-order="stroke fill markers" fill-rule="evenodd" d="M11.054 23.832H1.1a.656.656 0 0 1-.656-.656V5.355A5.157 5.157 0 0 1 5.595.21h.965a5.157 5.157 0 0 1 5.15 5.15v17.815a.656.656 0 0 1-.656.656zm-9.297-1.313h8.641V5.355A3.845 3.845 0 0 0 6.56 1.516h-.965a3.845 3.845 0 0 0-3.838 3.839v17.164z"/></svg></svg><svg width="11" height="24" xmlns="http://www.w3.org/2000/svg" xmlns:xlink="http://www.w3.org/1999/xlink" xmlns:svgjs="http://svgjs.com/svgjs" viewBox="0.146 0 10.708 24" fill="#70cc40" x="1119" y="778"><svg xmlns="http://www.w3.org/2000/svg" xmlns:xlink="http://www.w3.org/1999/xlink" width="11" height="24" viewBox="0.114 0.867 9.954 22.309"><path paint-order="stroke fill markers" fill-rule="evenodd" d="M4.61.867h.964a4.494 4.494 0 0 1 4.494 4.494v17.815H.114V5.355A4.495 4.495 0 0 1 4.61.867z"/></svg></svg><svg width="12" height="24" xmlns="http://www.w3.org/2000/svg" xmlns:xlink="http://www.w3.org/1999/xlink" xmlns:svgjs="http://svgjs.com/svgjs" viewBox="0.278 0 11.444 24" fill="#093f68" x="1118" y="778"><svg xmlns="http://www.w3.org/2000/svg" xmlns:xlink="http://www.w3.org/1999/xlink" width="12" height="24" viewBox="0.459 0.204 11.266 23.628"><path paint-order="stroke fill markers" fill-rule="evenodd" d="M11.068 23.832H1.114a.656.656 0 0 1-.655-.656V5.355A5.157 5.157 0 0 1 5.609.204h.965a5.158 5.158 0 0 1 5.15 5.15v17.822a.656.656 0 0 1-.656.656zm-9.297-1.313h8.641V5.355a3.845 3.845 0 0 0-3.838-3.839h-.965a3.845 3.845 0 0 0-3.838 3.839v17.164z"/></svg></svg><svg width="55" height="10" xmlns="http://www.w3.org/2000/svg" xmlns:xlink="http://www.w3.org/1999/xlink" xmlns:svgjs="http://svgjs.com/svgjs" viewBox="0 0.717 55 8.566" fill="#70cc40" x="1075" y="796"><svg xmlns="http://www.w3.org/2000/svg" xmlns:xlink="http://www.w3.org/1999/xlink" width="55" height="10" viewBox="0.1 0.976 53.968 8.405"><path paint-order="stroke fill markers" fill-rule="evenodd" d="M3.781.976h46.607a3.677 3.677 0 0 1 3.68 3.681V5.7a3.677 3.677 0 0 1-3.68 3.681H3.78a3.678 3.678 0 0 1-3.68-3.68V4.656A3.677 3.677 0 0 1 3.78.977z"/></svg></svg><svg width="56" height="11" xmlns="http://www.w3.org/2000/svg" xmlns:xlink="http://www.w3.org/1999/xlink" xmlns:svgjs="http://svgjs.com/svgjs" viewBox="0 0.576 56 9.849" fill="#093f68" x="1074" y="796"><svg xmlns="http://www.w3.org/2000/svg" xmlns:xlink="http://www.w3.org/1999/xlink" width="56" height="11" viewBox="0.471 0.32 55.254 9.717"><path paint-order="stroke fill markers" fill-rule="evenodd" d="M51.388 10.038H4.8A4.343 4.343 0 0 1 .47 5.7V4.65A4.337 4.337 0 0 1 4.801.32h46.587a4.337 4.337 0 0 1 4.337 4.33V5.7a4.344 4.344 0 0 1-4.337 4.338zM4.8 1.632a3.018 3.018 0 0 0-3.018 3.019V5.7A3.025 3.025 0 0 0 4.8 8.724h46.587A3.032 3.032 0 0 0 54.412 5.7V4.65a3.025 3.025 0 0 0-3.024-3.018H4.8z"/></svg></svg><svg width="31" height="23" xmlns="http://www.w3.org/2000/svg" xmlns:xlink="http://www.w3.org/1999/xlink" xmlns:svgjs="http://svgjs.com/svgjs" viewBox="0 0.264 31 22.472" fill="#725858" x="1086" y="729"><svg xmlns="http://www.w3.org/2000/svg" xmlns:xlink="http://www.w3.org/1999/xlink" width="31" height="23" viewBox="0.347 0.796 30.524 22.127"><path paint-order="stroke fill markers" fill-rule="evenodd" d="M11.291.853c5.84-.263 11.483.243 15.951 4.527 2.303 2.205 4.246 6.037 3.333 9.304-.367 1.312-1.266 2.257-1.227 3.76 0 .243.827 3.418 1.523 2.677-1.903 2.021-5.203 1.614-7.828.715-2.625-.899-5.413-2.152-8.064-1.312-1.247.394-2.316 1.214-3.524 1.726-3.504 1.502-7.52.203-11.108-1.096a3.636 3.636 0 0 0 1.817-3.222 13.337 13.337 0 0 0-.702-3.806c-.846-3.195-1.2-6.909.867-9.48C4.146 2.381 8.489.976 11.29.852z"/></svg></svg><svg width="33" height="24" xmlns="http://www.w3.org/2000/svg" xmlns:xlink="http://www.w3.org/1999/xlink" xmlns:svgjs="http://svgjs.com/svgjs" viewBox="0.172 0 32.656 24" fill="#093f68" x="1085" y="729"><svg xmlns="http://www.w3.org/2000/svg" xmlns:xlink="http://www.w3.org/1999/xlink" width="33" height="24" viewBox="0.688 0.13 31.884 23.432"><path paint-order="stroke fill markers" fill-rule="evenodd" d="M8.998 23.562c-2.593 0-5.282-.866-7.874-1.805a.655.655 0 0 1-.433-.584.656.656 0 0 1 .374-.656c1.017-.485 1.41-1.732 1.444-2.624a10.713 10.713 0 0 0-.552-3.15l-.13-.466C.636 9.894.971 6.51 2.816 4.225 4.897 1.64 9.595.29 12.258.19l.033.656-.033-.656c5.722-.256 11.674.138 16.437 4.711 2.388 2.284 4.508 6.378 3.51 9.954a8.423 8.423 0 0 1-.597 1.483 4.381 4.381 0 0 0-.61 2.086c.157.712.402 1.402.728 2.054a.657.657 0 0 1 .656 1.09c-2.361 2.5-6.351 1.626-8.53.885l-1.016-.36c-2.231-.795-4.541-1.615-6.64-.959-.676.237-1.325.545-1.937.919-.485.269-.99.55-1.522.78a9.37 9.37 0 0 1-3.74.729zm-6.3-2.625c3.367 1.162 6.615 1.969 9.502.709.481-.213.95-.454 1.404-.722.69-.414 1.419-.757 2.178-1.023 2.526-.788 5.04.111 7.473.977l.998.348c1.653.57 4.507 1.24 6.43.046a8.807 8.807 0 0 1-.99-2.795 5.5 5.5 0 0 1 .734-2.69c.209-.405.382-.826.518-1.26.847-3.058-1.043-6.634-3.156-8.661-4.41-4.232-10.046-4.593-15.471-4.344-2.802.125-6.844 1.516-8.478 3.543-1.634 2.028-1.818 4.934-.747 8.89l.13.46c.376 1.142.575 2.335.591 3.537a4.723 4.723 0 0 1-1.116 2.972v.013z"/></svg></svg><svg width="39" height="34" xmlns="http://www.w3.org/2000/svg" xmlns:xlink="http://www.w3.org/1999/xlink" xmlns:svgjs="http://svgjs.com/svgjs" viewBox="0.219 0 38.562 34" fill="#725858" x="1083" y="710"><svg xmlns="http://www.w3.org/2000/svg" xmlns:xlink="http://www.w3.org/1999/xlink" width="39" height="34" viewBox="0.481 0.655 37.648 33.195"><path paint-order="stroke fill markers" fill-rule="evenodd" d="M11.91 3.987S7.972 2.826 4.174 6.894C.894 10.47.236 15.745.551 20.424c.23 3.694 1.51 6.974 4.509 9.297 2.473 1.91 5.524 2.913 8.581 3.543 7.467 1.542 18.616.328 22.775-7.184 2.92-5.25 1.858-12.75-1.312-17.638-4.79-7.4-17.637-10.8-23.194-4.455z"/></svg></svg><svg width="40" height="35" xmlns="http://www.w3.org/2000/svg" xmlns:xlink="http://www.w3.org/1999/xlink" xmlns:svgjs="http://svgjs.com/svgjs" viewBox="0.234 0 39.533 35" fill="#093f68" x="1082" y="710"><svg xmlns="http://www.w3.org/2000/svg" xmlns:xlink="http://www.w3.org/1999/xlink" width="40" height="35" viewBox="0.83 0 38.951 34.485"><path paint-order="stroke fill markers" fill-rule="evenodd" d="M20.468 34.485c-2 .005-3.996-.189-5.957-.578-3.826-.787-6.634-1.968-8.852-3.667-2.894-2.238-4.495-5.525-4.763-9.77-.381-6.162.899-10.88 3.799-14.016 3.32-3.595 6.804-3.385 7.985-3.189C14.937.897 18.355-.245 22.358.044c5.702.413 11.45 3.642 14.298 8.038 3.076 4.75 4.526 12.558 1.311 18.313-3.353 6.108-10.963 8.09-17.499 8.09zm-8.95-30c-1.345 0-3.621.434-5.859 2.855-2.625 2.867-3.812 7.257-3.45 13.044.241 3.937 1.633 6.791 4.257 8.819 2.047 1.588 4.691 2.67 8.307 3.418 6.594 1.359 17.913.656 22.072-6.863 2.933-5.302 1.576-12.545-1.312-16.961-2.624-4.068-7.985-7.06-13.3-7.44-3.74-.283-6.883.813-8.85 3.063a.657.657 0 0 1-.658.197 5.01 5.01 0 0 0-1.207-.131z"/></svg></svg><svg width="50" height="37" xmlns="http://www.w3.org/2000/svg" xmlns:xlink="http://www.w3.org/1999/xlink" xmlns:svgjs="http://svgjs.com/svgjs" viewBox="0 0.641 50 35.718" fill="#68e1fd" x="1076" y="753"><svg xmlns="http://www.w3.org/2000/svg" xmlns:xlink="http://www.w3.org/1999/xlink" width="50" height="37" viewBox="0.256 0.526 49.728 35.524"><path paint-order="stroke fill markers" fill-rule="evenodd" d="M49.984 7.285L32.511.526l.073.217A6.489 6.489 0 0 0 30.95.526h-9.18c-2.297 0-6.738 2.533-8.392 4.593L.256 20.303l9.146 4.684 2.75-3.707v14.77h28.377V14.443l7.75 2.67 1.705-9.828z"/></svg></svg><svg width="52" height="38" xmlns="http://www.w3.org/2000/svg" xmlns:xlink="http://www.w3.org/1999/xlink" xmlns:svgjs="http://svgjs.com/svgjs" viewBox="0 0.226 52 37.549" fill="#093f68" x="1075" y="752"><svg xmlns="http://www.w3.org/2000/svg" xmlns:xlink="http://www.w3.org/1999/xlink" width="52" height="38" viewBox="0.627 0.87 51.049 36.862"><path paint-order="stroke fill markers" fill-rule="evenodd" d="M41.543 37.732H13.158a.656.656 0 0 1-.657-.656V24.294l-1.541 2.107a.656.656 0 0 1-.82.197L.987 21.913a.658.658 0 0 1-.197-1.017L13.913 5.713c1.672-2.1 6.292-4.843 8.89-4.843h9.186c.402.003.804.038 1.2.105a.656.656 0 0 1 .598-.059L51.26 7.674c.29.114.46.416.407.722l-1.7 9.842a.655.655 0 0 1-.859.512l-6.93-2.382v20.689a.653.653 0 0 1-.196.465.655.655 0 0 1-.44.21zM13.814 36.42h27.073V15.49a.655.655 0 0 1 .866-.657l7.02 2.421 1.476-8.563L33.846 2.34a.654.654 0 0 1-.413 0 5.682 5.682 0 0 0-1.463-.197h-9.2c-2.02 0-6.292 2.369-7.873 4.37L2.325 21.086l7.906 4.048 2.415-3.28a.656.656 0 0 1 .735-.236.657.657 0 0 1 .446.656l-.013 14.146z"/></svg></svg><svg width="2" height="11" xmlns="http://www.w3.org/2000/svg" xmlns:xlink="http://www.w3.org/1999/xlink" xmlns:svgjs="http://svgjs.com/svgjs" viewBox="0.278 0 1.444 11" fill="#093f68" x="1087" y="764"><svg xmlns="http://www.w3.org/2000/svg" xmlns:xlink="http://www.w3.org/1999/xlink" width="2" height="11" viewBox="0.501 0.963 1.313 10"><path paint-order="stroke fill markers" fill-rule="evenodd" d="M1.158 10.963a.656.656 0 0 1-.657-.657V1.62a.656.656 0 0 1 1.313 0v8.687a.656.656 0 0 1-.656.657z"/></svg></svg><svg width="11" height="37" xmlns="http://www.w3.org/2000/svg" xmlns:xlink="http://www.w3.org/1999/xlink" xmlns:svgjs="http://svgjs.com/svgjs" viewBox="0.351 0 10.298 37" fill="#fff" x="1097" y="753"><svg xmlns="http://www.w3.org/2000/svg" xmlns:xlink="http://www.w3.org/1999/xlink" width="11" height="37" viewBox="0.416 0.526 9.894 35.55"><path paint-order="stroke fill markers" fill-rule="evenodd" d="M.416.526h9.894v35.55H.416V.526z"/></svg></svg><svg width="12" height="38" xmlns="http://www.w3.org/2000/svg" xmlns:xlink="http://www.w3.org/1999/xlink" xmlns:svgjs="http://svgjs.com/svgjs" viewBox="0.22 0 11.56 38" fill="#093f68" x="1096" y="752"><svg xmlns="http://www.w3.org/2000/svg" xmlns:xlink="http://www.w3.org/1999/xlink" width="12" height="38" viewBox="0.759 0.87 11.214 36.862"><path paint-order="stroke fill markers" fill-rule="evenodd" d="M11.317 37.732h-9.9a.657.657 0 0 1-.658-.656V1.526c0-.362.295-.656.657-.656h9.901c.363 0 .656.294.656.656v35.55a.656.656 0 0 1-.656.656zM2.072 36.42h8.589V2.183H2.07V36.42z"/></svg></svg><svg width="11" height="11" xmlns="http://www.w3.org/2000/svg" xmlns:xlink="http://www.w3.org/1999/xlink" xmlns:svgjs="http://svgjs.com/svgjs" viewBox="0.17 0 10.66 11" fill="#ffc9b0" x="1097" y="753"><svg xmlns="http://www.w3.org/2000/svg" xmlns:xlink="http://www.w3.org/1999/xlink" width="11" height="11" viewBox="0.416 0.526 9.901 10.217"><path paint-order="stroke fill markers" fill-rule="evenodd" d="M10.317.526v8.898a8.53 8.53 0 0 1-4.92 1.312 8.83 8.83 0 0 1-4.98-1.312V.526h9.9z"/></svg></svg><svg width="12" height="13" xmlns="http://www.w3.org/2000/svg" xmlns:xlink="http://www.w3.org/1999/xlink" xmlns:svgjs="http://svgjs.com/svgjs" viewBox="0 0.311 12 12.378" fill="#093f68" x="1096" y="752"><svg xmlns="http://www.w3.org/2000/svg" xmlns:xlink="http://www.w3.org/1999/xlink" width="12" height="13" viewBox="0.759 0.87 11.214 11.567"><path paint-order="stroke fill markers" fill-rule="evenodd" d="M6.396 12.431a9.42 9.42 0 0 1-5.367-1.45.657.657 0 0 1-.27-.524v-8.93c0-.363.294-.657.657-.657h9.901c.363 0 .656.294.656.656v8.898a.656.656 0 0 1-.262.518 9.072 9.072 0 0 1-5.315 1.49zM2.072 10.09a8.832 8.832 0 0 0 4.324 1.03 8.528 8.528 0 0 0 4.265-1.023V2.222H2.07v7.867z"/></svg></svg><svg width="7" height="23" xmlns="http://www.w3.org/2000/svg" xmlns:xlink="http://www.w3.org/1999/xlink" xmlns:svgjs="http://svgjs.com/svgjs" viewBox="0.423 0 6.155 23" fill="#093f68" x="1092" y="752"><svg xmlns="http://www.w3.org/2000/svg" xmlns:xlink="http://www.w3.org/1999/xlink" width="7" height="23" viewBox="0.293 0.822 5.83 21.786"><path paint-order="stroke fill markers" fill-rule="evenodd" d="M5.416 22.608a.656.656 0 0 1-.578-.347L.757 14.584a.657.657 0 0 1 0-.657l2.107-3.648L.443 7.34a.654.654 0 0 1 0-.832l4.461-5.414a.656.656 0 1 1 1.01.834l-4.08 5.02L4.195 9.82c.173.21.2.505.066.741l-2.153 3.727 3.937 7.356a.656.656 0 0 1-.578.964h-.052z"/></svg></svg><svg width="6" height="22" xmlns="http://www.w3.org/2000/svg" xmlns:xlink="http://www.w3.org/1999/xlink" xmlns:svgjs="http://svgjs.com/svgjs" viewBox="0.067 0 5.866 22" fill="#093f68" x="1107" y="753"><svg xmlns="http://www.w3.org/2000/svg" xmlns:xlink="http://www.w3.org/1999/xlink" width="6" height="22" viewBox="0.004 0.237 5.797 21.74"><path paint-order="stroke fill markers" fill-rule="evenodd" d="M.658 21.976a.656.656 0 0 1-.577-.965l3.937-7.355-2.146-3.727a.655.655 0 0 1 .06-.748L4.3 6.314.18 1.307A.656.656 0 0 1 .751.24c.174.016.334.1.445.235l4.456 5.42a.657.657 0 0 1 0 .833l-2.415 2.94 2.1 3.648a.656.656 0 0 1 0 .656l-4.068 7.657a.656.656 0 0 1-.61.348z"/></svg></svg><svg width="5" height="5" xmlns="http://www.w3.org/2000/svg" xmlns:xlink="http://www.w3.org/1999/xlink" xmlns:svgjs="http://svgjs.com/svgjs" viewBox="0 0.144 5 4.712" fill="#ffc9b0" x="1100" y="750"><svg xmlns="http://www.w3.org/2000/svg" xmlns:xlink="http://www.w3.org/1999/xlink" width="5" height="5" viewBox="0.015 0.226 4.672 4.403"><path paint-order="stroke fill markers" fill-rule="evenodd" d="M.015 4.629V.226h4.671v4.403H.015"/></svg></svg><svg width="7" height="7" xmlns="http://www.w3.org/2000/svg" xmlns:xlink="http://www.w3.org/1999/xlink" xmlns:svgjs="http://svgjs.com/svgjs" viewBox="0 0.157 7 6.685" fill="#093f68" x="1099" y="749"><svg xmlns="http://www.w3.org/2000/svg" xmlns:xlink="http://www.w3.org/1999/xlink" width="7" height="7" viewBox="0.358 0.57 5.984 5.715"><path paint-order="stroke fill markers" fill-rule="evenodd" d="M5.686 6.285a.656.656 0 0 1-.656-.656V1.882H1.67V5.63a.656.656 0 1 1-1.312 0V1.226c0-.362.294-.656.657-.656h4.671c.362 0 .656.294.656.656v4.403a.656.656 0 0 1-.656.656z"/></svg></svg><svg width="10" height="8" xmlns="http://www.w3.org/2000/svg" xmlns:xlink="http://www.w3.org/1999/xlink" xmlns:svgjs="http://svgjs.com/svgjs" viewBox="0.356 0 9.289 8" fill="#ffc9b0" x="1084" y="734"><svg xmlns="http://www.w3.org/2000/svg" xmlns:xlink="http://www.w3.org/1999/xlink" width="10" height="8" viewBox="0.45 0.177 9.081 7.821"><path paint-order="stroke fill markers" fill-rule="evenodd" d="M4.992 7.998C2.48 7.998.45 6.25.45 4.088.45 1.924 2.48.176 4.992.176c2.51 0 4.54 1.748 4.54 3.91 0 2.163-2.03 3.911-4.54 3.911z"/></svg></svg><svg width="12" height="10" xmlns="http://www.w3.org/2000/svg" xmlns:xlink="http://www.w3.org/1999/xlink" xmlns:svgjs="http://svgjs.com/svgjs" viewBox="0.343 0 11.314 10" fill="#093f68" x="1083" y="733"><svg xmlns="http://www.w3.org/2000/svg" xmlns:xlink="http://www.w3.org/1999/xlink" width="12" height="10" viewBox="0.795 0.468 10.393 9.186"><path paint-order="stroke fill markers" fill-rule="evenodd" d="M5.992 9.654C3.13 9.654.795 7.607.795 5.061S3.13.468 5.992.468c2.86 0 5.196 2.054 5.196 4.593 0 2.54-2.323 4.593-5.196 4.593zm0-7.828c-2.14 0-3.885 1.463-3.885 3.281s1.745 3.28 3.885 3.28c2.138 0 3.884-1.462 3.884-3.28 0-1.818-1.74-3.28-3.884-3.28z"/></svg></svg><svg width="11" height="8" xmlns="http://www.w3.org/2000/svg" xmlns:xlink="http://www.w3.org/1999/xlink" xmlns:svgjs="http://svgjs.com/svgjs" viewBox="0.856 0 9.289 8" fill="#ffc9b0" x="1110" y="734"><svg xmlns="http://www.w3.org/2000/svg" xmlns:xlink="http://www.w3.org/1999/xlink" width="11" height="8" viewBox="0.926 0.177 9.081 7.821"><path paint-order="stroke fill markers" fill-rule="evenodd" d="M5.466 7.998c-2.51 0-4.54-1.748-4.54-3.91 0-2.163 2.03-3.911 4.54-3.911 2.512 0 4.541 1.748 4.541 3.91 0 2.163-2.03 3.911-4.541 3.911z"/></svg></svg><svg width="11" height="10" xmlns="http://www.w3.org/2000/svg" xmlns:xlink="http://www.w3.org/1999/xlink" xmlns:svgjs="http://svgjs.com/svgjs" viewBox="0 0.139 11 9.723" fill="#093f68" x="1110" y="733"><svg xmlns="http://www.w3.org/2000/svg" xmlns:xlink="http://www.w3.org/1999/xlink" width="11" height="10" viewBox="0.29 0.468 10.393 9.186"><path paint-order="stroke fill markers" fill-rule="evenodd" d="M5.486 9.654C2.62 9.654.29 7.607.29 5.061S2.62.468 5.486.468c2.868 0 5.196 2.054 5.196 4.593 0 2.54-2.349 4.593-5.196 4.593zm0-7.828c-2.145 0-3.884 1.463-3.884 3.281s1.739 3.28 3.884 3.28c2.145 0 3.885-1.462 3.885-3.28 0-1.818-1.765-3.28-3.885-3.28z"/></svg></svg><svg width="29" height="33" xmlns="http://www.w3.org/2000/svg" xmlns:xlink="http://www.w3.org/1999/xlink" xmlns:svgjs="http://svgjs.com/svgjs" viewBox="0.275 0 28.45 33" fill="#ffc9b0" x="1088" y="718"><svg xmlns="http://www.w3.org/2000/svg" xmlns:xlink="http://www.w3.org/1999/xlink" width="29" height="33" viewBox="0.64 0.928 27.509 31.908"><path paint-order="stroke fill markers" fill-rule="evenodd" d="M22.65 8.513A11.902 11.902 0 0 1 18.636.928 15.329 15.329 0 0 1 12.9 8.323a26.156 26.156 0 0 1-8.661 3.805c-4.042 1.05-3.583 3.4-3.583 7.015 0 7.562 6.131 13.693 13.694 13.693 7.563 0 13.694-6.13 13.694-13.693 0-1.903.413-4.233-.4-6.004-.939-2.028-3.176-3.11-4.817-4.475l-.176-.151z"/></svg></svg><svg width="29" height="34" xmlns="http://www.w3.org/2000/svg" xmlns:xlink="http://www.w3.org/1999/xlink" xmlns:svgjs="http://svgjs.com/svgjs" viewBox="0 0.276 29 33.448" fill="#093f68" x="1088" y="718"><svg xmlns="http://www.w3.org/2000/svg" xmlns:xlink="http://www.w3.org/1999/xlink" width="29" height="34" viewBox="0.006 0.259 28.814 33.234"><path paint-order="stroke fill markers" fill-rule="evenodd" d="M14.364 33.492C6.44 33.485.02 27.065.014 19.142v-.997c-.04-3.116-.072-5.57 4.08-6.646a25.33 25.33 0 0 0 8.445-3.714A14.638 14.638 0 0 0 18.032.718a.655.655 0 0 1 1.278.138 11.255 11.255 0 0 0 3.786 7.165l.164.138c.433.36.906.695 1.404 1.05 1.392.997 2.835 2.02 3.596 3.654.656 1.483.591 3.281.512 4.843 0 .498-.052.977-.052 1.437-.007 7.924-6.432 14.346-14.356 14.35zM18.41 3.126a16.711 16.711 0 0 1-5.13 5.754 26.354 26.354 0 0 1-8.878 3.937c-3.156.82-3.136 2.336-3.097 5.36v1.018c0 7.2 5.837 13.038 13.037 13.038 7.201 0 13.038-5.837 13.038-13.038 0-.479 0-.984.053-1.502.078-1.49.157-3.038-.394-4.226-.61-1.312-1.91-2.244-3.169-3.136-.493-.355-1.004-.722-1.47-1.11l-.164-.19a12.655 12.655 0 0 1-3.826-5.905z"/></svg></svg><svg width="3" height="4" xmlns="http://www.w3.org/2000/svg" xmlns:xlink="http://www.w3.org/1999/xlink" xmlns:svgjs="http://svgjs.com/svgjs" viewBox="0 0.5 3 3" fill="#093f68" x="1094" y="734"><svg xmlns="http://www.w3.org/2000/svg" xmlns:xlink="http://www.w3.org/1999/xlink" width="3" height="4" viewBox="0.227 0.958 2.585 2.585"><path paint-order="stroke fill markers" fill-rule="evenodd" d="M1.52 3.543A1.291 1.291 0 0 1 .227 2.25C.227 1.535.805.958 1.52.958a1.292 1.292 0 1 1 0 2.585z"/></svg></svg><svg width="4" height="4" xmlns="http://www.w3.org/2000/svg" xmlns:xlink="http://www.w3.org/1999/xlink" xmlns:svgjs="http://svgjs.com/svgjs" fill="#093f68" x="1107" y="734"><svg xmlns="http://www.w3.org/2000/svg" xmlns:xlink="http://www.w3.org/1999/xlink" width="4" height="4" viewBox="0.593 0.958 2.585 2.585"><path paint-order="stroke fill markers" fill-rule="evenodd" d="M1.886 3.543a1.291 1.291 0 1 1 0-2.585 1.291 1.291 0 1 1 0 2.585z"/></svg></svg><svg width="5" height="6" xmlns="http://www.w3.org/2000/svg" xmlns:xlink="http://www.w3.org/1999/xlink" xmlns:svgjs="http://svgjs.com/svgjs" viewBox="0.277 0 4.447 6" fill="#093f68" x="1100" y="736"><svg xmlns="http://www.w3.org/2000/svg" xmlns:xlink="http://www.w3.org/1999/xlink" width="5" height="6" viewBox="0.339 0.223 3.736 5.041"><path paint-order="stroke fill markers" fill-rule="evenodd" d="M2.192 5.263a8.773 8.773 0 0 1-1.311-.105.655.655 0 0 1 .222-1.292 6.443 6.443 0 0 0 1.628.052 10.625 10.625 0 0 0-1.024-2.736.657.657 0 0 1 1.168-.604C3.459 1.7 4.377 3.715 3.977 4.607a.936.936 0 0 1-.656.538c-.37.086-.749.125-1.129.118z"/></svg></svg><svg width="9" height="3" xmlns="http://www.w3.org/2000/svg" xmlns:xlink="http://www.w3.org/1999/xlink" xmlns:svgjs="http://svgjs.com/svgjs" viewBox="0 0.34 9 2.32" fill="#093f68" x="1090" y="731"><svg xmlns="http://www.w3.org/2000/svg" xmlns:xlink="http://www.w3.org/1999/xlink" width="9" height="3" viewBox="0.678 0.08 8.096 2.087"><path paint-order="stroke fill markers" fill-rule="evenodd" d="M7.731 2.166h-6.01a1.043 1.043 0 0 1 0-2.086h6.01a1.043 1.043 0 0 1 0 2.086z"/></svg></svg><svg width="9" height="3" xmlns="http://www.w3.org/2000/svg" xmlns:xlink="http://www.w3.org/1999/xlink" xmlns:svgjs="http://svgjs.com/svgjs" viewBox="0 0.341 9 2.318" fill="#093f68" x="1105" y="731"><svg xmlns="http://www.w3.org/2000/svg" xmlns:xlink="http://www.w3.org/1999/xlink" width="9" height="3" viewBox="0.631 0.08 8.103 2.087"><path paint-order="stroke fill markers" fill-rule="evenodd" d="M7.691 2.166H1.674a1.043 1.043 0 0 1 0-2.086h6.017a1.044 1.044 0 0 1 0 2.086z"/></svg></svg><svg width="11" height="4" xmlns="http://www.w3.org/2000/svg" xmlns:xlink="http://www.w3.org/1999/xlink" xmlns:svgjs="http://svgjs.com/svgjs" viewBox="0 0.082 11 3.836" fill="#093f68" x="1097" y="742"><svg xmlns="http://www.w3.org/2000/svg" xmlns:xlink="http://www.w3.org/1999/xlink" width="11" height="4" viewBox="0.077 0.017 10.257 3.577"><path paint-order="stroke fill markers" fill-rule="evenodd" d="M5.068 3.594A8.27 8.27 0 0 1 .311 1.888a.655.655 0 0 1 .84-1.004c.177.138 4.278 3.458 8.044-.656a.658.658 0 0 1 .964.892 6.777 6.777 0 0 1-5.09 2.474z"/></svg></svg><svg width="29" height="14" xmlns="http://www.w3.org/2000/svg" xmlns:xlink="http://www.w3.org/1999/xlink" xmlns:svgjs="http://svgjs.com/svgjs" viewBox="0 0.778 29 12.445" fill="#093f68" x="1088" y="784"><svg xmlns="http://www.w3.org/2000/svg" xmlns:xlink="http://www.w3.org/1999/xlink" width="29" height="14" viewBox="0.164 0.995 28.378 12.178"><path paint-order="stroke fill markers" fill-rule="evenodd" d="M.164.995h28.379v12.178H.164V.995z"/></svg></svg><svg width="31" height="14" xmlns="http://www.w3.org/2000/svg" xmlns:xlink="http://www.w3.org/1999/xlink" xmlns:svgjs="http://svgjs.com/svgjs" viewBox="0.091 0 30.819 14" fill="#093f68" x="1087" y="784"><svg xmlns="http://www.w3.org/2000/svg" xmlns:xlink="http://www.w3.org/1999/xlink" width="31" height="14" viewBox="0.501 0.339 29.697 13.49"><path paint-order="stroke fill markers" fill-rule="evenodd" d="M29.543 13.83H1.158a.656.656 0 0 1-.657-.657V.995c0-.362.294-.656.657-.656h28.385c.362 0 .655.294.655.656v12.178a.656.656 0 0 1-.655.656zM1.814 12.516h27.073V1.65H1.814v10.866z"/></svg></svg><svg width="13" height="38" xmlns="http://www.w3.org/2000/svg" xmlns:xlink="http://www.w3.org/1999/xlink" xmlns:svgjs="http://svgjs.com/svgjs" viewBox="0.325 0 12.35 38" fill="#ffc9b0" x="1090" y="786"><svg xmlns="http://www.w3.org/2000/svg" xmlns:xlink="http://www.w3.org/1999/xlink" width="13" height="38" viewBox="0.539 0.176 12.021 36.987"><path paint-order="stroke fill markers" fill-rule="evenodd" d="M3.466 37.163l8.898-.991.196-29.992a6.01 6.01 0 0 0-12.02 0l2.926 30.983z"/></svg></svg><svg width="15" height="39" xmlns="http://www.w3.org/2000/svg" xmlns:xlink="http://www.w3.org/1999/xlink" xmlns:svgjs="http://svgjs.com/svgjs" viewBox="0.752 0 13.497 39" fill="#093f68" x="1089" y="785"><svg xmlns="http://www.w3.org/2000/svg" xmlns:xlink="http://www.w3.org/1999/xlink" width="15" height="39" viewBox="0.892 0.32 13.333 38.525"><path paint-order="stroke fill markers" fill-rule="evenodd" d="M4.466 38.819a.656.656 0 0 1-.656-.59L.897 7.225A6.665 6.665 0 0 1 10.923 1.23a6.665 6.665 0 0 1 3.3 5.929l-.204 30.012a.657.657 0 0 1-.583.656L4.55 38.845l-.085-.026zm3.07-37.007A5.36 5.36 0 0 0 2.184 7.16l2.873 30.281 7.65-.88.192-29.4a5.362 5.362 0 0 0-5.361-5.349z"/></svg></svg><svg width="20" height="42" xmlns="http://www.w3.org/2000/svg" xmlns:xlink="http://www.w3.org/1999/xlink" xmlns:svgjs="http://svgjs.com/svgjs" viewBox="0.388 0 19.223 42" fill="#ffc9b0" x="1102" y="784"><svg xmlns="http://www.w3.org/2000/svg" xmlns:xlink="http://www.w3.org/1999/xlink" width="20" height="42" viewBox="0.587 0.994 18.542 40.511"><path paint-order="stroke fill markers" fill-rule="evenodd" d="M8.926 41.505l10.203-2.165-7.145-34.999a6.018 6.018 0 0 0-8.045-2.73 6.01 6.01 0 0 0-2.73 8.052l7.717 31.842z"/></svg></svg><svg width="21" height="43" xmlns="http://www.w3.org/2000/svg" xmlns:xlink="http://www.w3.org/1999/xlink" xmlns:svgjs="http://svgjs.com/svgjs" viewBox="0.294 0 20.411 43" fill="#093f68" x="1101" y="784"><svg xmlns="http://www.w3.org/2000/svg" xmlns:xlink="http://www.w3.org/1999/xlink" width="21" height="43" viewBox="0.914 0.339 19.852 41.822"><path paint-order="stroke fill markers" fill-rule="evenodd" d="M9.926 42.161a.656.656 0 0 1-.656-.498L1.567 9.886A6.672 6.672 0 0 1 4.63 1.028a6.666 6.666 0 0 1 8.924 3.025c.025.049.043.102.052.157l7.145 34.999a.655.655 0 0 1-.505.774l-10.203 2.165a.483.483 0 0 1-.118.013zM7.59 1.645A5.36 5.36 0 0 0 2.8 9.367a.58.58 0 0 1 .047.138l7.564 31.226 8.944-1.903L12.36 4.551a5.32 5.32 0 0 0-3.044-2.624 5.381 5.381 0 0 0-1.726-.282z"/></svg></svg><svg width="3" height="3" xmlns="http://www.w3.org/2000/svg" xmlns:xlink="http://www.w3.org/1999/xlink" xmlns:svgjs="http://svgjs.com/svgjs" fill="#fff" x="1084" y="740"><svg xmlns="http://www.w3.org/2000/svg" xmlns:xlink="http://www.w3.org/1999/xlink" width="3" height="3" viewBox="0.45 0.108 2.519 2.52"><path paint-order="stroke fill markers" fill-rule="evenodd" d="M1.71 2.628A1.26 1.26 0 1 1 1.709.11a1.26 1.26 0 0 1 .003 2.518z"/></svg></svg><svg width="5" height="5" xmlns="http://www.w3.org/2000/svg" xmlns:xlink="http://www.w3.org/1999/xlink" xmlns:svgjs="http://svgjs.com/svgjs" viewBox="0 0 5 4.999" fill="#093f68" x="1083" y="739"><svg xmlns="http://www.w3.org/2000/svg" xmlns:xlink="http://www.w3.org/1999/xlink" width="5" height="5" viewBox="0.787 0.446 3.845 3.845"><path paint-order="stroke fill markers" fill-rule="evenodd" d="M2.71 4.29a1.923 1.923 0 1 1 0-3.845 1.923 1.923 0 0 1 0 3.846zm0-2.526a.61.61 0 1 0 .126 1.214.61.61 0 0 0-.125-1.214z"/></svg></svg><svg width="3" height="3" xmlns="http://www.w3.org/2000/svg" xmlns:xlink="http://www.w3.org/1999/xlink" xmlns:svgjs="http://svgjs.com/svgjs" fill="#fff" x="1117" y="740"><svg xmlns="http://www.w3.org/2000/svg" xmlns:xlink="http://www.w3.org/1999/xlink" width="3" height="3" viewBox="0.231 0.108 2.519 2.52"><path paint-order="stroke fill markers" fill-rule="evenodd" d="M1.491 2.628A1.26 1.26 0 1 1 1.49.11a1.26 1.26 0 0 1 .002 2.518z"/></svg></svg><svg width="5" height="5" xmlns="http://www.w3.org/2000/svg" xmlns:xlink="http://www.w3.org/1999/xlink" xmlns:svgjs="http://svgjs.com/svgjs" viewBox="0 0 4.999 5" fill="#093f68" x="1116" y="739"><svg xmlns="http://www.w3.org/2000/svg" xmlns:xlink="http://www.w3.org/1999/xlink" width="5" height="5" viewBox="0.569 0.446 3.844 3.845"><path paint-order="stroke fill markers" fill-rule="evenodd" d="M2.491 4.29a1.922 1.922 0 1 1 0-3.843 1.922 1.922 0 0 1 0 3.844zm0-2.526a.61.61 0 1 0 .127 1.214.61.61 0 0 0-.127-1.214z"/></svg></svg><svg width="3" height="4" xmlns="http://www.w3.org/2000/svg" xmlns:xlink="http://www.w3.org/1999/xlink" xmlns:svgjs="http://svgjs.com/svgjs" viewBox="0 0.5 3 3" fill="#fff" x="1098" y="754"><svg xmlns="http://www.w3.org/2000/svg" xmlns:xlink="http://www.w3.org/1999/xlink" width="3" height="4" viewBox="0.532 0.629 2.401 2.401"><path paint-order="stroke fill markers" fill-rule="evenodd" d="M1.732 3.03a1.2 1.2 0 1 1 0-2.401 1.2 1.2 0 1 1 0 2.401z"/></svg></svg><svg width="5" height="5" xmlns="http://www.w3.org/2000/svg" xmlns:xlink="http://www.w3.org/1999/xlink" xmlns:svgjs="http://svgjs.com/svgjs" fill="#093f68" x="1097" y="753"><svg xmlns="http://www.w3.org/2000/svg" xmlns:xlink="http://www.w3.org/1999/xlink" width="5" height="5" viewBox="0.882 0.973 3.714 3.714"><path paint-order="stroke fill markers" fill-rule="evenodd" d="M2.739 4.686a1.857 1.857 0 1 1 0-3.713 1.857 1.857 0 0 1 0 3.713zm0-2.401a.545.545 0 1 0 0 1.09.545.545 0 0 0 0-1.09z"/></svg></svg><svg width="4" height="4" xmlns="http://www.w3.org/2000/svg" xmlns:xlink="http://www.w3.org/1999/xlink" xmlns:svgjs="http://svgjs.com/svgjs" fill="#fff" x="1103" y="754"><svg xmlns="http://www.w3.org/2000/svg" xmlns:xlink="http://www.w3.org/1999/xlink" width="4" height="4" viewBox="0.715 0.629 2.401 2.401"><path paint-order="stroke fill markers" fill-rule="evenodd" d="M1.916 3.03a1.2 1.2 0 0 1-1.2-1.2 1.2 1.2 0 1 1 1.2 1.2z"/></svg></svg><svg width="4" height="5" xmlns="http://www.w3.org/2000/svg" xmlns:xlink="http://www.w3.org/1999/xlink" xmlns:svgjs="http://svgjs.com/svgjs" viewBox="0 0.5 4 4" fill="#093f68" x="1103" y="753"><svg xmlns="http://www.w3.org/2000/svg" xmlns:xlink="http://www.w3.org/1999/xlink" width="4" height="5" viewBox="0.059 0.973 3.714 3.714"><path paint-order="stroke fill markers" fill-rule="evenodd" d="M1.916 4.686a1.857 1.857 0 1 1 0-3.714 1.857 1.857 0 0 1 0 3.714zm0-2.401a.545.545 0 1 0 0 1.09.545.545 0 0 0 0-1.09z"/></svg></svg><svg width="3" height="3" xmlns="http://www.w3.org/2000/svg" xmlns:xlink="http://www.w3.org/1999/xlink" xmlns:svgjs="http://svgjs.com/svgjs" fill="#fff" x="1096" y="752"><svg xmlns="http://www.w3.org/2000/svg" xmlns:xlink="http://www.w3.org/1999/xlink" width="3" height="3" viewBox="0.55 0.299 2.401 2.401"><path paint-order="stroke fill markers" fill-rule="evenodd" d="M1.75 2.7a1.2 1.2 0 1 1 0-2.4 1.2 1.2 0 1 1 0 2.4z"/></svg></svg><svg width="5" height="5" xmlns="http://www.w3.org/2000/svg" xmlns:xlink="http://www.w3.org/1999/xlink" xmlns:svgjs="http://svgjs.com/svgjs" fill="#093f68" x="1095" y="751"><svg xmlns="http://www.w3.org/2000/svg" xmlns:xlink="http://www.w3.org/1999/xlink" width="5" height="5" viewBox="0.9 0.63 3.727 3.727"><path paint-order="stroke fill markers" fill-rule="evenodd" d="M2.77 4.357A1.863 1.863 0 1 1 2.757.631a1.863 1.863 0 0 1 .013 3.726zm0-2.408a.558.558 0 0 0-.55.551c.003.302.248.545.55.545.301 0 .545-.244.545-.545a.552.552 0 0 0-.545-.551z"/></svg></svg><svg width="3" height="3" xmlns="http://www.w3.org/2000/svg" xmlns:xlink="http://www.w3.org/1999/xlink" xmlns:svgjs="http://svgjs.com/svgjs" fill="#fff" x="1105" y="752"><svg xmlns="http://www.w3.org/2000/svg" xmlns:xlink="http://www.w3.org/1999/xlink" width="3" height="3" viewBox="0.257 0.299 2.401 2.401"><path paint-order="stroke fill markers" fill-rule="evenodd" d="M1.457 2.7a1.2 1.2 0 1 1 0-2.4 1.2 1.2 0 1 1 0 2.4z"/></svg></svg><svg width="5" height="5" xmlns="http://www.w3.org/2000/svg" xmlns:xlink="http://www.w3.org/1999/xlink" xmlns:svgjs="http://svgjs.com/svgjs" viewBox="0 0 5 4.999" fill="#093f68" x="1104" y="751"><svg xmlns="http://www.w3.org/2000/svg" xmlns:xlink="http://www.w3.org/1999/xlink" width="5" height="5" viewBox="0.587 0.63 3.727 3.727"><path paint-order="stroke fill markers" fill-rule="evenodd" d="M2.457 4.357A1.864 1.864 0 1 1 4.315 2.5a1.857 1.857 0 0 1-1.858 1.857zm0-2.408a.552.552 0 0 0-.544.551.545.545 0 0 0 1.09 0 .552.552 0 0 0-.546-.551z"/></svg></svg><svg width="3" height="3" xmlns="http://www.w3.org/2000/svg" xmlns:xlink="http://www.w3.org/1999/xlink" xmlns:svgjs="http://svgjs.com/svgjs" fill="#fff" x="1101" y="756"><svg xmlns="http://www.w3.org/2000/svg" xmlns:xlink="http://www.w3.org/1999/xlink" width="3" height="3" viewBox="0.005 0.341 2.401 2.402"><path paint-order="stroke fill markers" fill-rule="evenodd" d="M1.206 2.743a1.2 1.2 0 1 1 0-2.402 1.2 1.2 0 1 1 0 2.402z"/></svg></svg><svg width="5" height="5" xmlns="http://www.w3.org/2000/svg" xmlns:xlink="http://www.w3.org/1999/xlink" xmlns:svgjs="http://svgjs.com/svgjs" viewBox="0.001 0 4.999 5" fill="#093f68" x="1100" y="755"><svg xmlns="http://www.w3.org/2000/svg" xmlns:xlink="http://www.w3.org/1999/xlink" width="5" height="5" viewBox="0.349 0.685 3.713 3.714"><path paint-order="stroke fill markers" fill-rule="evenodd" d="M2.206 4.399a1.857 1.857 0 1 1 1.856-1.857 1.863 1.863 0 0 1-1.856 1.857zm0-2.402a.545.545 0 1 0 0 1.09.545.545 0 0 0 0-1.09z"/></svg></svg><svg width="16" height="38" xmlns="http://www.w3.org/2000/svg" xmlns:xlink="http://www.w3.org/1999/xlink" xmlns:svgjs="http://svgjs.com/svgjs" viewBox="0 0.374 16 37.251" fill="#ffc9b0" x="1119" y="733"><svg xmlns="http://www.w3.org/2000/svg" xmlns:xlink="http://www.w3.org/1999/xlink" width="16" height="38" viewBox="0.158 0.533 15.721 36.602"><path paint-order="stroke fill markers" fill-rule="evenodd" d="M15.868 9.123c-.249-1.562-2.742-2.52-2.742-2.52s1.246-4.37 1.312-4.954c.066-.584.164-1.41-1.312-1.01-1.477.4-3.064 5.426-3.064 5.426s-.748-.269-2.428.538 0 4.455 0 4.455L.232 31.898a4.434 4.434 0 0 0 8.72 1.607l3.117-18.372s4.049-4.416 3.8-6.01z"/></svg></svg><svg width="18" height="39" xmlns="http://www.w3.org/2000/svg" xmlns:xlink="http://www.w3.org/1999/xlink" xmlns:svgjs="http://svgjs.com/svgjs" viewBox="0.231 0 17.538 39" fill="#093f68" x="1118" y="732"><svg xmlns="http://www.w3.org/2000/svg" xmlns:xlink="http://www.w3.org/1999/xlink" width="18" height="39" viewBox="0.501 0.873 17.053 37.923"><path paint-order="stroke fill markers" fill-rule="evenodd" d="M5.583 38.796a5.086 5.086 0 0 1-5-5.99V32.7l7.343-20.609c-.408-.977-1.543-4.134.42-5.072a5.647 5.647 0 0 1 2.25-.656c.545-1.614 1.837-4.954 3.366-5.36a1.969 1.969 0 0 1 1.778.19c.379.417.517.999.368 1.541-.073.506-.833 3.209-1.195 4.495.853.42 2.375 1.358 2.625 2.789.268 1.673-2.717 5.15-3.845 6.39L10.61 34.585a5.099 5.099 0 0 1-5.026 4.212zM1.87 33.088A3.77 3.77 0 1 0 9.297 34.4l3.116-18.372a.658.658 0 0 1 .157-.335c1.864-2.027 3.774-4.698 3.656-5.446-.158-.964-1.772-1.797-2.33-2.014a.656.656 0 0 1-.394-.787c.48-1.674 1.253-4.475 1.313-4.869a2.54 2.54 0 0 0 0-.367 2.051 2.051 0 0 0-.538.085c-.657.184-1.903 2.723-2.625 4.987a.653.653 0 0 1-.846.42h-.131c-.628.04-1.24.216-1.792.518-.78.374-.184 2.52.309 3.589a.656.656 0 0 1 0 .499L1.87 33.088z"/></svg></svg><svg width="4" height="6" xmlns="http://www.w3.org/2000/svg" xmlns:xlink="http://www.w3.org/1999/xlink" xmlns:svgjs="http://svgjs.com/svgjs" viewBox="0.193 0 3.615 6" fill="#ffc9b0" x="1128" y="739"><svg xmlns="http://www.w3.org/2000/svg" xmlns:xlink="http://www.w3.org/1999/xlink" width="4" height="6" viewBox="0.294 0.091 3.087 5.124"><path paint-order="stroke fill markers" fill-rule="evenodd" d="M1.062.091s3.399 2.73 1.968 3.28C1.6 3.924.294 2.205.294 2.205s1.916 2.02.748 3.012L1.062.09"/></svg></svg><svg width="6" height="7" xmlns="http://www.w3.org/2000/svg" xmlns:xlink="http://www.w3.org/1999/xlink" xmlns:svgjs="http://svgjs.com/svgjs" viewBox="0.617 0 4.765 7" fill="#093f68" x="1127" y="738"><svg xmlns="http://www.w3.org/2000/svg" xmlns:xlink="http://www.w3.org/1999/xlink" width="6" height="7" viewBox="0.655 0.448 4.391 6.45"><path paint-order="stroke fill markers" fill-rule="evenodd" d="M2.062 6.898a.656.656 0 0 1-.427-1.155.366.366 0 0 0 .145-.288 2.937 2.937 0 0 0-.742-1.542c-.144-.158-.23-.27-.249-.282a.656.656 0 0 1 .997-.853s.118.124.23.255c.328.342 1.03.972 1.693.788a8.342 8.342 0 0 0-2.06-2.218.657.657 0 0 1 .82-1.023c.833.656 2.742 2.342 2.565 3.53-.061.41-.344.753-.735.892a2.17 2.17 0 0 1-1.22.138c.01.126.01.254 0 .38-.02.477-.242.923-.61 1.227a.654.654 0 0 1-.407.151zm1.673-2.96z"/></svg></svg><svg width="34" height="19" xmlns="http://www.w3.org/2000/svg" xmlns:xlink="http://www.w3.org/1999/xlink" xmlns:svgjs="http://svgjs.com/svgjs" viewBox="0 0.474 34 18.052" fill="#ffc9b0" x="1076" y="770"><svg xmlns="http://www.w3.org/2000/svg" xmlns:xlink="http://www.w3.org/1999/xlink" width="34" height="19" viewBox="0.091 0.16 33.621 17.851"><path paint-order="stroke fill markers" fill-rule="evenodd" d="M32.499 13.893c-1.149-1.903-5.388-2.585-5.388-2.585L5.753.337A4.42 4.42 0 0 0 .268 3.348a4.43 4.43 0 0 0 3.006 5.486l21.121 7.047a41.89 41.89 0 0 0 4.848.997c1.011 0 2.81 1.41 3.892 1.083 1.083-.328.511-2.159-.636-4.068z"/></svg></svg><svg width="36" height="20" xmlns="http://www.w3.org/2000/svg" xmlns:xlink="http://www.w3.org/1999/xlink" xmlns:svgjs="http://svgjs.com/svgjs" viewBox="0 0.115 36 19.77" fill="#093f68" x="1075" y="769"><svg xmlns="http://www.w3.org/2000/svg" xmlns:xlink="http://www.w3.org/1999/xlink" width="36" height="20" viewBox="0.418 0.473 34.955 19.196"><path paint-order="stroke fill markers" fill-rule="evenodd" d="M33.774 19.67a5.967 5.967 0 0 1-2.198-.657 4.686 4.686 0 0 0-1.312-.472 39.002 39.002 0 0 1-5-1.017L4.07 10.438A5.085 5.085 0 0 1 6.937.68l.112.046L28.321 11.67c.794.138 4.534.886 5.735 2.88 1.135 1.884 1.541 3.281 1.2 4.18a1.38 1.38 0 0 1-.918.847c-.182.06-.373.09-.564.091zM5.514 1.795a3.772 3.772 0 0 0-1.056 7.415l21.16 7.073a36.92 36.92 0 0 0 4.646.964 5.247 5.247 0 0 1 1.85.584c.656.289 1.45.656 1.837.525.059 0 .066-.033.078-.065.106-.276 0-1.22-1.095-3.032-.814-1.352-3.832-2.106-4.928-2.277a.778.778 0 0 1-.197-.065L6.511 1.96c-.324-.1-.66-.154-.997-.164z"/></svg></svg><svg width="22" height="15" xmlns="http://www.w3.org/2000/svg" xmlns:xlink="http://www.w3.org/1999/xlink" xmlns:svgjs="http://svgjs.com/svgjs" viewBox="0 0.622 22 13.756" fill="#68e1fd" x="1109" y="817"><svg xmlns="http://www.w3.org/2000/svg" xmlns:xlink="http://www.w3.org/1999/xlink" width="22" height="15" viewBox="0.154 0.756 21.398 13.38"><path paint-order="stroke fill markers" fill-rule="evenodd" d="M.154 1.485s1.85 1.85 5.4 1.358A11.38 11.38 0 0 0 10.989.756S24.26 13.754 21.052 14.09c-3.208.335-9.638-1.102-13.463-4.396 0 0-.414 2.867-2.087 3.176-1.405.255-2.966-1.103-2.966-1.103S.634 3.48.154 1.485z"/></svg></svg><svg width="24" height="15" xmlns="http://www.w3.org/2000/svg" xmlns:xlink="http://www.w3.org/1999/xlink" xmlns:svgjs="http://svgjs.com/svgjs" viewBox="0.429 0 23.142 15" fill="#093f68" x="1108" y="817"><svg xmlns="http://www.w3.org/2000/svg" xmlns:xlink="http://www.w3.org/1999/xlink" width="24" height="15" viewBox="0.493 0.072 22.699 14.713"><path paint-order="stroke fill markers" fill-rule="evenodd" d="M21.095 14.785a22.562 22.562 0 0 1-12.106-3.937c-.322 1.017-.998 2.414-2.369 2.664-1.666.308-3.327-1.09-3.51-1.247a.656.656 0 0 1-.21-.348C2.9 11.832.99 3.61.511 1.642A.656.656 0 0 1 .833.914a.655.655 0 0 1 .78.105c.066.065 1.7 1.614 4.85 1.174A10.957 10.957 0 0 0 11.566.225a.656.656 0 0 1 .88.033c3.47 3.398 11.45 11.535 10.695 13.706a1.142 1.142 0 0 1-1.024.748 9.81 9.81 0 0 1-1.023.073zM8.589 9.037c.156 0 .307.056.426.157 3.68 3.196 9.901 4.508 12.906 4.245-.203-1.443-5.157-7.073-9.973-11.81a12.89 12.89 0 0 1-5.25 1.883 7.95 7.95 0 0 1-4.48-.584c.655 2.736 1.719 7.428 1.968 8.49.472.368 1.47.972 2.257.827.984-.183 1.463-2 1.555-2.624a.656.656 0 0 1 .42-.525.648.648 0 0 1 .17-.06z"/></svg></svg><svg width="5" height="4" xmlns="http://www.w3.org/2000/svg" xmlns:xlink="http://www.w3.org/1999/xlink" xmlns:svgjs="http://svgjs.com/svgjs" viewBox="0 0.557 5 2.885" fill="#093f68" x="1113" y="765"><svg xmlns="http://www.w3.org/2000/svg" xmlns:xlink="http://www.w3.org/1999/xlink" width="5" height="4" viewBox="0.095 0.773 4.066 2.346"><path paint-order="stroke fill markers" fill-rule="evenodd" d="M3.523 3.12a.548.548 0 0 1-.23-.04L.557 2.056A.657.657 0 0 1 .344.916a.656.656 0 0 1 .672-.087l2.73 1.017a.656.656 0 0 1-.223 1.266v.007z"/></svg></svg><svg width="11" height="17" xmlns="http://www.w3.org/2000/svg" xmlns:xlink="http://www.w3.org/1999/xlink" xmlns:svgjs="http://svgjs.com/svgjs" viewBox="0.089 0 10.822 17" fill="#68e1fd" x="1093" y="818"><svg xmlns="http://www.w3.org/2000/svg" xmlns:xlink="http://www.w3.org/1999/xlink" width="11" height="17" viewBox="0.138 0.485 9.921 15.584"><path paint-order="stroke fill markers" fill-rule="evenodd" d="M.138 1.712s.695 7.092 1.529 8.66c.833 1.569 2.218 6.28 5.25 5.637 3.03-.643 3.142-4.993 3.142-6.929S9.069.485 9.069.485 6.6 3.765 4.402 3.916C2.205 4.067.138 1.712.138 1.712z"/></svg></svg><svg width="12" height="18" xmlns="http://www.w3.org/2000/svg" xmlns:xlink="http://www.w3.org/1999/xlink" xmlns:svgjs="http://svgjs.com/svgjs" viewBox="0.01 0 11.981 18" fill="#093f68" x="1092" y="817"><svg xmlns="http://www.w3.org/2000/svg" width="12" height="18" viewBox="0.478 0.823 11.249 16.901"><path paint-order="stroke fill markers" fill-rule="evenodd" d="M7.345 17.724c-2.579 0-3.937-3.123-4.803-5.052-.17-.394-.322-.735-.46-.991-.865-1.64-1.528-8.169-1.6-8.904a.655.655 0 0 1 1.148-.499s1.903 2.133 3.734 1.969c1.56-.125 3.556-2.33 4.2-3.17a.655.655 0 0 1 1.167.303c.04.269.997 6.718.997 8.687 0 1.68 0 6.791-3.661 7.572-.237.053-.48.082-.722.085zM1.978 4.34c.315 2.664.807 5.853 1.267 6.725.15.282.314.656.497 1.076 1.038 2.356 2.199 4.593 4.049 4.226 2.349-.499 2.625-3.826 2.625-6.286 0-1.312-.493-5.013-.775-7.073-.99 1.043-2.585 2.434-4.173 2.559a5.321 5.321 0 0 1-3.49-1.227z"/></svg></svg></svg></svg>