<svg width="126" height="126" xmlns="http://www.w3.org/2000/svg" xmlns:xlink="http://www.w3.org/1999/xlink" xmlns:svgjs="http://svgjs.com/svgjs" viewBox="753 710 126 126"><svg width="43" height="28" xmlns="http://www.w3.org/2000/svg" xmlns:xlink="http://www.w3.org/1999/xlink" xmlns:svgjs="http://svgjs.com/svgjs" viewBox="0.667 0 41.665 28" fill="#f56132" x="758" y="758"><svg xmlns="http://www.w3.org/2000/svg" xmlns:xlink="http://www.w3.org/1999/xlink" width="43" height="28" viewBox="0.766 0.055 41.389 27.814"><path paint-order="stroke fill markers" fill-rule="evenodd" d="M9.338.055h24.247a8.571 8.571 0 0 1 8.57 8.572v19.242H.767V8.627A8.572 8.572 0 0 1 9.338.055z"/></svg></svg><svg width="43" height="30" xmlns="http://www.w3.org/2000/svg" xmlns:xlink="http://www.w3.org/1999/xlink" xmlns:svgjs="http://svgjs.com/svgjs" viewBox="0 0.326 43 29.348" fill="#093f68" x="758" y="757"><svg xmlns="http://www.w3.org/2000/svg" xmlns:xlink="http://www.w3.org/1999/xlink" width="43" height="30" viewBox="0.089 0.378 42.737 29.169"><path paint-order="stroke fill markers" fill-rule="evenodd" d="M42.15 29.546H.765a.677.677 0 0 1-.677-.677V9.627A9.262 9.262 0 0 1 9.34.377l24.246.001a9.255 9.255 0 0 1 9.241 9.249v19.242a.677.677 0 0 1-.677.677zM1.443 28.192h40.028V9.627a7.901 7.901 0 0 0-7.887-7.895H9.338a7.901 7.901 0 0 0-7.894 7.895v18.565z"/></svg></svg><svg width="41" height="33" xmlns="http://www.w3.org/2000/svg" xmlns:xlink="http://www.w3.org/1999/xlink" xmlns:svgjs="http://svgjs.com/svgjs" viewBox="0 0.107 41 32.786" fill="#68e1fd" x="766" y="764"><svg xmlns="http://www.w3.org/2000/svg" xmlns:xlink="http://www.w3.org/1999/xlink" width="41" height="33" viewBox="0.776 0.954 39.541 31.619"><path paint-order="stroke fill markers" fill-rule="evenodd" d="M6.667.954h27.76a5.89 5.89 0 0 1 5.89 5.89v25.73H.776V6.844a5.89 5.89 0 0 1 5.89-5.89z"/></svg></svg><svg width="42" height="34" xmlns="http://www.w3.org/2000/svg" xmlns:xlink="http://www.w3.org/1999/xlink" xmlns:svgjs="http://svgjs.com/svgjs" viewBox="0 0.071 42 33.858" fill="#093f68" x="766" y="764"><svg xmlns="http://www.w3.org/2000/svg" xmlns:xlink="http://www.w3.org/1999/xlink" width="42" height="34" viewBox="0.113 0.291 40.895 32.967"><path paint-order="stroke fill markers" fill-rule="evenodd" d="M40.33 33.258H.79a.677.677 0 0 1-.677-.677V6.85A6.574 6.574 0 0 1 6.68.292h27.76a6.574 6.574 0 0 1 6.568 6.56v25.73a.677.677 0 0 1-.678.677zM1.467 31.904h38.186V6.852a5.213 5.213 0 0 0-5.213-5.207H6.667a5.214 5.214 0 0 0-5.214 5.207l.014 25.052z"/></svg></svg><svg width="15" height="28" xmlns="http://www.w3.org/2000/svg" xmlns:xlink="http://www.w3.org/1999/xlink" xmlns:svgjs="http://svgjs.com/svgjs" viewBox="0.024 0 14.952 28" fill="#fff" x="779" y="764"><svg xmlns="http://www.w3.org/2000/svg" xmlns:xlink="http://www.w3.org/1999/xlink" width="15" height="28" viewBox="0.457 0.954 14.307 26.792"><path paint-order="stroke fill markers" fill-rule="evenodd" d="M14.764.954L7.69 27.746.457.954h14.307z"/></svg></svg><svg width="17" height="29" xmlns="http://www.w3.org/2000/svg" xmlns:xlink="http://www.w3.org/1999/xlink" xmlns:svgjs="http://svgjs.com/svgjs" viewBox="0.432 0 16.136 29" fill="#093f68" x="778" y="764"><svg xmlns="http://www.w3.org/2000/svg" xmlns:xlink="http://www.w3.org/1999/xlink" width="17" height="29" viewBox="0.757 0.277 15.661 28.146"><path paint-order="stroke fill markers" fill-rule="evenodd" d="M8.69 28.423a.677.677 0 0 1-.678-.5L.78 1.13a.678.678 0 0 1 .65-.853h14.307a.677.677 0 0 1 .657.853L9.32 27.915a.677.677 0 0 1-.678.508h.048zM2.344 1.632l6.337 23.487 6.202-23.487H2.344z"/></svg></svg><svg width="6" height="7" xmlns="http://www.w3.org/2000/svg" xmlns:xlink="http://www.w3.org/1999/xlink" xmlns:svgjs="http://svgjs.com/svgjs" viewBox="0 0.5 6 6" fill="#ffc9b0" x="784" y="762"><svg xmlns="http://www.w3.org/2000/svg" xmlns:xlink="http://www.w3.org/1999/xlink" width="6" height="7" viewBox="0.177 0.849 5.532 5.532"><path paint-order="stroke fill markers" fill-rule="evenodd" d="M.177.849h5.531V4.03a2.35 2.35 0 0 1-2.349 2.35h-.813A2.35 2.35 0 0 1 .197 4.03V.849h-.02z"/></svg></svg><svg width="8" height="8" xmlns="http://www.w3.org/2000/svg" xmlns:xlink="http://www.w3.org/1999/xlink" xmlns:svgjs="http://svgjs.com/svgjs" viewBox="0.012 0 7.976 8" fill="#093f68" x="783" y="762"><svg xmlns="http://www.w3.org/2000/svg" xmlns:xlink="http://www.w3.org/1999/xlink" width="8" height="8" viewBox="0.52 0.172 6.886 6.906"><path paint-order="stroke fill markers" fill-rule="evenodd" d="M4.38 7.078h-.834A3.033 3.033 0 0 1 .52 4.05V.85c0-.374.304-.677.677-.677H6.73c.373 0 .677.303.677.677v3.189a3.027 3.027 0 0 1-3.026 3.04zM1.854 1.526v2.512a1.677 1.677 0 0 0 1.692 1.686h.834A1.679 1.679 0 0 0 6.052 4.05V1.526H1.854z"/></svg></svg><svg width="46" height="39" xmlns="http://www.w3.org/2000/svg" xmlns:xlink="http://www.w3.org/1999/xlink" xmlns:svgjs="http://svgjs.com/svgjs" viewBox="0 0.058 46 38.884" fill="#725858" x="764" y="710"><svg xmlns="http://www.w3.org/2000/svg" xmlns:xlink="http://www.w3.org/1999/xlink" width="46" height="39" viewBox="0.355 0.704 44.866 37.925"><path paint-order="stroke fill markers" fill-rule="evenodd" d="M3.866 37.5c-2.572-.969-2.41-2.932-2.803-5.417a65.233 65.233 0 0 1-.677-7.53c-.101-2.863 0-5.809 1.09-8.463 1.395-3.385 4.157-5.626 7.847-5.321C9.215 5.73 12.235 1.005 17.591.72c8.57-.454 13.5 8.754 18.28 8.064 4.78-.69 6.094-2.817 6.094-2.817a8.801 8.801 0 0 1-1.023 9.71s3.78-1.104 4.233 3.926C45.628 24.634 42.622 38 42.622 38l-3.426-.595c-1.442-.258-3.243.094-4.692.142l-10.719.338c-5.39.129-14.083 1.828-19.919-.386z"/></svg></svg><svg width="47" height="40" xmlns="http://www.w3.org/2000/svg" xmlns:xlink="http://www.w3.org/1999/xlink" xmlns:svgjs="http://svgjs.com/svgjs" viewBox="0 0.01 47 39.981" fill="#093f68" x="763" y="710"><svg xmlns="http://www.w3.org/2000/svg" xmlns:xlink="http://www.w3.org/1999/xlink" width="47" height="40" viewBox="0.654 0 46.213 39.312"><path paint-order="stroke fill markers" fill-rule="evenodd" d="M12.599 39.3a23.02 23.02 0 0 1-7.977-1.164c-2.58-.975-2.823-2.912-3.087-4.956-.04-.332-.08-.677-.136-1.03a63.83 63.83 0 0 1-.717-7.603c-.095-2.708 0-5.87 1.144-8.741 1.483-3.65 4.367-5.762 7.8-5.769.176-4.868 3.19-9.716 8.897-10.02 5.038-.265 8.917 2.66 12.025 5.017 2.356 1.78 4.394 3.317 6.229 3.053 4.353-.616 5.585-2.478 5.592-2.498a.678.678 0 0 1 1.151 0 9.622 9.622 0 0 1-.257 9.296c.583.066 1.14.273 1.625.603 1.104.751 1.754 2.099 1.93 4.015.46 5.078-2.445 18.057-2.566 18.606a.677.677 0 0 1-.779.521l-3.432-.603c-1-.11-2.01-.096-3.007.041-.541.054-1.049.102-1.543.115l-10.719.339c-1.354.04-2.905.176-4.563.325-2.356.216-5.004.453-7.61.453zM9.667 11.385c-2.905 0-5.274 1.767-6.561 4.922-1.077 2.64-1.13 5.62-1.043 8.186.08 2.493.306 4.98.677 7.448.061.365.102.717.15 1.056.25 1.984.399 3.175 2.22 3.866 4.219 1.598 10.196 1.063 15.004.636 1.679-.149 3.264-.29 4.638-.331l10.718-.339c.454 0 .941-.06 1.463-.108a13.348 13.348 0 0 1 3.385 0l2.79.487c.582-2.708 2.789-13.298 2.403-17.556-.135-1.483-.582-2.499-1.354-3.013a2.708 2.708 0 0 0-2.032-.325.676.676 0 0 1-.71-1.077 8.016 8.016 0 0 0 1.354-8.077c-.887.765-2.634 1.835-5.79 2.281-2.396.346-4.637-1.354-7.23-3.31C26.66 3.788 23.18 1.147 18.61 1.39c-5.132.27-7.718 4.916-7.623 9.357.001.19-.077.372-.216.501a.679.679 0 0 1-.515.183l-.59-.047z"/></svg></svg><svg width="12" height="11" xmlns="http://www.w3.org/2000/svg" xmlns:xlink="http://www.w3.org/1999/xlink" xmlns:svgjs="http://svgjs.com/svgjs" viewBox="0 0.331 12 10.338" fill="#ffc9b0" x="765" y="743"><svg xmlns="http://www.w3.org/2000/svg" xmlns:xlink="http://www.w3.org/1999/xlink" width="12" height="11" viewBox="0.781 0.85 10.752 9.262"><path paint-order="stroke fill markers" fill-rule="evenodd" d="M6.157 10.112c-2.973 0-5.376-2.07-5.376-4.63C.78 2.92 3.184.85 6.157.85c2.973 0 5.375 2.07 5.375 4.631 0 2.561-2.402 4.631-5.375 4.631z"/></svg></svg><svg width="13" height="11" xmlns="http://www.w3.org/2000/svg" xmlns:xlink="http://www.w3.org/1999/xlink" xmlns:svgjs="http://svgjs.com/svgjs" viewBox="0.232 0 12.536 11" fill="#093f68" x="765" y="743"><svg xmlns="http://www.w3.org/2000/svg" xmlns:xlink="http://www.w3.org/1999/xlink" width="13" height="11" viewBox="0.104 0.173 12.1 10.617"><path paint-order="stroke fill markers" fill-rule="evenodd" d="M6.157 10.79C2.82 10.79.104 8.405.104 5.48.104 2.556 2.812.173 6.157.173c3.345 0 6.046 2.383 6.046 5.308S9.488 10.79 6.157 10.79zm0-9.263c-2.593 0-4.699 1.774-4.699 3.954s2.106 3.954 4.7 3.954c2.592 0 4.691-1.774 4.691-3.954S8.743 1.527 6.157 1.527z"/></svg></svg><svg width="11" height="11" xmlns="http://www.w3.org/2000/svg" xmlns:xlink="http://www.w3.org/1999/xlink" xmlns:svgjs="http://svgjs.com/svgjs" viewBox="0 0.762 11 9.476" fill="#ffc9b0" x="797" y="743"><svg xmlns="http://www.w3.org/2000/svg" xmlns:xlink="http://www.w3.org/1999/xlink" width="11" height="11" viewBox="0.109 0.85 10.752 9.262"><path paint-order="stroke fill markers" fill-rule="evenodd" d="M5.485 10.112c-2.973 0-5.376-2.07-5.376-4.63C.109 2.92 2.512.85 5.485.85c2.973 0 5.376 2.07 5.376 4.631 0 2.561-2.403 4.631-5.376 4.631z"/></svg></svg><svg width="13" height="11" xmlns="http://www.w3.org/2000/svg" xmlns:xlink="http://www.w3.org/1999/xlink" xmlns:svgjs="http://svgjs.com/svgjs" viewBox="0.232 0 12.536 11" fill="#093f68" x="796" y="743"><svg xmlns="http://www.w3.org/2000/svg" xmlns:xlink="http://www.w3.org/1999/xlink" width="13" height="11" viewBox="0.411 0.173 12.1 10.617"><path paint-order="stroke fill markers" fill-rule="evenodd" d="M6.458 10.79C3.127 10.79.41 8.405.41 5.48.411 2.556 3.12.173 6.458.173c3.338 0 6.053 2.383 6.053 5.308S9.843 10.79 6.458 10.79zm0-9.263c-2.586 0-4.692 1.774-4.692 3.954s2.106 3.954 4.692 3.954c2.587 0 4.699-1.774 4.699-3.954s-2.079-3.954-4.7-3.954z"/></svg></svg><svg width="34" height="36" xmlns="http://www.w3.org/2000/svg" xmlns:xlink="http://www.w3.org/1999/xlink" xmlns:svgjs="http://svgjs.com/svgjs" viewBox="0.318 0 33.365 36" fill="#ffc9b0" x="770" y="728"><svg xmlns="http://www.w3.org/2000/svg" xmlns:xlink="http://www.w3.org/1999/xlink" width="34" height="36" viewBox="0.757 0.623 32.398 34.957"><path paint-order="stroke fill markers" fill-rule="evenodd" d="M16.966 35.58c-8.952 0-16.21-7.257-16.21-16.21V7.597c.942 1.558 4.064.941 8.701-6.973C26.73 9.37 33.155 4.36 33.155 4.36v15.01c0 8.945-7.244 16.199-16.189 16.21z"/></svg></svg><svg width="34" height="38" xmlns="http://www.w3.org/2000/svg" xmlns:xlink="http://www.w3.org/1999/xlink" xmlns:svgjs="http://svgjs.com/svgjs" viewBox="0 0.736 34 36.527" fill="#093f68" x="770" y="727"><svg xmlns="http://www.w3.org/2000/svg" xmlns:xlink="http://www.w3.org/1999/xlink" width="34" height="38" viewBox="0.037 0.928 33.815 36.329"><path paint-order="stroke fill markers" fill-rule="evenodd" d="M16.966 37.257C7.634 37.257.062 29.703.04 20.371V8.596a.677.677 0 0 1 1.272-.372c.13.248.4.39.678.359 1.259 0 3.73-1.937 6.865-7.32A.677.677 0 0 1 9.742 1c16.622 8.416 22.96 3.839 23.02 3.839a.677.677 0 0 1 .712-.061c.23.112.377.346.379.602v15.011c-.034 9.309-7.577 16.844-16.887 16.866zM1.394 9.89v10.48c-.003 8.583 6.953 15.54 15.535 15.54 8.583 0 15.54-6.957 15.54-15.54l-.004-13.872C29.973 7.58 23.047 9.145 9.688 2.509c-2.878 4.794-5.6 7.448-7.706 7.448a2.795 2.795 0 0 1-.554-.067h-.034z"/></svg></svg><svg width="4" height="4" xmlns="http://www.w3.org/2000/svg" xmlns:xlink="http://www.w3.org/1999/xlink" xmlns:svgjs="http://svgjs.com/svgjs" viewBox="0 0 4 3.999" fill="#093f68" x="779" y="743"><svg xmlns="http://www.w3.org/2000/svg" xmlns:xlink="http://www.w3.org/1999/xlink" width="4" height="4" viewBox="0.457 0.505 3.007 3.006"><path paint-order="stroke fill markers" fill-rule="evenodd" d="M1.96 3.51A1.502 1.502 0 0 1 .458 2.009c0-.831.672-1.503 1.504-1.503.831 0 1.503.672 1.503 1.503 0 .831-.672 1.503-1.503 1.503z"/></svg></svg><svg width="4" height="4" xmlns="http://www.w3.org/2000/svg" xmlns:xlink="http://www.w3.org/1999/xlink" xmlns:svgjs="http://svgjs.com/svgjs" viewBox="0 0 3.999 4" fill="#093f68" x="793" y="743"><svg xmlns="http://www.w3.org/2000/svg" xmlns:xlink="http://www.w3.org/1999/xlink" width="4" height="4" viewBox="0.439 0.505 3.006 3.006"><path paint-order="stroke fill markers" fill-rule="evenodd" d="M1.943 3.51A1.502 1.502 0 0 1 .439 2.009a1.502 1.502 0 1 1 3.006 0c0 .831-.672 1.503-1.502 1.503z"/></svg></svg><svg width="5" height="6" xmlns="http://www.w3.org/2000/svg" xmlns:xlink="http://www.w3.org/1999/xlink" xmlns:svgjs="http://svgjs.com/svgjs" viewBox="0.321 0 4.357 6" fill="#093f68" x="786" y="746"><svg xmlns="http://www.w3.org/2000/svg" xmlns:xlink="http://www.w3.org/1999/xlink" width="5" height="6" viewBox="0.219 0.223 4.118 5.671"><path paint-order="stroke fill markers" fill-rule="evenodd" d="M2.273 5.894a8.499 8.499 0 0 1-1.496-.129.676.676 0 0 1 .237-1.334 6.922 6.922 0 0 0 1.984.054 11.828 11.828 0 0 0-1.246-3.277.677.677 0 0 1 .284-.907.677.677 0 0 1 .915.284c.677 1.287 1.726 3.589 1.28 4.598a1.022 1.022 0 0 1-.678.575c-.42.097-.85.142-1.28.136z"/></svg></svg><svg width="10" height="4" xmlns="http://www.w3.org/2000/svg" xmlns:xlink="http://www.w3.org/1999/xlink" xmlns:svgjs="http://svgjs.com/svgjs" viewBox="0 0.546 10 2.908" fill="#093f68" x="776" y="738"><svg xmlns="http://www.w3.org/2000/svg" xmlns:xlink="http://www.w3.org/1999/xlink" width="10" height="4" viewBox="0.025 0.142 9.848 2.864"><path paint-order="stroke fill markers" fill-rule="evenodd" d="M8.535 3.006L1.38 2.851a1.354 1.354 0 1 1 0-2.709l7.156.156a1.354 1.354 0 1 1-.033 2.708h.033z"/></svg></svg><svg width="11" height="4" xmlns="http://www.w3.org/2000/svg" xmlns:xlink="http://www.w3.org/1999/xlink" xmlns:svgjs="http://svgjs.com/svgjs" viewBox="0 0.275 11 3.449" fill="#093f68" x="790" y="738"><svg xmlns="http://www.w3.org/2000/svg" xmlns:xlink="http://www.w3.org/1999/xlink" width="11" height="4" viewBox="0.443 0.425 9.898 3.104"><path paint-order="stroke fill markers" fill-rule="evenodd" d="M1.835 3.528A1.355 1.355 0 1 1 1.76.819L8.91.427a1.356 1.356 0 1 1 .149 2.708l-7.15.393h-.074z"/></svg></svg><svg width="5" height="5" xmlns="http://www.w3.org/2000/svg" xmlns:xlink="http://www.w3.org/1999/xlink" xmlns:svgjs="http://svgjs.com/svgjs" viewBox="0 0.533 5 3.934" fill="#f56132" x="784" y="768"><svg xmlns="http://www.w3.org/2000/svg" xmlns:xlink="http://www.w3.org/1999/xlink" width="5" height="5" viewBox="0.638 0.922 4.096 3.223"><path paint-order="stroke fill markers" fill-rule="evenodd" d="M1.83.922h1.712c.659 0 1.192.533 1.192 1.192v.84c0 .658-.533 1.19-1.192 1.19H1.83a1.19 1.19 0 0 1-1.191-1.19v-.84c0-.66.532-1.192 1.191-1.192z"/></svg></svg><svg width="7" height="5" xmlns="http://www.w3.org/2000/svg" xmlns:xlink="http://www.w3.org/1999/xlink" xmlns:svgjs="http://svgjs.com/svgjs" viewBox="0.519 0 5.961 5" fill="#093f68" x="783" y="768"><svg xmlns="http://www.w3.org/2000/svg" xmlns:xlink="http://www.w3.org/1999/xlink" width="7" height="5" viewBox="0.974 0.245 5.457 4.577"><path paint-order="stroke fill markers" fill-rule="evenodd" d="M4.563 4.822h-1.72A1.869 1.869 0 0 1 .973 2.96v-.846a1.876 1.876 0 0 1 1.87-1.87h1.72a1.875 1.875 0 0 1 1.868 1.87v.846a1.868 1.868 0 0 1-1.868 1.862zm-1.72-3.223a.515.515 0 0 0-.515.515v.846a.515.515 0 0 0 .515.508h1.72c.28 0 .51-.226.514-.508v-.846a.515.515 0 0 0-.514-.515h-1.72z"/></svg></svg><svg width="6" height="20" xmlns="http://www.w3.org/2000/svg" xmlns:xlink="http://www.w3.org/1999/xlink" xmlns:svgjs="http://svgjs.com/svgjs" viewBox="0.433 0 5.133 20" fill="#f56132" x="784" y="772"><svg xmlns="http://www.w3.org/2000/svg" xmlns:xlink="http://www.w3.org/1999/xlink" width="6" height="20" viewBox="0.048 0.145 5.031 19.601"><path paint-order="stroke fill markers" fill-rule="evenodd" d="M5.08 10.714l-2.39 9.032L.047 9.942 1.511.145H3.86l1.22 10.57z"/></svg></svg><svg width="7" height="22" xmlns="http://www.w3.org/2000/svg" xmlns:xlink="http://www.w3.org/1999/xlink" xmlns:svgjs="http://svgjs.com/svgjs" viewBox="0.121 0 6.757 22" fill="#093f68" x="783" y="771"><svg xmlns="http://www.w3.org/2000/svg" xmlns:xlink="http://www.w3.org/1999/xlink" width="7" height="22" viewBox="0.35 0.468 6.437 20.956"><path paint-order="stroke fill markers" fill-rule="evenodd" d="M3.69 21.423a.677.677 0 0 1-.678-.5L.364 11.124a.696.696 0 0 1 0-.278l1.49-9.797a.677.677 0 0 1 .677-.582h2.35a.677.677 0 0 1 .676.602l1.22 10.563a.79.79 0 0 1 0 .25l-2.384 9.032a.677.677 0 0 1-.677.508h-.027zm-1.951-10.48l1.943 7.21 1.706-6.46-1.13-9.837H3.092l-1.354 9.086z"/></svg></svg><svg width="2" height="25" xmlns="http://www.w3.org/2000/svg" xmlns:xlink="http://www.w3.org/1999/xlink" xmlns:svgjs="http://svgjs.com/svgjs" viewBox="0.278 0 1.444 25" fill="#093f68" x="775" y="773"><svg xmlns="http://www.w3.org/2000/svg" xmlns:xlink="http://www.w3.org/1999/xlink" width="2" height="25" viewBox="0.124 0.817 1.354 23.441"><path paint-order="stroke fill markers" fill-rule="evenodd" d="M.801 24.258a.677.677 0 0 1-.677-.677V1.494a.677.677 0 0 1 1.354 0v22.114a.677.677 0 0 1-.677.65z"/></svg></svg><svg width="2" height="25" xmlns="http://www.w3.org/2000/svg" xmlns:xlink="http://www.w3.org/1999/xlink" xmlns:svgjs="http://svgjs.com/svgjs" viewBox="0.278 0 1.444 25" fill="#093f68" x="796" y="773"><svg xmlns="http://www.w3.org/2000/svg" xmlns:xlink="http://www.w3.org/1999/xlink" width="2" height="25" viewBox="0.642 0.817 1.354 23.441"><path paint-order="stroke fill markers" fill-rule="evenodd" d="M1.32 24.258a.677.677 0 0 1-.678-.677V1.494a.677.677 0 1 1 1.354 0v22.114a.678.678 0 0 1-.677.65z"/></svg></svg><svg width="10" height="7" xmlns="http://www.w3.org/2000/svg" xmlns:xlink="http://www.w3.org/1999/xlink" xmlns:svgjs="http://svgjs.com/svgjs" viewBox="0 0.369 10 6.262" fill="#fff" x="782" y="753"><svg xmlns="http://www.w3.org/2000/svg" xmlns:xlink="http://www.w3.org/1999/xlink" width="10" height="7" viewBox="0.424 0.579 9.41 5.892"><path paint-order="stroke fill markers" fill-rule="evenodd" d="M.464.58h9.37S8.9 6.733 4.615 6.462C-.273 6.16.465.58.465.58z"/></svg></svg><svg width="12" height="9" xmlns="http://www.w3.org/2000/svg" xmlns:xlink="http://www.w3.org/1999/xlink" xmlns:svgjs="http://svgjs.com/svgjs" viewBox="0 0.47 12 8.06" fill="#093f68" x="781" y="752"><svg xmlns="http://www.w3.org/2000/svg" xmlns:xlink="http://www.w3.org/1999/xlink" width="12" height="9" viewBox="0.73 0.909 10.776 7.238"><path paint-order="stroke fill markers" fill-rule="evenodd" d="M5.885 8.147h-.324a4.782 4.782 0 0 1-3.555-1.672C.4 4.525.76 1.62.774 1.498A.677.677 0 0 1 1.45.91h9.371a.678.678 0 0 1 .678.779c-.035.264-1.037 6.46-5.614 6.46zm-3.798-5.89a5.344 5.344 0 0 0 .968 3.385A3.467 3.467 0 0 0 5.641 6.82c2.75.176 3.94-3.013 4.34-4.53l-7.894-.033z"/></svg></svg><svg width="121" height="54" xmlns="http://www.w3.org/2000/svg" xmlns:xlink="http://www.w3.org/1999/xlink" xmlns:svgjs="http://svgjs.com/svgjs" viewBox="0 0.447 121 53.106" fill="#fff" x="753" y="782"><svg xmlns="http://www.w3.org/2000/svg" xmlns:xlink="http://www.w3.org/1999/xlink" width="121" height="54" viewBox="0.966 0.7 119.883 52.616"><path paint-order="stroke fill markers" fill-rule="evenodd" d="M.966.7H120.85v52.616H.966V.7z"/></svg></svg><svg width="122" height="54" xmlns="http://www.w3.org/2000/svg" xmlns:xlink="http://www.w3.org/1999/xlink" xmlns:svgjs="http://svgjs.com/svgjs" viewBox="0.355 0 121.29 54" fill="#093f68" x="753" y="782"><svg xmlns="http://www.w3.org/2000/svg" xmlns:xlink="http://www.w3.org/1999/xlink" width="122" height="54" viewBox="0.289 0.023 121.237 53.976"><path paint-order="stroke fill markers" fill-rule="evenodd" d="M120.849 54H.966a.677.677 0 0 1-.677-.677V.7C.29.327.592.023.966.023H120.85c.373 0 .677.304.677.677v52.623a.677.677 0 0 1-.677.677zM1.643 52.646h118.529V1.378H1.643v51.268z"/></svg></svg><svg width="22" height="26" xmlns="http://www.w3.org/2000/svg" xmlns:xlink="http://www.w3.org/1999/xlink" xmlns:svgjs="http://svgjs.com/svgjs" viewBox="0 0.54 22 24.92" fill="#70cc40" x="766" y="789"><svg xmlns="http://www.w3.org/2000/svg" xmlns:xlink="http://www.w3.org/1999/xlink" width="22" height="26" viewBox="0.214 0.62 21.524 24.381"><path paint-order="stroke fill markers" fill-rule="evenodd" d="M.214.62h21.524v24.382H.214V.62z"/></svg></svg><svg width="24" height="27" xmlns="http://www.w3.org/2000/svg" xmlns:xlink="http://www.w3.org/1999/xlink" xmlns:svgjs="http://svgjs.com/svgjs" viewBox="0 0.009 24 26.981" fill="#093f68" x="765" y="788"><svg xmlns="http://www.w3.org/2000/svg" xmlns:xlink="http://www.w3.org/1999/xlink" width="24" height="27" viewBox="0.537 0.95 22.886 25.729"><path paint-order="stroke fill markers" fill-rule="evenodd" d="M22.745 26.679H1.214a.677.677 0 0 1-.677-.677V1.627c0-.374.303-.677.677-.677h21.531c.374 0 .678.303.678.677v24.375a.677.677 0 0 1-.678.677zM1.891 25.325h20.177V2.305H1.891v23.02z"/></svg></svg><svg width="23" height="25" xmlns="http://www.w3.org/2000/svg" xmlns:xlink="http://www.w3.org/1999/xlink" xmlns:svgjs="http://svgjs.com/svgjs" viewBox="0.465 0 22.07 25" fill="#ffbc0e" x="771" y="786"><svg xmlns="http://www.w3.org/2000/svg" xmlns:xlink="http://www.w3.org/1999/xlink" width="23" height="25" viewBox="0.698 0.573 21.524 24.381"><path paint-order="stroke fill markers" fill-rule="evenodd" d="M.698.573h21.525v24.382H.698V.573z"/></svg></svg><svg width="23" height="27" xmlns="http://www.w3.org/2000/svg" xmlns:xlink="http://www.w3.org/1999/xlink" xmlns:svgjs="http://svgjs.com/svgjs" viewBox="0 0.567 23 25.865" fill="#093f68" x="771" y="785"><svg xmlns="http://www.w3.org/2000/svg" xmlns:xlink="http://www.w3.org/1999/xlink" width="23" height="27" viewBox="0.021 0.896 22.879 25.729"><path paint-order="stroke fill markers" fill-rule="evenodd" d="M22.223 26.625H.698a.677.677 0 0 1-.677-.677V1.573c0-.374.304-.677.677-.677h21.525c.373 0 .677.303.677.677v24.375a.677.677 0 0 1-.677.677zM1.376 25.271h20.17V2.25H1.376v23.02z"/></svg></svg><svg width="13" height="16" xmlns="http://www.w3.org/2000/svg" xmlns:xlink="http://www.w3.org/1999/xlink" xmlns:svgjs="http://svgjs.com/svgjs" viewBox="0 0.014 13 15.971" fill="#ffc9b0" x="795" y="799"><svg xmlns="http://www.w3.org/2000/svg" xmlns:xlink="http://www.w3.org/1999/xlink" width="13" height="16" viewBox="0.484 0.381 12.187 14.973"><path paint-order="stroke fill markers" fill-rule="evenodd" d="M12.671 12.605s-2.186-4.103-2.281-4.862a25.048 25.048 0 0 1 0-3.913 1.097 1.097 0 0 0-1.984-.677C7.81 4.013 7.73 6.2 7.73 6.2S4.872.106 3.917.39C2.962.675.484 3.342.484 4.108c0 .765 4.577 8.673 6.486 11.246l5.701-2.75z"/></svg></svg><svg width="15" height="18" xmlns="http://www.w3.org/2000/svg" xmlns:xlink="http://www.w3.org/1999/xlink" xmlns:svgjs="http://svgjs.com/svgjs" viewBox="0.052 0 14.896 18" fill="#093f68" x="794" y="798"><svg xmlns="http://www.w3.org/2000/svg" xmlns:xlink="http://www.w3.org/1999/xlink" width="15" height="18" viewBox="0.794 0.703 13.524 16.341"><path paint-order="stroke fill markers" fill-rule="evenodd" d="M7.957 17.044a.678.678 0 0 1-.548-.277C5.926 14.736.794 6.299.794 5.12c0-1.178 2.748-4.015 3.913-4.367.406-.122 1.286-.386 3.657 4.198A3.75 3.75 0 0 1 8.85 3.78a1.747 1.747 0 0 1 2.031-.623c.737.246 1.21.965 1.144 1.74a25.782 25.782 0 0 0 0 3.757 36.376 36.376 0 0 0 2.214 4.625c.083.166.1.357.047.535a.676.676 0 0 1-.351.4l-5.722 2.762a.677.677 0 0 1-.257.067zM2.161 5.114c.312 1.063 4.063 7.563 6.013 10.393l4.57-2.207c-.677-1.354-1.944-3.785-2.031-4.475a26.988 26.988 0 0 1 0-4.063.34.34 0 0 0-.258-.338.447.447 0 0 0-.494.122 7.088 7.088 0 0 0-.569 2.708.676.676 0 0 1-1.286.257C7.036 5.236 5.573 2.636 4.95 2.095a9.858 9.858 0 0 0-2.789 3.02z"/></svg></svg><svg width="12" height="10" xmlns="http://www.w3.org/2000/svg" xmlns:xlink="http://www.w3.org/1999/xlink" xmlns:svgjs="http://svgjs.com/svgjs" viewBox="0.196 0 11.608 10" fill="#ffc9b0" x="849" y="781"><svg xmlns="http://www.w3.org/2000/svg" xmlns:xlink="http://www.w3.org/1999/xlink" width="12" height="10" viewBox="0.494 0.238 10.752 9.262"><path paint-order="stroke fill markers" fill-rule="evenodd" d="M5.87 9.5C2.899 9.5.495 7.43.495 4.87.494 2.307 2.898.237 5.871.237s5.375 2.07 5.375 4.631C11.246 7.43 8.844 9.5 5.87 9.5z"/></svg></svg><svg width="13" height="12" xmlns="http://www.w3.org/2000/svg" xmlns:xlink="http://www.w3.org/1999/xlink" xmlns:svgjs="http://svgjs.com/svgjs" viewBox="0 0.296 13 11.407" fill="#093f68" x="848" y="780"><svg xmlns="http://www.w3.org/2000/svg" xmlns:xlink="http://www.w3.org/1999/xlink" width="13" height="12" viewBox="0.824 0.561 12.099 10.617"><path paint-order="stroke fill markers" fill-rule="evenodd" d="M6.87 11.178C3.54 11.178.825 8.8.825 5.869.824 2.937 3.532.561 6.871.561c3.337 0 6.052 2.383 6.052 5.308s-2.715 5.309-6.052 5.309zm0-9.263c-2.586 0-4.692 1.774-4.692 3.954S4.284 9.823 6.87 9.823c2.586 0 4.698-1.774 4.698-3.954S9.464 1.942 6.87 1.942v-.027z"/></svg></svg><svg width="36" height="42" xmlns="http://www.w3.org/2000/svg" xmlns:xlink="http://www.w3.org/1999/xlink" xmlns:svgjs="http://svgjs.com/svgjs" viewBox="0.206 0 35.588 42" fill="#ffc9b0" x="823" y="766"><svg xmlns="http://www.w3.org/2000/svg" xmlns:xlink="http://www.w3.org/1999/xlink" width="36" height="42" viewBox="0.142 0.011 34.958 41.256"><path paint-order="stroke fill markers" fill-rule="evenodd" d="M8.843.01C4.232 7.927 1.084 3.444.143 1.887V18.76c0 8.403 6.423 15.411 14.794 16.141v3.46a2.771 2.771 0 0 0 4.19 2.512 2.77 2.77 0 0 0 1.342-2.512v-3.243c9.83-.372 14.631-8.802 14.631-16.358L32.561 3.755S26.115 8.758 8.843.01z"/></svg></svg><svg width="37" height="43" xmlns="http://www.w3.org/2000/svg" xmlns:xlink="http://www.w3.org/1999/xlink" xmlns:svgjs="http://svgjs.com/svgjs" viewBox="0.12 0 36.761 43" fill="#093f68" x="822" y="765"><svg xmlns="http://www.w3.org/2000/svg" xmlns:xlink="http://www.w3.org/1999/xlink" width="37" height="43" viewBox="0.459 0.337 36.307 42.47"><path paint-order="stroke fill markers" fill-rule="evenodd" d="M18.706 42.806a3.446 3.446 0 0 1-3.446-3.446v-2.85C6.83 35.416.507 28.259.459 19.759V2.886a.676.676 0 0 1 1.26-.352c.947 1.564 1.95 2.356 2.979 2.356 1.354 0 2.951-1.476 4.55-4.218a.676.676 0 0 1 .886-.264c16.568 8.396 22.94 3.846 23.02 3.798a.677.677 0 0 1 .678-.088c.22.087.38.282.42.515l2.512 15.018a.623.623 0 0 1 0 .115 18.596 18.596 0 0 1-3.772 11.28A14.788 14.788 0 0 1 22.16 36.76v2.607a3.446 3.446 0 0 1-3.453 3.44zM1.779 4.89v14.896c.048 8.05 6.202 14.746 14.218 15.471.351.032.618.326.616.677v3.46a2.093 2.093 0 1 0 4.178 0v-3.243c0-.374.303-.677.678-.677 9.154-.346 13.954-8.125 13.98-15.627L33.08 5.845C30.744 6.92 23.811 8.722 10.127 1.93c-1.773 2.864-3.58 4.327-5.375 4.347h-.034A4.062 4.062 0 0 1 1.813 4.89H1.78z"/></svg></svg><svg width="9" height="10" xmlns="http://www.w3.org/2000/svg" xmlns:xlink="http://www.w3.org/1999/xlink" xmlns:svgjs="http://svgjs.com/svgjs" viewBox="0 0.091 9 9.818" fill="#ffc9b0" x="822" y="780"><svg xmlns="http://www.w3.org/2000/svg" xmlns:xlink="http://www.w3.org/1999/xlink" width="9" height="10" viewBox="0.045 0.534 8.491 9.262"><path paint-order="stroke fill markers" fill-rule="evenodd" d="M4.291 9.796c-2.347 0-4.246-2.07-4.246-4.63C.045 2.603 1.944.533 4.291.533c2.347 0 4.246 2.07 4.246 4.631 0 2.561-1.899 4.631-4.246 4.631z"/></svg></svg><svg width="11" height="12" xmlns="http://www.w3.org/2000/svg" xmlns:xlink="http://www.w3.org/1999/xlink" xmlns:svgjs="http://svgjs.com/svgjs" viewBox="0 0.073 11 11.854" fill="#093f68" x="821" y="779"><svg xmlns="http://www.w3.org/2000/svg" xmlns:xlink="http://www.w3.org/1999/xlink" width="11" height="12" viewBox="0.365 0.857 9.851 10.617"><path paint-order="stroke fill markers" fill-rule="evenodd" d="M5.291 11.473A5.125 5.125 0 0 1 .368 6.165C.368 3.24 2.576.857 5.291.857s4.922 2.383 4.922 5.308a5.125 5.125 0 0 1-4.922 5.308zm0-9.262A3.975 3.975 0 1 0 8.86 6.165 3.779 3.779 0 0 0 5.29 2.211z"/></svg></svg><svg width="44" height="46" xmlns="http://www.w3.org/2000/svg" xmlns:xlink="http://www.w3.org/1999/xlink" xmlns:svgjs="http://svgjs.com/svgjs" viewBox="0.233 0 43.533 46" fill="#725858" x="820" y="753"><svg xmlns="http://www.w3.org/2000/svg" xmlns:xlink="http://www.w3.org/1999/xlink" width="44" height="46" viewBox="0.918 0.589 42.507 44.916"><path paint-order="stroke fill markers" fill-rule="evenodd" d="M7.95 32.267C6.5 28.88 5.918 25.442 5.24 21.873a3.467 3.467 0 0 1-2.85-.927 5.254 5.254 0 0 1-1.314-2.708 9.69 9.69 0 0 1 1.87-7.685 10.73 10.73 0 0 1 5.28-3.758c.644-.183 5.905-.21 5.803.034.975-2.336 3.21-3.927 5.552-4.875 9.086-3.67 18.105.278 21.788 9.229 1.74 4.204 2.167 8.849 2.032 13.399-.123 4.74-.867 9.553-3.285 13.609-4.623 7.766-15.071 9.147-22.722 5.092-4.388-2.35-7.468-6.392-9.445-11.016z"/></svg></svg><svg width="45" height="48" xmlns="http://www.w3.org/2000/svg" xmlns:xlink="http://www.w3.org/1999/xlink" xmlns:svgjs="http://svgjs.com/svgjs" viewBox="0 0.32 45 47.36" fill="#093f68" x="820" y="752"><svg xmlns="http://www.w3.org/2000/svg" xmlns:xlink="http://www.w3.org/1999/xlink" width="45" height="48" viewBox="0.264 0.931 43.9 46.202"><path paint-order="stroke fill markers" fill-rule="evenodd" d="M26.414 47.133a20.086 20.086 0 0 1-9.297-2.261c-4.19-2.208-7.576-6.128-9.79-11.335-1.402-3.256-1.997-6.513-2.62-9.966a4.021 4.021 0 0 1-2.776-1.144 5.933 5.933 0 0 1-1.503-3.06 10.403 10.403 0 0 1 2.031-8.227A11.354 11.354 0 0 1 8.092 7.13c1.86-.162 3.73-.185 5.592-.067 1.017-1.99 3.013-3.663 5.688-4.74 9.296-3.75 18.836.278 22.675 9.601 1.55 3.772 2.241 8.24 2.1 13.677-.157 5.897-1.226 10.325-3.386 13.934-3.169 5.302-8.768 7.597-14.347 7.597zM5.262 22.196a.677.677 0 0 1 .677.556l.095.521c.616 3.385 1.198 6.595 2.546 9.73 2.105 4.922 5.281 8.612 9.174 10.677C24.687 47.343 35 46.537 39.583 38.84c2.031-3.385 3.04-7.624 3.189-13.277.135-5.241-.515-9.54-1.998-13.129C37.173 3.7 28.587.056 19.859 3.577c-2.552 1.029-4.393 2.634-5.179 4.503a.68.68 0 0 1-.887.365l-.088-.04a33.962 33.962 0 0 0-5.268.033 10.066 10.066 0 0 0-4.922 3.521 8.986 8.986 0 0 0-1.754 7.15 4.573 4.573 0 0 0 1.131 2.377 2.803 2.803 0 0 0 2.302.73l.068-.02z"/></svg></svg><svg width="2" height="24" xmlns="http://www.w3.org/2000/svg" xmlns:xlink="http://www.w3.org/1999/xlink" xmlns:svgjs="http://svgjs.com/svgjs" viewBox="0.307 0 1.385 24" fill="#093f68" x="849" y="812"><svg xmlns="http://www.w3.org/2000/svg" xmlns:xlink="http://www.w3.org/1999/xlink" width="2" height="24" viewBox="0.027 0.532 1.354 23.467"><path paint-order="stroke fill markers" fill-rule="evenodd" d="M.704 24a.677.677 0 0 1-.677-.677V1.209a.677.677 0 0 1 1.354 0v22.114A.677.677 0 0 1 .704 24z"/></svg></svg><svg width="59" height="33" xmlns="http://www.w3.org/2000/svg" xmlns:xlink="http://www.w3.org/1999/xlink" xmlns:svgjs="http://svgjs.com/svgjs" viewBox="0 0.526 59 31.949" fill="#68e1fd" x="800" y="803"><svg xmlns="http://www.w3.org/2000/svg" xmlns:xlink="http://www.w3.org/1999/xlink" width="59" height="33" viewBox="0.291 0.697 58.404 31.626"><path paint-order="stroke fill markers" fill-rule="evenodd" d="M53.306.697H32.364c-5.545 0-13.257 13.21-15.633 15.81C14.483 14.352 8.694 7.92 7.48 6.41l-7.19 3.717C.765 11.225 5.1 25.762 12.48 29.71c1.23.658 2.605 1 4.001.996 1.012-.001 2.017-.17 2.972-.501 2.032-.678 6.026-2.878 7.902-4.855v6.974h31.342V6.106a5.417 5.417 0 0 0-5.39-5.41z"/></svg></svg><svg width="61" height="33" xmlns="http://www.w3.org/2000/svg" xmlns:xlink="http://www.w3.org/1999/xlink" xmlns:svgjs="http://svgjs.com/svgjs" viewBox="0.595 0 59.809 33" fill="#093f68" x="799" y="803"><svg xmlns="http://www.w3.org/2000/svg" xmlns:xlink="http://www.w3.org/1999/xlink" width="61" height="33" viewBox="0.614 0.013 59.786 32.987"><path paint-order="stroke fill markers" fill-rule="evenodd" d="M59.716 33H28.375a.677.677 0 0 1-.677-.677v-5.45a27.453 27.453 0 0 1-7.009 3.974 9.391 9.391 0 0 1-7.508-.542C8.645 27.888 4.52 21.442.939 11.144c-.135-.38-.224-.637-.27-.752a.678.678 0 0 1 .31-.866l7.218-3.717a.677.677 0 0 1 .84.176c1.09 1.394 6.141 7.02 8.64 9.52.514-.678 1.191-1.605 1.95-2.668C23.268 7.73 28.766.013 33.356.013h20.949A6.094 6.094 0 0 1 60.4 6.106v26.217a.68.68 0 0 1-.684.677zm-30.664-1.354h29.987V6.106a4.74 4.74 0 0 0-4.74-4.739H33.365c-3.892 0-9.364 7.671-12.627 12.255-1.076 1.503-1.923 2.708-2.505 3.338a.677.677 0 0 1-.481.217.676.676 0 0 1-.487-.183c-2.106-2.031-7.225-7.692-8.951-9.737l-6.209 3.196.088.244C5.658 20.663 9.565 26.86 13.79 29.113a8.05 8.05 0 0 0 6.439.447c1.923-.677 5.85-2.803 7.63-4.678a.676.676 0 0 1 1.165.467l.028 6.297z"/></svg></svg><svg width="3" height="17" xmlns="http://www.w3.org/2000/svg" xmlns:xlink="http://www.w3.org/1999/xlink" xmlns:svgjs="http://svgjs.com/svgjs" viewBox="0.749 0 1.501 17" fill="#093f68" x="826" y="813"><svg xmlns="http://www.w3.org/2000/svg" xmlns:xlink="http://www.w3.org/1999/xlink" width="3" height="17" viewBox="0.698 0.69 1.354 15.336"><path paint-order="stroke fill markers" fill-rule="evenodd" d="M1.375 16.026a.677.677 0 0 1-.677-.677V1.367a.677.677 0 1 1 1.354 0V15.35a.677.677 0 0 1-.677.677z"/></svg></svg><svg width="41" height="28" xmlns="http://www.w3.org/2000/svg" xmlns:xlink="http://www.w3.org/1999/xlink" xmlns:svgjs="http://svgjs.com/svgjs" viewBox="0 0.142 41 27.717" fill="#093f68" x="832" y="808"><svg xmlns="http://www.w3.org/2000/svg" xmlns:xlink="http://www.w3.org/1999/xlink" width="41" height="28" viewBox="0.927 0.348 39.852 26.941"><path paint-order="stroke fill markers" fill-rule="evenodd" d="M8.016.348h25.66a7.102 7.102 0 0 1 7.103 7.103v19.838H.927V7.451A7.103 7.103 0 0 1 8.016.348z"/></svg></svg><svg width="42" height="29" xmlns="http://www.w3.org/2000/svg" xmlns:xlink="http://www.w3.org/1999/xlink" xmlns:svgjs="http://svgjs.com/svgjs" viewBox="0 0.063 42 28.874" fill="#093f68" x="832" y="807"><svg xmlns="http://www.w3.org/2000/svg" xmlns:xlink="http://www.w3.org/1999/xlink" width="42" height="29" viewBox="0.249 0.671 41.207 28.329"><path paint-order="stroke fill markers" fill-rule="evenodd" d="M40.779 29H.927a.677.677 0 0 1-.678-.677V8.484A7.793 7.793 0 0 1 8.016.671h25.66a7.793 7.793 0 0 1 7.78 7.786v19.839a.674.674 0 0 1-.677.704zm-39.19-1.354h38.512V8.484a6.439 6.439 0 0 0-6.425-6.432H8.016a6.44 6.44 0 0 0-6.427 6.432v19.162z"/></svg></svg><svg width="41" height="28" xmlns="http://www.w3.org/2000/svg" xmlns:xlink="http://www.w3.org/1999/xlink" xmlns:svgjs="http://svgjs.com/svgjs" viewBox="0 0.149 41 27.702" fill="#f56132" x="838" y="808"><svg xmlns="http://www.w3.org/2000/svg" xmlns:xlink="http://www.w3.org/1999/xlink" width="41" height="28" viewBox="0.16 0.348 39.873 26.941"><path paint-order="stroke fill markers" fill-rule="evenodd" d="M7.27.348h25.66a7.102 7.102 0 0 1 7.103 7.103v19.838H.16V7.451A7.103 7.103 0 0 1 7.27.348z"/></svg></svg><svg width="42" height="29" xmlns="http://www.w3.org/2000/svg" xmlns:xlink="http://www.w3.org/1999/xlink" xmlns:svgjs="http://svgjs.com/svgjs" viewBox="0 0.084 42 28.832" fill="#093f68" x="837" y="807"><svg xmlns="http://www.w3.org/2000/svg" xmlns:xlink="http://www.w3.org/1999/xlink" width="42" height="29" viewBox="0.483 0.698 41.227 28.302"><path paint-order="stroke fill markers" fill-rule="evenodd" d="M41.033 29H1.16a.677.677 0 0 1-.677-.677V8.484A7.794 7.794 0 0 1 8.269.698h25.655a7.793 7.793 0 0 1 7.786 7.786v19.839a.677.677 0 0 1-.677.677zM1.837 27.646h38.519V8.484a6.44 6.44 0 0 0-6.432-6.432H8.269a6.44 6.44 0 0 0-6.432 6.432v19.162z"/></svg></svg><svg width="15" height="2" xmlns="http://www.w3.org/2000/svg" xmlns:xlink="http://www.w3.org/1999/xlink" xmlns:svgjs="http://svgjs.com/svgjs" viewBox="0 0.306 15 1.388" fill="#093f68" x="775" y="804"><svg xmlns="http://www.w3.org/2000/svg" xmlns:xlink="http://www.w3.org/1999/xlink" width="15" height="2" viewBox="0.124 0.286 14.632 1.354"><path paint-order="stroke fill markers" fill-rule="evenodd" d="M14.08 1.64H.8a.677.677 0 0 1 0-1.354H14.08a.677.677 0 0 1 0 1.354z"/></svg></svg><svg width="15" height="2" xmlns="http://www.w3.org/2000/svg" xmlns:xlink="http://www.w3.org/1999/xlink" xmlns:svgjs="http://svgjs.com/svgjs" viewBox="0 0.306 15 1.388" fill="#093f68" x="775" y="800"><svg xmlns="http://www.w3.org/2000/svg" xmlns:xlink="http://www.w3.org/1999/xlink" width="15" height="2" viewBox="0.124 0.095 14.632 1.354"><path paint-order="stroke fill markers" fill-rule="evenodd" d="M14.08 1.449H.8a.677.677 0 0 1 0-1.354H14.08a.677.677 0 0 1 0 1.354z"/></svg></svg><svg width="15" height="3" xmlns="http://www.w3.org/2000/svg" xmlns:xlink="http://www.w3.org/1999/xlink" xmlns:svgjs="http://svgjs.com/svgjs" viewBox="0 0.806 15 1.388" fill="#093f68" x="775" y="795"><svg xmlns="http://www.w3.org/2000/svg" xmlns:xlink="http://www.w3.org/1999/xlink" width="15" height="3" viewBox="0.124 0.904 14.632 1.354"><path paint-order="stroke fill markers" fill-rule="evenodd" d="M14.08 2.258H.8a.677.677 0 0 1 0-1.354H14.08a.677.677 0 0 1 0 1.354z"/></svg></svg><svg width="10" height="3" xmlns="http://www.w3.org/2000/svg" xmlns:xlink="http://www.w3.org/1999/xlink" xmlns:svgjs="http://svgjs.com/svgjs" viewBox="0 0.742 10 1.515" fill="#093f68" x="780" y="791"><svg xmlns="http://www.w3.org/2000/svg" xmlns:xlink="http://www.w3.org/1999/xlink" width="10" height="3" viewBox="0.791 0.706 8.938 1.354"><path paint-order="stroke fill markers" fill-rule="evenodd" d="M9.08 2.06H1.467a.677.677 0 0 1 0-1.354h7.584a.677.677 0 1 1 0 1.354h.027z"/></svg></svg><svg width="39" height="28" xmlns="http://www.w3.org/2000/svg" xmlns:xlink="http://www.w3.org/1999/xlink" xmlns:svgjs="http://svgjs.com/svgjs" viewBox="0 0.045 39 27.91" fill="#fff" x="826" y="715"><svg xmlns="http://www.w3.org/2000/svg" xmlns:xlink="http://www.w3.org/1999/xlink" width="39" height="28" viewBox="0.115 0.02 37.909 27.13"><path paint-order="stroke fill markers" fill-rule="evenodd" d="M20.468.02C10.772.02 2.912 6.04 2.912 13.467a11.34 11.34 0 0 0 3.107 7.63 13.049 13.049 0 0 1-5.904 5.817s5.674 1.394 10-2.594a21.268 21.268 0 0 0 10.353 2.594c9.696 0 17.557-6.026 17.557-13.447C38.025 6.047 30.157.02 20.468.02z"/></svg></svg><svg width="40" height="29" xmlns="http://www.w3.org/2000/svg" xmlns:xlink="http://www.w3.org/1999/xlink" xmlns:svgjs="http://svgjs.com/svgjs" viewBox="0.031 0 39.938 29" fill="#093f68" x="825" y="714"><svg xmlns="http://www.w3.org/2000/svg" xmlns:xlink="http://www.w3.org/1999/xlink" width="40" height="29" viewBox="0.437 0.33 39.258 28.506"><path paint-order="stroke fill markers" fill-rule="evenodd" d="M3.532 28.834a11.86 11.86 0 0 1-2.58-.264.676.676 0 0 1-.135-1.266 12.365 12.365 0 0 0 5.376-5.112 11.894 11.894 0 0 1-2.966-7.739C3.227 6.667 11.407.33 21.461.33c10.055 0 18.234 6.35 18.234 14.123s-8.179 14.138-18.227 14.138A21.93 21.93 0 0 1 11.21 26.14a11.733 11.733 0 0 1-7.678 2.694zm-.318-1.354c2.73.124 5.402-.821 7.448-2.634a.678.678 0 0 1 .792-.094 20.487 20.487 0 0 0 10.02 2.505c9.31 0 16.88-5.728 16.88-12.77 0-7.041-7.584-12.79-16.886-12.79-9.303 0-16.886 5.728-16.886 12.756a10.67 10.67 0 0 0 2.931 7.177c.19.21.23.514.102.765a13.797 13.797 0 0 1-4.428 5.065l.027.02z"/></svg></svg><svg width="19" height="3" xmlns="http://www.w3.org/2000/svg" xmlns:xlink="http://www.w3.org/1999/xlink" xmlns:svgjs="http://svgjs.com/svgjs" viewBox="0 0.791 19 1.418" fill="#093f68" x="838" y="723"><svg xmlns="http://www.w3.org/2000/svg" xmlns:xlink="http://www.w3.org/1999/xlink" width="19" height="3" viewBox="0.038 0.836 18.146 1.354"><path paint-order="stroke fill markers" fill-rule="evenodd" d="M17.507 2.19H.715a.677.677 0 0 1 0-1.354h16.792a.677.677 0 0 1 0 1.354z"/></svg></svg><svg width="19" height="2" xmlns="http://www.w3.org/2000/svg" xmlns:xlink="http://www.w3.org/1999/xlink" xmlns:svgjs="http://svgjs.com/svgjs" viewBox="0 0.291 19 1.418" fill="#093f68" x="838" y="728"><svg xmlns="http://www.w3.org/2000/svg" xmlns:xlink="http://www.w3.org/1999/xlink" width="19" height="2" viewBox="0.038 0.582 18.146 1.354"><path paint-order="stroke fill markers" fill-rule="evenodd" d="M17.507 1.936H.715a.677.677 0 0 1 0-1.354h16.792a.677.677 0 0 1 0 1.354z"/></svg></svg><svg width="11" height="2" xmlns="http://www.w3.org/2000/svg" xmlns:xlink="http://www.w3.org/1999/xlink" xmlns:svgjs="http://svgjs.com/svgjs" viewBox="0 0.299 11 1.401" fill="#093f68" x="838" y="733"><svg xmlns="http://www.w3.org/2000/svg" xmlns:xlink="http://www.w3.org/1999/xlink" width="11" height="2" viewBox="0.038 0.335 10.63 1.354"><path paint-order="stroke fill markers" fill-rule="evenodd" d="M9.991 1.69H.715a.677.677 0 0 1 0-1.355h9.276a.677.677 0 1 1 0 1.354z"/></svg></svg><svg width="11" height="12" xmlns="http://www.w3.org/2000/svg" xmlns:xlink="http://www.w3.org/1999/xlink" xmlns:svgjs="http://svgjs.com/svgjs" viewBox="0.181 0 10.639 12" fill="#ffc9b0" x="770" y="779"><svg xmlns="http://www.w3.org/2000/svg" xmlns:xlink="http://www.w3.org/1999/xlink" width="11" height="12" viewBox="0.626 0.14 9.889 11.155"><path paint-order="stroke fill markers" fill-rule="evenodd" d="M.635 4.81c.153 1.502.537 2.97 1.138 4.354.184.76.635 1.429 1.273 1.883a3.135 3.135 0 0 0 1.658.216c1.17-.022 2.33-.223 3.44-.595 2.709-1.03 2.627-2.966 2.031-5.417C9.71 3.22 8.523.85 6.323.28a4.74 4.74 0 0 0-4.97 1.794 4.49 4.49 0 0 0-.718 2.736z"/></svg></svg><svg width="13" height="13" xmlns="http://www.w3.org/2000/svg" xmlns:xlink="http://www.w3.org/1999/xlink" xmlns:svgjs="http://svgjs.com/svgjs" viewBox="0.662 0 11.675 13" fill="#093f68" x="769" y="778"><svg xmlns="http://www.w3.org/2000/svg" width="13" height="13" viewBox="0.95 0.44 11.247 12.523"><path paint-order="stroke fill markers" fill-rule="evenodd" d="M5.183 12.96a3.027 3.027 0 0 1-1.483-.317 3.834 3.834 0 0 1-1.584-2.241l-.06-.156A14.578 14.578 0 0 1 .957 5.838a5.214 5.214 0 0 1 .86-3.169A5.417 5.417 0 0 1 7.52.604c2.031.528 3.677 2.573 4.347 5.471.535 2.356.833 4.97-2.478 6.222a12.255 12.255 0 0 1-3.643.643 8.17 8.17 0 0 1-.562.02zM6.206 1.804a4.064 4.064 0 0 0-3.291 1.631 3.834 3.834 0 0 0-.63 2.357C2.43 7.165 2.78 8.51 3.33 9.779l.054.155c.136.6.473 1.134.954 1.517.417.157.867.203 1.307.135a10.48 10.48 0 0 0 3.236-.555c2.12-.799 2.214-2.14 1.639-4.651-.21-.894-1.056-3.873-3.386-4.462a3.661 3.661 0 0 0-.927-.115z"/></svg></svg></svg>